<svg width="19" height="20" viewBox="0 0 19 20" fill="none" xmlns="http://www.w3.org/2000/svg">
  <path d="M0.571009 12.355C0.50045 12.6133 0.48224 12.8829 0.517431 13.1482C0.552623 13.4135 0.640518 13.6693 0.776027 13.9007L1.73253 15.5444C2.00523 16.0116 2.45357 16.3525 2.97926 16.4923C3.50494 16.6321 4.06506 16.5594 4.53681 16.2902L4.95616 16.0473C5.43128 16.3933 5.94269 16.6874 6.4815 16.9244V17.4088C6.4815 18.5414 7.4134 19.4659 8.54398 19.4659H10.4574C11.5883 19.4659 12.5202 18.5414 12.5202 17.4084V16.924C13.0589 16.6869 13.5702 16.3927 14.0452 16.0465L14.4664 16.2895C14.9379 16.559 15.498 16.6319 16.0236 16.4921C16.5493 16.3523 16.9975 16.0113 17.2699 15.544L18.2261 13.9003C18.4976 13.4323 18.5708 12.8765 18.4298 12.3549C18.2888 11.8334 17.945 11.3886 17.4738 11.1181L17.0504 10.8755C17.1185 10.2934 17.1185 9.70533 17.0504 9.12316L17.4738 8.88058C17.945 8.61007 18.2887 8.16522 18.4295 7.64363C18.5704 7.12204 18.497 6.56631 18.2253 6.09837L17.2688 4.4547C16.9962 3.9874 16.5478 3.64643 16.0221 3.50661C15.4964 3.36679 14.9363 3.43952 14.4645 3.70886L14.0456 3.95181C13.5705 3.60578 13.059 3.3117 12.5202 3.07469V2.59065C12.5202 1.45765 11.5883 0.533203 10.4574 0.533203H8.54398C7.4134 0.533203 6.4815 1.45765 6.4815 2.59065V3.07506C5.9428 3.31221 5.43151 3.60641 4.95654 3.95254L4.53494 3.7096C4.30166 3.57581 4.04408 3.48895 3.77693 3.45399C3.50978 3.41903 3.23831 3.43665 2.97803 3.50585C2.71775 3.57506 2.47378 3.69448 2.26007 3.85729C2.04635 4.0201 1.86709 4.22311 1.73253 4.4547L0.776027 6.09837C0.504352 6.56637 0.430898 7.12215 0.571779 7.6438C0.71266 8.16545 1.05637 8.61037 1.52751 8.88095L1.95097 9.12353C1.88287 9.7057 1.88287 10.2937 1.95097 10.8759L1.52751 11.1185C1.29359 11.2516 1.0886 11.4295 0.924422 11.6417C0.76024 11.854 0.640118 12.0964 0.571009 12.355ZM2.21898 12.3066L3.47183 11.5896L3.38461 11.114C3.24959 10.3774 3.24959 9.62273 3.38461 8.88613L3.47183 8.40949L2.21936 7.69212C2.06559 7.6038 1.95341 7.45859 1.90742 7.28834C1.86144 7.11808 1.88541 6.93668 1.97408 6.78394L2.93096 5.14064C3.01986 4.98788 3.16625 4.87637 3.33798 4.83061C3.50971 4.78484 3.69273 4.80858 3.84683 4.89659L5.10229 5.61581L5.47505 5.30187C6.04652 4.81636 6.70269 4.43864 7.41117 4.18735L7.86071 4.02502V2.59065C7.86071 2.22087 8.18203 1.90138 8.54398 1.90138H10.4574C10.8197 1.90138 11.141 2.21902 11.141 2.59065V4.02502L11.5924 4.18772C12.3015 4.43913 12.9584 4.81683 13.5308 5.30224L13.9002 5.61581L15.1564 4.89659C15.3103 4.80887 15.493 4.78522 15.6644 4.83082C15.8359 4.87642 15.9821 4.98756 16.0711 5.1399L17.0276 6.78357C17.1163 6.93631 17.1403 7.11771 17.0943 7.28797C17.0483 7.45822 16.9361 7.60343 16.7824 7.69175L15.5299 8.40949L15.6171 8.88502C15.7522 9.62162 15.7522 10.3763 15.6171 11.1129L15.5299 11.5896L16.7824 12.307C16.9361 12.3953 17.0483 12.5405 17.0943 12.7107C17.1403 12.881 17.1163 13.0624 17.0276 13.2151L16.0708 14.8584C15.9819 15.0112 15.8355 15.1227 15.6637 15.1685C15.492 15.2142 15.309 15.1905 15.1549 15.1025L13.8994 14.3833L13.5267 14.6972C12.9552 15.1827 12.299 15.5604 11.5906 15.8117L11.141 15.974V17.4084C11.141 17.7782 10.8197 18.0977 10.4574 18.0977H8.54398C8.18166 18.0977 7.86071 17.78 7.86071 17.4084V15.974L7.4093 15.8113C6.7002 15.5599 6.04332 15.1822 5.47095 14.6968L5.10154 14.3833L3.84534 15.1025C3.69139 15.1903 3.50862 15.214 3.33709 15.1684C3.16555 15.1228 3.01923 15.0116 2.93021 14.8592L1.97371 13.2148C1.88495 13.0619 1.86097 12.8804 1.90703 12.7101C1.95309 12.5397 2.06505 12.3948 2.21898 12.3066Z" fill="black"/>
  <path d="M9.50107 14.0847C10.3156 14.0847 11.1118 13.8451 11.7891 13.3962C12.4663 12.9473 12.9942 12.3092 13.3059 11.5628C13.6176 10.8163 13.6991 9.99484 13.5402 9.20237C13.3813 8.4099 12.9891 7.68196 12.4131 7.11062C11.8372 6.53928 11.1034 6.15019 10.3045 5.99256C9.50564 5.83493 8.6776 5.91583 7.92508 6.22504C7.17257 6.53425 6.52938 7.05787 6.07686 7.7297C5.62434 8.40152 5.38281 9.19138 5.38281 9.99937C5.384 11.0825 5.81826 12.1209 6.59033 12.8868C7.3624 13.6527 8.40921 14.0835 9.50107 14.0847ZM9.50107 7.28631C10.0421 7.28631 10.5709 7.44546 11.0208 7.74363C11.4706 8.04181 11.8212 8.46561 12.0282 8.96144C12.2352 9.45728 12.2894 10.0029 12.1838 10.5292C12.0782 11.0556 11.8177 11.5391 11.4351 11.9186C11.0525 12.298 10.5651 12.5564 10.0345 12.6611C9.50385 12.7657 8.95386 12.712 8.45405 12.5065C7.95425 12.3011 7.52707 11.9532 7.22656 11.507C6.92604 11.0607 6.76568 10.5361 6.76575 9.99937C6.76654 9.27997 7.05498 8.59025 7.56778 8.08155C8.08058 7.57285 8.77586 7.28709 9.50107 7.28631Z" fill="black"/>
</svg>
