<svg width="123" height="60" viewBox="0 0 123 60" fill="none" xmlns="http://www.w3.org/2000/svg">
<path d="M66.029 57.1985L54.6787 19.8256L60.1827 18.0576L71.533 55.4304C72.0083 56.9933 71.1623 58.6539 69.6413 59.1423C68.1203 59.6405 66.5043 58.7614 66.029 57.1985Z" fill="white"/>
<path d="M65.5935 57.5436L53.7774 18.6274C53.6823 18.3246 53.8534 18.012 54.1386 17.9143C54.4333 17.8166 54.7375 17.9924 54.8325 18.2855L66.6486 57.2017C67.0194 58.4325 68.3027 59.126 69.51 58.7451C70.7077 58.3641 71.3827 57.0454 71.0119 55.8049L59.1959 16.8886C59.1008 16.5858 59.2719 16.2733 59.5571 16.1756C59.8518 16.0779 60.156 16.2537 60.251 16.5468L72.0671 55.463C72.6279 57.2994 71.6298 59.253 69.8427 59.8195C68.046 60.3959 66.1448 59.3702 65.5935 57.5436Z" fill="#666666"/>
<path d="M50.7767 4.88485L58.6612 55.5642L50.1459 57.0255L42.2614 6.34619C41.8811 3.8814 43.4672 1.553 45.8233 1.14383C48.1794 0.744394 50.3964 2.42006 50.7767 4.88485Z" fill="white"/>
<path d="M49.6649 59.2461L41.4187 6.26758C40.9642 3.32541 42.8657 0.548864 45.667 0.0714928C48.4684 -0.405879 51.112 1.59128 51.5665 4.52371L59.8127 57.5022C59.8869 57.9796 59.5808 58.4277 59.1263 58.5057C58.6718 58.5836 58.2451 58.2621 58.1709 57.7847L49.9247 4.80624C49.6186 2.81881 47.8283 1.47438 45.9361 1.79587C44.0438 2.11737 42.7637 3.99763 43.0698 5.98505L51.3161 58.9636C51.3903 59.4409 51.0841 59.8891 50.6296 59.967C50.1658 60.0547 49.7392 59.7234 49.6649 59.2461Z" fill="#FE5D5D"/>
<path d="M115.986 58.4902L81.2637 30.2128L85.3604 24.7158L120.083 52.9933C121.536 54.1786 121.798 56.364 120.664 57.8827C119.537 59.4014 117.439 59.6681 115.986 58.4902Z" fill="white"/>
<path d="M115.784 59.1151L79.6221 29.6597C79.3457 29.43 79.2961 29.0152 79.5087 28.7262C79.7284 28.4373 80.1253 28.3855 80.4018 28.6077L116.57 58.0631C117.718 58.9966 119.377 58.7817 120.27 57.5816C121.163 56.3814 120.958 54.6479 119.809 53.7144L83.6479 24.259C83.3715 24.0294 83.3219 23.6145 83.5345 23.3256C83.7471 23.0367 84.1512 22.9848 84.4276 23.2071L120.589 52.6625C122.29 54.0478 122.595 56.6259 121.269 58.4039C119.951 60.1819 117.485 60.5078 115.784 59.1151Z" fill="#615EF7"/>
<path d="M65.2855 8.49878L93.7147 53.1156L87.2378 57.6027L58.8085 12.9859C57.6181 11.1187 58.1055 8.60631 59.8958 7.36478C61.6767 6.13303 64.095 6.64137 65.2855 8.49878Z" fill="white"/>
<path d="M65.7165 7.89502L95.327 54.3692C95.552 54.731 95.4582 55.21 95.1208 55.4446C94.774 55.6792 94.3147 55.5814 94.0897 55.2295L64.4792 8.75529C63.5419 7.27914 61.6297 6.87834 60.2144 7.85592C58.799 8.8335 58.4147 10.8278 59.352 12.3039L88.9625 58.7781C89.1874 59.1398 89.0937 59.6189 88.7563 59.8535C88.4094 60.0881 87.9502 59.9903 87.7252 59.6384L58.1147 13.1642C56.7181 10.9744 57.2899 8.01234 59.3895 6.56552C61.4891 5.10892 64.3293 5.70524 65.7165 7.89502Z" fill="#68F2D2"/>
<path d="M41.5247 6.9409L32.2979 6.9209L32.1828 59.9801L41.4097 60.0001L41.5247 6.9409Z" fill="#68F2D2"/>
<path d="M41.4969 19.8452L32.2705 19.8252L32.2348 36.3159L41.4611 36.3359L41.4969 19.8452Z" fill="#AFFFEC"/>
<path d="M41.5115 12.6772L32.2852 12.6572L32.2774 16.2408L41.5038 16.2608L41.5115 12.6772Z" fill="#AFFFEC"/>
<path d="M41.4315 49.6557L32.2051 49.6357L32.1973 53.2199L41.4237 53.2399L41.4315 49.6557Z" fill="#AFFFEC"/>
<path d="M0.000185013 0H16.1475V59.9801H0.000185013V0Z" fill="#FE5D5D"/>
<path d="M0.00116158 15.0322H16.1484V33.7484H0.00116158V15.0322Z" fill="#FF7975"/>
<path d="M0.00116158 6.89355H16.1484V10.9602H0.00116158V6.89355Z" fill="#FF7975"/>
<path d="M16.1486 0H32.2959V59.9801H16.1486V0Z" fill="#615EF7"/>
<path d="M16.1496 15.0322H32.2969V33.7484H16.1496V15.0322Z" fill="#7371FF"/>
<path d="M16.1496 6.89355H32.2969V10.9602H16.1496V6.89355Z" fill="#7371FF"/>
</svg>
