<svg width="93" height="60" viewBox="0 0 93 60" fill="none" xmlns="http://www.w3.org/2000/svg">
<path d="M9.40178 44.1038C9.13469 38.9005 10.6304 34.1248 13.141 30.7747C15.4913 27.6384 18.6963 25.7139 22.2218 25.7139H90.9159C91.9308 25.7139 92.7321 26.783 92.7321 28.1373C92.7321 29.4916 91.9308 30.5608 90.9159 30.5608H31.089C26.3883 30.5608 22.2218 35.0514 21.6342 41.2527C20.9398 48.7369 25.2666 55.1521 30.7685 55.1521H90.9159C91.9308 55.1521 92.7321 56.2213 92.7321 57.5756C92.7321 58.9298 91.9308 59.999 90.9159 59.999H22.6492C15.8118 60.0703 9.82911 53.2275 9.40178 44.1038Z" fill="#68F2D2"/>
<path d="M89.1427 30.4893V55.175H23.5785C18.6036 55.175 14.5713 49.6654 14.5713 42.8679C14.5713 36.0704 18.6036 30.5608 23.5785 30.5608H89.1427V30.4893Z" fill="white"/>
<path d="M83.3837 11.9218C83.6508 15.8243 82.1551 19.406 79.6446 21.9186C77.2942 24.2708 74.0892 25.7142 70.5637 25.7142H1.81617C0.80125 25.7142 0 24.9123 0 23.8966C0 22.8809 0.80125 22.079 1.81617 22.079H61.6431C66.3437 22.079 70.5103 18.7111 71.0979 14.0601C71.7923 8.44694 67.4655 3.63563 61.9636 3.63563H1.81617C0.80125 3.63563 0 2.83374 0 1.81802C0 0.802295 0.80125 0.000413819 1.81617 0.000413819H70.1363C76.9203 -0.0530452 82.903 5.07903 83.3837 11.9218Z" fill="#615EF7"/>
<path d="M3.63184 22.0264V3.58301H70.5098C75.5844 3.58301 79.6975 7.69934 79.6975 12.7779C79.6975 17.8565 75.5844 21.9729 70.5098 21.9729H3.63184V22.0264Z" fill="white"/>
<path d="M69.655 37.9043L63.7792 33.0395L57.9033 37.9043V7.43262H69.655V37.9043Z" fill="#FE5D5D"/>
</svg>
