<svg width="106" height="60" viewBox="0 0 106 60" fill="none" xmlns="http://www.w3.org/2000/svg">
<path d="M50.3775 59.0317L102.484 59.2712V51.5742L50.3775 51.7736C49.6764 51.7736 48.9259 52.5129 48.9259 53.2252V57.0962C48.9259 57.8004 49.6764 59.0317 50.3775 59.0317Z" fill="white"/>
<path d="M52.195 59.9686H104.329C104.732 59.9686 105.055 59.6411 105.055 59.2317C105.055 58.8222 104.732 58.4947 104.329 58.4947H52.195C50.5429 58.4947 49.197 57.1273 49.197 55.4486C49.197 53.77 50.5429 52.4026 52.195 52.4026H104.329C104.732 52.4026 105.055 52.0751 105.055 51.6657C105.055 51.2562 104.732 50.9287 104.329 50.9287H52.195C49.745 50.9287 47.7464 52.9594 47.7464 55.4486C47.7464 57.9379 49.745 59.9686 52.195 59.9686Z" fill="#615EF7"/>
<path d="M91.5745 30.5605H52.8162V49.844H91.5745C93.2558 49.844 94.6143 48.4083 94.6143 46.6314V33.7811C94.6143 31.9963 93.2558 30.5605 91.5745 30.5605Z" fill="white"/>
<ellipse rx="9.13232" ry="9.28463" transform="matrix(-1 0 0 1 88.9927 40.2026)" fill="white"/>
<path d="M51.4291 50.984H87.8723C93.7312 50.984 98.4941 46.1447 98.4941 40.2C98.4941 34.2553 93.7312 29.416 87.8723 29.416H51.4291C51.0262 29.416 50.7038 29.7435 50.7038 30.153C50.7038 30.5624 51.0262 30.8899 51.4291 30.8899H87.8723C92.9253 30.8899 97.0435 35.066 97.0435 40.2C97.0435 45.3341 92.9334 49.5183 87.8723 49.5183H51.4291C51.0262 49.5183 50.7038 49.8458 50.7038 50.2553C50.7038 50.6565 51.0342 50.984 51.4291 50.984Z" fill="#68F2D2"/>
<path d="M87.7075 46.6206L85.6726 44.6676L83.6377 46.6206V34.3428H87.7075V46.6206Z" fill="#68F2D2"/>
<path d="M46.8294 28.2409H100.234V18.0635H46.8294C45.8111 18.0635 44.9837 18.8233 44.9837 19.7585V26.5385C44.9837 27.481 45.8111 28.2409 46.8294 28.2409Z" fill="white"/>
<path d="M49.9403 29.6537H101.817C102.22 29.6537 102.542 29.3261 102.542 28.9167C102.542 28.5073 102.22 28.1798 101.817 28.1798H49.9403C47.2163 28.1798 45.0001 25.928 45.0001 23.1603C45.0001 20.3927 47.2163 18.1409 49.9403 18.1409H101.817C102.22 18.1409 102.542 17.8134 102.542 17.4039C102.542 16.9945 102.22 16.667 101.817 16.667H49.9403C46.4185 16.667 43.5494 19.582 43.5494 23.1603C43.5494 26.7386 46.4185 29.6537 49.9403 29.6537Z" fill="#666666"/>
<path d="M95.4795 8.78027H50.7097V15.9223H95.4795C96.1692 15.9223 96.7227 15.3924 96.7227 14.732V9.97061C96.7227 9.31785 96.1612 8.78027 95.4795 8.78027Z" fill="white"/>
<path d="M48.9654 16.8139H93.379C95.8451 16.8139 97.8438 14.775 97.8438 12.2775C97.8438 9.77191 95.837 7.74121 93.379 7.74121H48.9654C48.5624 7.74121 48.24 8.06874 48.24 8.47816C48.24 8.88757 48.5624 9.21511 48.9654 9.21511H93.379C95.0392 9.21511 96.3931 10.5907 96.3931 12.2775C96.3931 13.9643 95.0392 15.34 93.379 15.34H48.9654C48.5624 15.34 48.24 15.6675 48.24 16.0769C48.24 16.4863 48.5705 16.8139 48.9654 16.8139Z" fill="#FE5D5D"/>
<path d="M15.4838 11.6133H28.0635V60.0004H15.4838V11.6133Z" fill="#A7A7A7"/>
<path d="M15.4848 23.7402H28.0645V38.8389H15.4848V23.7402Z" fill="#CCCCCC"/>
<path d="M15.4848 17.1748H28.0645V20.4554H15.4848V17.1748Z" fill="#CCCCCC"/>
<path d="M15.4848 51.0322H28.0645V54.3138H15.4848V51.0322Z" fill="#CCCCCC"/>
<path d="M2.81709 10.6455L15.4834 11.3637L12.6658 60.0003L-0.000472069 59.2832L2.81709 10.6455Z" fill="#615EF7"/>
<path d="M2.13349 22.4746L14.7988 23.1928L13.9237 38.31L1.25743 37.5918L2.13349 22.4746Z" fill="#7371FF"/>
<path d="M2.51436 15.9033L15.1807 16.6205L14.9903 19.9066L2.32403 19.1884L2.51436 15.9033Z" fill="#7371FF"/>
<path d="M0.549514 49.8008L13.2158 50.5189L13.0255 53.804L0.35919 53.0868L0.549514 49.8008Z" fill="#7371FF"/>
<path d="M28.0647 11.6133H35.8066V60.0004H28.0647V11.6133Z" fill="#ED635F"/>
<path d="M30.0001 18.3867H33.8711V53.2254H30.0001V18.3867Z" fill="#FF7975"/>
<path d="M35.8069 0H43.5488V60H35.8069V0Z" fill="#68F2D2"/>
<path d="M37.7423 6.77441H41.6133V53.226H37.7423V6.77441Z" fill="#AFFFEC"/>
</svg>
