<svg width="47" height="60" viewBox="0 0 47 60" fill="none" xmlns="http://www.w3.org/2000/svg">
<path d="M43.2461 60H0V0H43.2461C44.9243 0 46.2857 1.38794 46.2857 3.09943V56.9001C46.2857 58.6115 44.9243 60 43.2461 60Z" fill="#68F2D2"/>
<path d="M6.27584 0H4.70703V60H6.27584V0Z" fill="#58DEBF"/>
<path d="M17.999 23.1436C15.1524 23.1436 12.7475 24.9554 11.999 27.4293H23.999C23.2506 24.9554 20.8456 23.1436 17.999 23.1436Z" fill="white"/>
<path d="M33.8556 23.1436C31.2123 23.1436 28.9792 24.9554 28.2842 27.4293H39.427C38.732 24.9554 36.4989 23.1436 33.8556 23.1436Z" fill="white"/>
<path d="M26.1438 20.5723C22.2763 20.5723 19.0145 23.4739 18.001 27.4294H34.2867C33.2732 23.4739 30.0114 20.5723 26.1438 20.5723Z" fill="white"/>
</svg>
