<svg width="108" height="108" viewBox="0 0 108 108" fill="none" xmlns="http://www.w3.org/2000/svg">
<circle cx="54" cy="54" r="54" fill="white"/>
<path d="M42.2933 68.1113L41.3544 78.6476C41.2322 80.0264 40.7933 81.3583 40.0718 82.5396C39.3502 83.7209 38.3655 84.7196 37.1946 85.4578L36.6003 85.8321L32.6426 88.3161L33.9648 73.4745V73.3408L42.2933 68.1113Z" fill="#E3EEFF"/>
<path opacity="0.1" d="M42.2933 68.1113L41.3544 78.6476C41.2322 80.0264 40.7933 81.3583 40.0718 82.5396C39.3502 83.7209 38.3655 84.7196 37.1946 85.4578L36.6003 85.8321L32.6426 88.3161L33.9648 73.4745V73.3408L42.2933 68.1113Z" fill="#036292"/>
<path d="M40.6068 69.2969L39.665 79.839C39.459 82.1615 38.3545 84.3119 36.5867 85.8321L32.6289 88.3161L33.9512 73.4745L40.6068 69.2969Z" fill="#E3EEFF"/>
<path d="M86.5866 61.4883L84.4859 63.0363L81.1788 65.4787L77.5449 60.5582L82.9527 56.5707C83.1853 56.3972 83.4547 56.2793 83.7401 56.2261C84.1088 56.1511 84.4914 56.1832 84.8425 56.3185C85.1937 56.4538 85.4988 56.6867 85.7219 56.9897L86.9996 58.7249C87.3112 59.1462 87.4427 59.6739 87.3653 60.1921C87.2878 60.7103 87.0077 61.1765 86.5866 61.4883Z" fill="#E3EEFF"/>
<path opacity="0.1" d="M84.4859 63.0427L81.1788 65.4851L77.5449 60.5587L82.9527 56.5712C83.1853 56.3977 83.4547 56.2798 83.7401 56.2266L84.4859 63.0427Z" fill="#036292"/>
<path d="M66.3547 56.1076C59.595 61.0904 52.4787 64.5015 46.9462 67.4936L35.7176 72.7974C33.6377 73.8908 31.0022 74.0542 30.3247 73.1272C29.9682 72.6399 29.9474 71.7604 30.2148 70.7888C30.5309 69.6335 31.1351 68.5774 31.9708 67.7194L40.3529 58.5559C44.8455 54.1525 50.1997 48.3614 56.9594 43.3756C70.5472 33.3534 83.4366 26.8076 89.0494 26.7363C90.2766 26.7363 91.1531 27.0097 91.6196 27.6426C94.2165 31.1487 82.8929 43.8956 66.3547 56.1076Z" fill="#E3EEFF"/>
<path d="M80.9197 44.002L84.2981 74.8618C84.4483 76.2269 84.2372 77.6074 83.686 78.8651C83.1348 80.1229 82.2628 81.2138 81.1574 82.0286C80.8071 82.2865 80.3997 82.456 79.9698 82.5226C79.54 82.5892 79.1004 82.5511 78.6884 82.4113C78.2765 82.2716 77.9044 82.0344 77.6038 81.72C77.3032 81.4055 77.083 81.0231 76.962 80.6053L68.9395 52.8297L80.9197 44.002Z" fill="#E3EEFF"/>
<path opacity="0.1" d="M82.2723 81.0273C81.9354 81.3976 81.5621 81.733 81.1581 82.0286C80.8083 82.2873 80.401 82.4574 79.9711 82.5244C79.5413 82.5914 79.1016 82.5534 78.6896 82.4135C78.2776 82.2737 77.9056 82.0362 77.6054 81.7213C77.3052 81.4064 77.0857 81.0235 76.9656 80.6053L69.2402 53.8904L80.9055 44.002L80.9293 44.2159L84.2839 74.8618C84.4093 75.9736 84.2946 77.0993 83.9476 78.163C83.6006 79.2266 83.0293 80.2034 82.2723 81.0273Z" fill="#036292"/>
<g style="mix-blend-mode:multiply">
<path d="M82.2723 81.0273C81.9354 81.3976 81.5621 81.733 81.1581 82.0286C80.8083 82.2873 80.401 82.4574 79.9711 82.5244C79.5413 82.5914 79.1016 82.5534 78.6896 82.4135C78.2776 82.2737 77.9056 82.0362 77.6054 81.7213C77.3052 81.4064 77.0857 81.0235 76.9656 80.6053L69.2402 53.8904L71.5341 52.1255L80.9055 44.002L80.9293 44.2159L84.2839 74.8618C84.4093 75.9736 84.2946 77.0993 83.9476 78.163C83.6006 79.2266 83.0293 80.2034 82.2723 81.0273Z" fill="#FE5D5D"/>
</g>
<path d="M82.2717 81.0274C82.1566 81.0442 82.0404 81.0522 81.9241 81.0512C81.3363 81.0518 80.7643 80.8603 80.2955 80.5057C79.8267 80.1511 79.4866 79.653 79.3272 79.0872L71.3047 51.3115L80.9138 43.9902L84.2922 74.8501C84.4182 75.9644 84.303 77.0928 83.9544 78.1587C83.6058 79.2246 83.0319 80.203 82.2717 81.0274Z" fill="#E3EEFF"/>
<path d="M59.7448 23.447L57.6649 25.0248L54.3965 27.5088L58.0898 32.3817L63.4382 28.32C63.6692 28.1452 63.8581 27.9208 63.9908 27.6633C64.1666 27.3304 64.2438 26.9542 64.2132 26.5789C64.1827 26.2037 64.0458 25.8449 63.8185 25.5448L62.5141 23.8303C62.3577 23.6229 62.162 23.4484 61.938 23.3168C61.7141 23.1852 61.4664 23.0992 61.2091 23.0636C60.9518 23.0279 60.69 23.0435 60.4387 23.1093C60.1874 23.1751 59.9516 23.2899 59.7448 23.447Z" fill="#E3EEFF"/>
<path opacity="0.1" d="M57.6649 25.0244L54.3965 27.5084L58.0898 32.3813L63.4382 28.3196C63.6692 28.1449 63.8581 27.9204 63.9908 27.6629L57.6649 25.0244Z" fill="#036292"/>
<path opacity="0.1" d="M88.5382 35.7742C84.2298 41.3632 76.2281 48.833 66.3664 56.1067C59.6067 61.0896 52.4904 64.5006 46.9579 67.4927L35.7294 72.7965C33.6495 73.8899 31.0139 74.0534 30.3365 73.1263C29.9799 72.639 29.9591 71.7595 30.2265 70.7879C30.5426 69.6326 31.1468 68.5765 31.9826 67.7186L40.3646 58.5551C44.8572 54.1516 50.2114 48.3606 56.9711 43.3747C66.6546 36.2436 75.9874 30.8537 82.5807 28.3251C85.24 27.303 87.4507 26.7474 89.0671 26.7266C90.2942 26.7266 91.1708 26.9999 91.6373 27.6328C92.6713 29.0531 91.45 31.9798 88.5382 35.7742Z" fill="#036292"/>
<path d="M72.7908 32.9847L44.3021 20.6479C43.0413 20.103 41.6596 19.8985 40.295 20.055C38.9305 20.2114 37.6309 20.7232 36.5262 21.5393C36.1761 21.7975 35.8936 22.1366 35.7028 22.5276C35.5121 22.9186 35.4187 23.3499 35.4307 23.7847C35.4427 24.2196 35.5596 24.6451 35.7716 25.025C35.9835 25.4049 36.2842 25.728 36.648 25.9665L60.8224 41.8214L72.7908 32.9847Z" fill="#E3EEFF"/>
<path opacity="0.1" d="M72.7907 32.9846L63.1726 40.0801L60.8223 41.8123L36.6479 25.9634C36.2841 25.7245 35.9834 25.4012 35.7715 25.0211C35.5596 24.6409 35.4427 24.2152 35.4307 23.7801C35.4187 23.3451 35.5121 22.9136 35.7028 22.5223C35.8935 22.1311 36.1759 21.7918 36.526 21.5332C37.6314 20.7185 38.9309 20.2075 40.2952 20.0512C41.6594 19.8948 43.0409 20.0984 44.3019 20.6418L72.7907 32.9846Z" fill="#036292"/>
<g style="mix-blend-mode:multiply">
<path d="M72.7907 32.9846L63.1726 40.0801L60.8223 41.8123L36.6479 25.9634C36.2841 25.7245 35.9834 25.4012 35.7715 25.0211C35.5596 24.6409 35.4427 24.2152 35.4307 23.7801C35.4187 23.3451 35.5121 22.9136 35.7028 22.5223C35.8935 22.1311 36.1759 21.7918 36.526 21.5332C37.6314 20.7185 38.9309 20.2075 40.2952 20.0512C41.6594 19.8948 43.0409 20.0984 44.3019 20.6418L72.7907 32.9846Z" fill="#FE5D5D"/>
</g>
<path d="M72.7902 32.9848L63.1721 40.0803L39.372 24.4721C39.0397 24.2543 38.7596 23.9657 38.5519 23.6269C38.3441 23.2882 38.2139 22.9077 38.1705 22.5127C38.127 22.1177 38.1714 21.718 38.3006 21.3422C38.4297 20.9664 38.6404 20.6239 38.9174 20.339C40.6923 19.8011 42.6006 19.9117 44.3014 20.651L72.7902 32.9848Z" fill="#E3EEFF"/>
<path d="M38.1578 62.885L27.8117 60.6654C26.4588 60.3784 25.0579 60.4074 23.7181 60.7501C22.3782 61.0928 21.1354 61.74 20.0864 62.6414L16.0098 66.1475L30.7147 69.2911L38.1578 62.885Z" fill="#E3EEFF"/>
<path opacity="0.1" d="M38.1569 62.8846L30.702 69.2967L30.2176 69.1927L16 66.156L20.0707 62.6499L20.3678 62.3914C21.4042 61.5778 22.6069 61.0023 23.8907 60.7055C25.1744 60.4087 26.5077 60.3979 27.796 60.674L38.1569 62.8846Z" fill="#036292"/>
<path d="M36.1759 64.0637L30.2333 69.1921L16.0156 66.1555L20.0863 62.6493L20.3834 62.3908C22.1035 61.6476 24.0126 61.4596 25.8447 61.853L36.1759 64.0637Z" fill="#E3EEFF"/>
<path d="M89.0554 26.7266C88.8355 27.9151 88.0927 29.4304 86.9012 31.1835C83.0385 36.9003 74.3921 45.1813 63.4845 53.2335C56.7248 58.2164 49.6115 61.6244 44.0789 64.6195L32.8474 69.9233C32.0223 70.3504 31.1331 70.6404 30.2148 70.782C30.5309 69.6267 31.1352 68.5706 31.9709 67.7126L40.3529 58.5491C44.8455 54.1457 50.1998 48.3546 56.9595 43.3688C66.6429 36.2377 75.9758 30.8478 82.5691 28.3192C85.2284 27.303 87.439 26.7474 89.0554 26.7266Z" fill="#E3EEFF"/>
<g style="mix-blend-mode:multiply">
<path d="M88.5375 35.7742C88.5055 34.1104 87.9353 32.5019 86.9122 31.1894C85.9674 30.0009 84.559 29.0293 82.5801 28.3251C85.2394 27.303 87.4501 26.7474 89.0664 26.7266C90.2936 26.7266 91.1701 26.9999 91.6366 27.6328C92.6706 29.0531 91.4494 31.9798 88.5375 35.7742Z" fill="#FE5D5D"/>
</g>
</svg>
