<svg width="108" height="108" viewBox="0 0 108 108" fill="none" xmlns="http://www.w3.org/2000/svg">
<circle cx="54" cy="54" r="54" fill="white"/>
<path opacity="0.58" d="M76.0042 63.2246C76.0042 63.2246 75.3816 66.0662 76.4277 68.7088" stroke="white" stroke-miterlimit="10"/>
<path d="M22.2762 74.1826C22.2762 74.1826 20.7601 73.0391 20.6351 72.4399C20.5102 71.8406 21.5668 71.7792 22.2762 74.1826Z" fill="#58DEBF"/>
<path d="M63.7466 36.8889L55.4414 61.5449L56.8897 62.0328L65.1949 37.3767L63.7466 36.8889Z" fill="#68F2D2"/>
<path d="M54.5887 61.3256C53.3775 55.1299 50.142 50.1941 44.9775 46.658C41.1216 44.0196 37.6088 43.2065 37.5664 43.198L37.9031 41.7158C38.0577 41.7497 41.7378 42.603 45.8309 45.4066C49.619 47.9983 54.4701 52.8177 56.0773 61.0377L54.5887 61.3256Z" fill="#68F2D2"/>
<path d="M71.248 49.1934L75.7138 61.8621" stroke="#68F2D2" stroke-miterlimit="10"/>
<path d="M75.709 61.9033L80.1747 74.5721" stroke="#68F2D2" stroke-miterlimit="10"/>
<path d="M73.9316 48.5488L75.7188 61.8634" stroke="#68F2D2" stroke-miterlimit="10"/>
<path d="M75.7051 61.9014L77.4922 75.216" stroke="#68F2D2" stroke-miterlimit="10"/>
<path d="M85.098 52.2461L75.7324 61.8763" stroke="#68F2D2" stroke-miterlimit="10"/>
<path d="M75.6937 61.8887L66.3281 71.5189" stroke="#68F2D2" stroke-miterlimit="10"/>
<path d="M86.8659 54.3613L75.7344 61.8804" stroke="#68F2D2" stroke-miterlimit="10"/>
<path d="M75.6921 61.8848L64.5605 69.4039" stroke="#68F2D2" stroke-miterlimit="10"/>
<path d="M88.8884 64.5953L75.7305 61.8955" stroke="#68F2D2" stroke-miterlimit="10"/>
<path d="M75.695 61.8697L62.5371 59.1699" stroke="#68F2D2" stroke-miterlimit="10"/>
<path d="M88.0567 67.225L75.7246 61.8975" stroke="#68F2D2" stroke-miterlimit="10"/>
<path d="M75.7013 61.8676L63.3691 56.54" stroke="#68F2D2" stroke-miterlimit="10"/>
<path d="M91.4387 62.2549C91.2899 62.2549 91.1472 62.1958 91.042 62.0906C90.9367 61.9854 90.8776 61.8426 90.8776 61.6938C90.8306 57.731 89.2234 53.9465 86.4045 51.1608C83.5857 48.3752 79.7823 46.813 75.8193 46.813C71.8562 46.813 68.0529 48.3752 65.234 51.1608C62.4151 53.9465 60.8079 57.731 60.7609 61.6938C60.7609 61.8426 60.7018 61.9854 60.5966 62.0906C60.4913 62.1958 60.3486 62.2549 60.1998 62.2549C60.051 62.2549 59.9082 62.1958 59.803 62.0906C59.6978 61.9854 59.6387 61.8426 59.6387 61.6938C59.6874 57.4345 61.4136 53.3662 64.4427 50.3715C67.4719 47.3768 71.5597 45.6973 75.8193 45.6973C80.0788 45.6973 84.1666 47.3768 87.1958 50.3715C90.2249 53.3662 91.9511 57.4345 91.9999 61.6938C92.0001 61.7676 91.9858 61.8407 91.9577 61.9089C91.9296 61.9771 91.8883 62.0391 91.8361 62.0912C91.784 62.1434 91.722 62.1847 91.6538 62.2128C91.5856 62.2409 91.5125 62.2552 91.4387 62.2549Z" fill="#615EF7"/>
<path d="M75.8208 77.3486C72.7636 77.3486 69.775 76.442 67.2331 74.7435C64.6911 73.045 62.7099 70.6309 61.5399 67.8064C60.37 64.9819 60.0639 61.8739 60.6603 58.8755C61.2567 55.877 62.7289 53.1228 64.8907 50.961C67.0525 48.7992 69.8067 47.327 72.8052 46.7306C75.8036 46.1342 78.9116 46.4403 81.7361 47.6102C84.5606 48.7802 86.9747 50.7614 88.6732 53.3034C90.3717 55.8453 91.2782 58.8339 91.2782 61.8911C91.271 65.9884 89.6401 69.9159 86.7428 72.8131C83.8455 75.7104 79.9181 77.3413 75.8208 77.3486ZM75.8208 48.4473C73.1639 48.449 70.5671 49.2384 68.3588 50.7157C66.1505 52.193 64.4298 54.2919 63.4142 56.747C62.3986 59.2021 62.1338 61.9033 62.6531 64.5089C63.1725 67.1145 64.4527 69.5077 66.332 71.3858C68.2113 73.2639 70.6053 74.5427 73.2113 75.0604C75.8172 75.5781 78.5182 75.3115 80.9727 74.2944C83.4271 73.2773 85.5249 71.5552 87.0009 69.346C88.4768 67.1367 89.2645 64.5395 89.2645 61.8826C89.2606 58.3191 87.8427 54.9028 85.3221 52.3838C82.8015 49.8648 79.3843 48.449 75.8208 48.4473Z" fill="#333333"/>
<path d="M26.9902 49.2139L31.4538 61.8826" stroke="#68F2D2" stroke-miterlimit="10"/>
<path d="M31.4492 61.9229L35.915 74.5937" stroke="#68F2D2" stroke-miterlimit="10"/>
<path d="M29.6699 48.5703L31.4571 61.8828" stroke="#68F2D2" stroke-miterlimit="10"/>
<path d="M31.4434 61.9229L33.2326 75.2375" stroke="#68F2D2" stroke-miterlimit="10"/>
<path d="M40.8362 52.2656L31.4707 61.8958" stroke="#68F2D2" stroke-miterlimit="10"/>
<path d="M31.4319 61.9102L22.0664 71.5404" stroke="#68F2D2" stroke-miterlimit="10"/>
<path d="M42.6042 54.3828L31.4727 61.8998" stroke="#68F2D2" stroke-miterlimit="10"/>
<path d="M31.4324 61.9062L20.2988 69.4254" stroke="#68F2D2" stroke-miterlimit="10"/>
<path d="M44.6288 64.6168L31.4688 61.917" stroke="#68F2D2" stroke-miterlimit="10"/>
<path d="M31.4353 61.8913L18.2773 59.1895" stroke="#68F2D2" stroke-miterlimit="10"/>
<path d="M43.7989 67.2455L31.4668 61.918" stroke="#68F2D2" stroke-miterlimit="10"/>
<path d="M31.4395 61.8869L19.1074 56.5615" stroke="#68F2D2" stroke-miterlimit="10"/>
<path d="M31.4575 77.3486C28.4003 77.3486 25.4117 76.442 22.8698 74.7435C20.3278 73.045 18.3466 70.6309 17.1766 67.8064C16.0067 64.9819 15.7006 61.8739 16.297 58.8755C16.8934 55.877 18.3656 53.1228 20.5274 50.961C22.6892 48.7992 25.4434 47.327 28.4419 46.7306C31.4403 46.1342 34.5483 46.4403 37.3728 47.6102C40.1973 48.7802 42.6114 50.7614 44.3099 53.3034C46.0084 55.8453 46.915 58.8339 46.915 61.8911C46.9077 65.9884 45.2768 69.9159 42.3795 72.8131C39.4823 75.7104 35.5548 77.3413 31.4575 77.3486ZM31.4575 48.4473C28.8001 48.4469 26.2024 49.2345 23.9927 50.7105C21.783 52.1866 20.0606 54.2847 19.0434 56.7397C18.0262 59.1946 17.7598 61.8961 18.278 64.5024C18.7961 67.1088 20.0756 69.5029 21.9544 71.3821C23.8333 73.2612 26.2272 74.541 28.8335 75.0596C31.4397 75.5782 34.1413 75.3123 36.5964 74.2954C39.0515 73.2786 41.1499 71.5566 42.6263 69.3471C44.1026 67.1376 44.8907 64.5399 44.8907 61.8826C44.8867 58.3209 43.4703 54.9062 40.952 52.3875C38.4337 49.8688 35.0192 48.4518 31.4575 48.4473Z" fill="#333333"/>
<path d="M47.2599 62.4477C47.1111 62.4477 46.9683 62.3886 46.8631 62.2833C46.7579 62.1781 46.6987 62.0354 46.6987 61.8865C46.6943 57.8445 45.0866 53.9693 42.2284 51.1111C39.3703 48.253 35.4951 46.6453 31.453 46.6408H23.8619C23.7131 46.6408 23.5704 46.5817 23.4651 46.4765C23.3599 46.3712 23.3008 46.2285 23.3008 46.0797C23.3008 45.9309 23.3599 45.7881 23.4651 45.6829C23.5704 45.5777 23.7131 45.5186 23.8619 45.5186H31.4573C35.7968 45.5236 39.9571 47.2497 43.0256 50.3182C46.0941 53.3867 47.8202 57.547 47.8252 61.8865C47.8252 61.9606 47.8106 62.0339 47.7821 62.1023C47.7537 62.1706 47.712 62.2327 47.6594 62.2848C47.6068 62.337 47.5445 62.3782 47.4759 62.4062C47.4073 62.4341 47.3339 62.4482 47.2599 62.4477Z" fill="#615EF7"/>
<path d="M54.782 59.4365L54.7363 60.959L75.2313 61.5738L75.2769 60.0514L54.782 59.4365Z" fill="#68F2D2"/>
<path d="M40.6573 31.0132L30.7324 61.668L32.1829 62.1376L42.1077 31.4828L40.6573 31.0132Z" fill="#68F2D2"/>
<path d="M32.9477 62.216C33.1441 61.3864 32.6308 60.5547 31.8013 60.3582C30.9717 60.1618 30.1399 60.6751 29.9435 61.5047C29.7471 62.3343 30.2604 63.1661 31.09 63.3625C31.9196 63.5589 32.7513 63.0456 32.9477 62.216Z" fill="#333333"/>
<path d="M75.1094 62.1573C71.0862 51.769 63.6497 45.2473 53.0412 42.7698C45.0986 40.9171 38.2867 42.1473 38.219 42.16L37.9395 40.6608C38.2295 40.6079 45.1388 39.3607 53.3969 41.2961C58.2671 42.431 62.5656 44.4405 66.197 47.2716C70.7368 50.8077 74.2158 55.6334 76.5387 61.6131L75.1094 62.1573Z" fill="#68F2D2"/>
<path d="M55.082 65.1032V57.2559L76.0724 60.4003V63.3436L55.082 65.1032ZM55.5902 57.8445V64.5526L75.5664 62.8756V60.8386L55.5902 57.8445Z" fill="#333333"/>
<path d="M56.8537 64.8063C58.8539 63.9667 59.7948 61.6646 58.9552 59.6643C58.1156 57.6641 55.8135 56.7232 53.8132 57.5628C51.8129 58.4024 50.872 60.7045 51.7116 62.7048C52.5512 64.705 54.8534 65.6459 56.8537 64.8063Z" fill="#333333"/>
<path d="M55.337 62.6555C56.151 62.6555 56.8108 61.9957 56.8108 61.1818C56.8108 60.3678 56.151 59.708 55.337 59.708C54.5231 59.708 53.8633 60.3678 53.8633 61.1818C53.8633 61.9957 54.5231 62.6555 55.337 62.6555Z" fill="#68F2D2"/>
<path d="M77.311 62.216C77.5074 61.3864 76.9941 60.5547 76.1645 60.3583C75.3349 60.1618 74.5032 60.6751 74.3068 61.5047C74.1104 62.3343 74.6237 63.1661 75.4533 63.3625C76.2829 63.5589 77.1146 63.0456 77.311 62.216Z" fill="#333333"/>
<path d="M43.0952 30.0811H37.0625V31.6056H43.0952V30.0811Z" fill="#68F2D2"/>
<path d="M36.8126 30H33.6618C33.4279 30 33.2383 30.1896 33.2383 30.4235V31.2599C33.2383 31.4938 33.4279 31.6834 33.6618 31.6834H36.8126C37.0464 31.6834 37.2361 31.4938 37.2361 31.2599V30.4235C37.2361 30.1896 37.0464 30 36.8126 30Z" fill="#58DEBF"/>
<path d="M37.238 30.302V31.3777C37.238 31.4176 37.2301 31.4571 37.2148 31.494C37.1994 31.5309 37.1769 31.5644 37.1486 31.5925C37.1202 31.6207 37.0866 31.6429 37.0496 31.658C37.0126 31.6731 36.973 31.6807 36.9331 31.6804H33.5452C33.5052 31.6807 33.4656 31.6731 33.4286 31.658C33.3917 31.6429 33.358 31.6207 33.3297 31.5925C33.3013 31.5644 33.2788 31.5309 33.2635 31.494C33.2481 31.4571 33.2402 31.4176 33.2402 31.3777V30.302C33.2398 30.2371 33.2602 30.1737 33.2982 30.1212C33.3363 30.0686 33.3902 30.0296 33.452 30.0098C33.3271 30.2681 33.3652 30.5709 33.5663 30.988C33.8226 31.528 36.6218 30.3147 36.6218 30.3147L37.1872 30.1453C37.2181 30.1919 37.2357 30.2461 37.238 30.302Z" fill="#58DEBF"/>
<path d="M45.4792 30H43.2516C43.0177 30 42.8281 30.1896 42.8281 30.4235V31.2599C42.8281 31.4938 43.0177 31.6834 43.2516 31.6834H45.4792C45.7131 31.6834 45.9027 31.4938 45.9027 31.2599V30.4235C45.9027 30.1896 45.7131 30 45.4792 30Z" fill="#58DEBF"/>
<path d="M63.3951 37.4237H68.8052C70.5225 37.4237 72.3139 35.0479 67.0753 35.0479C62.4783 35.0479 59.7213 37.0171 59.8251 36.9811C59.9288 36.9451 63.3951 37.4237 63.3951 37.4237Z" fill="#333333"/>
<path d="M49.2909 67.953C49.2273 67.9527 49.166 67.9285 49.1194 67.8852C49.0948 67.8628 49.0748 67.8357 49.0608 67.8055C49.0467 67.7753 49.0387 67.7427 49.0373 67.7094C49.0359 67.6761 49.0412 67.6429 49.0527 67.6116C49.0643 67.5804 49.0819 67.5517 49.1046 67.5274L55.1499 61.0014C55.1723 60.9757 55.1995 60.9548 55.2301 60.9398C55.2607 60.9249 55.294 60.9163 55.3279 60.9144C55.3619 60.9126 55.3959 60.9176 55.4279 60.9292C55.4599 60.9407 55.4893 60.9586 55.5142 60.9817C55.5392 61.0049 55.5593 61.0328 55.5733 61.0638C55.5872 61.0948 55.5948 61.1283 55.5956 61.1623C55.5964 61.1964 55.5903 61.2302 55.5778 61.2618C55.5652 61.2935 55.5465 61.3223 55.5226 61.3465L49.4772 67.8725C49.4534 67.8981 49.4246 67.9185 49.3925 67.9323C49.3604 67.9462 49.3258 67.9532 49.2909 67.953Z" fill="#666666"/>
<path d="M51.1356 67.7061H46.9219V68.4895H51.1356V67.7061Z" fill="#68F2D2"/>
</svg>
