<svg width="108" height="108" viewBox="0 0 108 108" fill="none" xmlns="http://www.w3.org/2000/svg">
<circle cx="54" cy="54" r="54" fill="white"/>
<path d="M44.9098 75.9346C44.6415 75.9346 44.3843 75.8278 44.1946 75.6378C44.005 75.4477 43.8984 75.1899 43.8984 74.921V21.6054C43.8984 21.3366 44.005 21.0788 44.1946 20.8887C44.3843 20.6986 44.6415 20.5918 44.9098 20.5918V20.5918C45.178 20.5918 45.4352 20.6986 45.6249 20.8887C45.8145 21.0788 45.9211 21.3366 45.9211 21.6054V74.921C45.9211 75.1899 45.8145 75.4477 45.6249 75.6378C45.4352 75.8278 45.178 75.9346 44.9098 75.9346V75.9346Z" fill="#666666"/>
<path d="M46.371 22.1885C46.371 22.1885 50.1776 36.1073 60.0056 46.4724C68.0556 54.9664 73.9314 59.2256 84.0223 61.5853C44.8986 61.5893 46.1688 61.4738 46.1688 61.4738L46.371 22.1885Z" fill="#E3EEFF"/>
<path d="M41.5449 74.2459L45.9805 68.6041C46.371 68.1076 46.8687 67.7062 47.4363 67.4302C48.0038 67.1542 48.6264 67.0108 49.2572 67.0107H74.8192C75.4252 67.0106 76.0241 67.143 76.5739 67.3985C77.1237 67.6541 77.6114 68.0268 78.0028 68.4906L84.2972 75.9426H43.3511L41.5449 74.2459Z" fill="#CCCCCC"/>
<path d="M41.5449 74.2373L42.3782 75.2225L43.3511 75.9341H84.2972L81.3967 72.5H42.9102L41.5449 74.2373Z" fill="#A2C5FB"/>
<path d="M81.3988 72.8466H42.9123C42.8205 72.8466 42.7326 72.8101 42.6677 72.7451C42.6028 72.6801 42.5664 72.5919 42.5664 72.5C42.5664 72.408 42.6028 72.3199 42.6677 72.2549C42.7326 72.1898 42.8205 72.1533 42.9123 72.1533H81.3988C81.4906 72.1533 81.5785 72.1898 81.6434 72.2549C81.7083 72.3199 81.7447 72.408 81.7447 72.5C81.7447 72.5919 81.7083 72.6801 81.6434 72.7451C81.5785 72.8101 81.4906 72.8466 81.3988 72.8466V72.8466Z" fill="#EB4844"/>
<path d="M53.0941 74.4977C54.763 74.4977 56.1159 73.1418 56.1159 71.4691C56.1159 69.7964 54.763 68.4404 53.0941 68.4404C51.4252 68.4404 50.0723 69.7964 50.0723 71.4691C50.0723 73.1418 51.4252 74.4977 53.0941 74.4977Z" fill="#333333"/>
<path d="M53.093 73.7814C54.3675 73.7814 55.4008 72.7458 55.4008 71.4683C55.4008 70.1909 54.3675 69.1553 53.093 69.1553C51.8184 69.1553 50.7852 70.1909 50.7852 71.4683C50.7852 72.7458 51.8184 73.7814 53.093 73.7814Z" fill="#E3EEFF"/>
<path d="M62.9222 74.4977C64.5911 74.4977 65.944 73.1418 65.944 71.4691C65.944 69.7964 64.5911 68.4404 62.9222 68.4404C61.2533 68.4404 59.9004 69.7964 59.9004 71.4691C59.9004 73.1418 61.2533 74.4977 62.9222 74.4977Z" fill="#333333"/>
<path d="M62.9211 73.7814C64.1957 73.7814 65.2289 72.7458 65.2289 71.4683C65.2289 70.1909 64.1957 69.1553 62.9211 69.1553C61.6465 69.1553 60.6133 70.1909 60.6133 71.4683C60.6133 72.7458 61.6465 73.7814 62.9211 73.7814Z" fill="#E3EEFF"/>
<path d="M72.8538 74.4977C74.5227 74.4977 75.8756 73.1418 75.8756 71.4691C75.8756 69.7964 74.5227 68.4404 72.8538 68.4404C71.1849 68.4404 69.832 69.7964 69.832 71.4691C69.832 73.1418 71.1849 74.4977 72.8538 74.4977Z" fill="#333333"/>
<path d="M72.8547 73.7814C74.1293 73.7814 75.1625 72.7458 75.1625 71.4683C75.1625 70.1909 74.1293 69.1553 72.8547 69.1553C71.5801 69.1553 70.5469 70.1909 70.5469 71.4683C70.5469 72.7458 71.5801 73.7814 72.8547 73.7814Z" fill="#E3EEFF"/>
<path d="M89.8982 75.739C89.8796 75.7392 89.8613 75.7349 89.8447 75.7264C89.8282 75.7179 89.8139 75.7056 89.8031 75.6904L81.3081 63.6447C81.2989 63.6324 81.2922 63.6184 81.2885 63.6035C81.2848 63.5886 81.2842 63.5731 81.2866 63.558C81.2891 63.5428 81.2946 63.5283 81.3028 63.5153C81.311 63.5024 81.3218 63.4912 81.3344 63.4825C81.3597 63.4651 81.3908 63.4583 81.4211 63.4636C81.4514 63.4689 81.4783 63.4859 81.4962 63.5109L89.4532 74.7903L85.1046 63.5676C85.0963 63.5398 85.0987 63.5098 85.1115 63.4837C85.1242 63.4576 85.1464 63.4372 85.1734 63.4267C85.2005 63.4162 85.2305 63.4164 85.2575 63.4271C85.2845 63.4378 85.3064 63.4583 85.319 63.4845L90.0074 75.5809C90.0177 75.6072 90.0181 75.6364 90.0084 75.6629C89.9987 75.6894 89.9796 75.7114 89.9548 75.7248C89.9376 75.7346 89.918 75.7395 89.8982 75.739V75.739Z" fill="#CCCCCC"/>
<path d="M46.1327 57.2227H43.6044C43.276 57.2227 43.0098 57.4895 43.0098 57.8187V58.2423C43.0098 58.5715 43.276 58.8383 43.6044 58.8383H46.1327C46.4611 58.8383 46.7274 58.5715 46.7274 58.2423V57.8187C46.7274 57.4895 46.4611 57.2227 46.1327 57.2227Z" fill="#666666"/>
<path d="M46.1327 38.3193H43.6044C43.276 38.3193 43.0098 38.5862 43.0098 38.9153V39.339C43.0098 39.6682 43.276 39.935 43.6044 39.935H46.1327C46.4611 39.935 46.7274 39.6682 46.7274 39.339V38.9153C46.7274 38.5862 46.4611 38.3193 46.1327 38.3193Z" fill="#666666"/>
<path d="M84.9491 62.1383H84.8985C80.6137 61.1827 76.4926 59.6001 72.6677 57.4413C67.0671 54.2809 63.6387 50.7373 61.7981 48.8358C53.2667 40.0296 48.5984 29.1597 46.1713 21.5921C46.162 21.5632 46.1585 21.5328 46.1609 21.5025C46.1633 21.4723 46.1717 21.4428 46.1855 21.4158C46.1993 21.3888 46.2183 21.3648 46.2414 21.3451C46.2644 21.3254 46.2911 21.3105 46.32 21.3012C46.3488 21.2919 46.3791 21.2883 46.4093 21.2908C46.4395 21.2932 46.4689 21.3016 46.4959 21.3155C46.5228 21.3293 46.5468 21.3483 46.5664 21.3714C46.586 21.3945 46.6009 21.4213 46.6102 21.4502C49.0191 28.9712 53.6631 39.7721 62.1217 48.5135C63.9421 50.3988 67.3441 53.9099 72.8861 57.0379C76.677 59.1717 80.7606 60.7346 85.0057 61.6761C85.0605 61.689 85.1087 61.7214 85.1413 61.7674C85.1739 61.8133 85.1886 61.8696 85.1826 61.9257C85.1766 61.9818 85.1504 62.0337 85.1089 62.0718C85.0674 62.1098 85.0134 62.1313 84.9572 62.1323L84.9491 62.1383Z" fill="#CCCCCC"/>
<path d="M44.5547 61.9083H84.9465C85.137 61.9083 85.3196 61.9841 85.4543 62.1191C85.5889 62.254 85.6646 62.4371 85.6646 62.6279V62.857C85.6646 63.0479 85.5889 63.2309 85.4543 63.3659C85.3196 63.5009 85.137 63.5767 84.9465 63.5767H44.5547V61.9062V61.9083Z" fill="#666666"/>
<path d="M44.9101 22.1868C45.7881 22.1868 46.4999 21.4734 46.4999 20.5934C46.4999 19.7134 45.7881 19 44.9101 19C44.0321 19 43.3203 19.7134 43.3203 20.5934C43.3203 21.4734 44.0321 22.1868 44.9101 22.1868Z" fill="#666666"/>
<path d="M43.3518 80.7548V75.9341C42.1178 74.9844 41.063 73.8214 40.237 72.5H16.3457C16.3457 72.5 16.3781 77.5437 19.408 81.7785C22.1365 85.5978 27.7634 88.6386 29.8306 88.6386H81.9961C82.9071 88.6388 83.8074 88.4419 84.6354 88.0612C85.4635 87.6806 86.1997 87.1252 86.7938 86.433L91.6785 80.7568L43.3518 80.7548Z" fill="#CCCCCC"/>
<path d="M90.7217 75.9341H43.3518L40.237 72.5H16.3457C16.3457 72.5 16.376 76.7734 18.7425 80.7548H91.6785V76.893C91.6785 76.6387 91.5777 76.3948 91.3982 76.2149C91.2188 76.0351 90.9755 75.9341 90.7217 75.9341V75.9341Z" fill="#FE5D5D"/>
<path d="M26.3311 74.6689H20.1661C19.8187 74.6689 19.5371 74.9512 19.5371 75.2994V75.3704C19.5371 75.7186 19.8187 76.0008 20.1661 76.0008H26.3311C26.6785 76.0008 26.9601 75.7186 26.9601 75.3704V75.2994C26.9601 74.9512 26.6785 74.6689 26.3311 74.6689Z" fill="#E3EEFF"/>
<path d="M36.8878 74.6689H30.7228C30.3754 74.6689 30.0938 74.9512 30.0938 75.2994V75.3704C30.0938 75.7186 30.3754 76.0008 30.7228 76.0008H36.8878C37.2352 76.0008 37.5168 75.7186 37.5168 75.3704V75.2994C37.5168 74.9512 37.2352 74.6689 36.8878 74.6689Z" fill="#E3EEFF"/>
<path d="M91.6792 81.1035H18.7433C18.6558 81.0968 18.5742 81.0573 18.5146 80.9928C18.455 80.9284 18.4219 80.8437 18.4219 80.7559C18.4219 80.668 18.455 80.5834 18.5146 80.5189C18.5742 80.4544 18.6558 80.4149 18.7433 80.4082H91.6792C91.7666 80.4149 91.8483 80.4544 91.9079 80.5189C91.9675 80.5834 92.0006 80.668 92.0006 80.7559C92.0006 80.8437 91.9675 80.9284 91.9079 80.9928C91.8483 81.0573 91.7666 81.0968 91.6792 81.1035Z" fill="#333333"/>
<path d="M85.324 79.9462C85.7284 79.9462 86.0562 79.6177 86.0562 79.2124C86.0562 78.8071 85.7284 78.4785 85.324 78.4785C84.9196 78.4785 84.5918 78.8071 84.5918 79.2124C84.5918 79.6177 84.9196 79.9462 85.324 79.9462Z" fill="#333333"/>
<path d="M88.4995 79.2124C88.4995 79.3575 88.4566 79.4994 88.3761 79.6201C88.2957 79.7408 88.1813 79.8348 88.0475 79.8904C87.9138 79.9459 87.7665 79.9604 87.6245 79.9321C87.4825 79.9038 87.352 79.8339 87.2496 79.7313C87.1472 79.6287 87.0775 79.4979 87.0492 79.3555C87.021 79.2132 87.0355 79.0656 87.0909 78.9315C87.1463 78.7974 87.2402 78.6828 87.3606 78.6022C87.481 78.5216 87.6225 78.4785 87.7674 78.4785C87.9615 78.4785 88.1478 78.5558 88.2851 78.6935C88.4224 78.8311 88.4995 79.0177 88.4995 79.2124Z" fill="#333333"/>
<path d="M90.1853 79.9462C90.5897 79.9462 90.9175 79.6177 90.9175 79.2124C90.9175 78.8071 90.5897 78.4785 90.1853 78.4785C89.7809 78.4785 89.4531 78.8071 89.4531 79.2124C89.4531 79.6177 89.7809 79.9462 90.1853 79.9462Z" fill="#333333"/>
<path d="M90.7219 76.2726H43.352C43.3037 76.2726 43.2558 76.2625 43.2116 76.243C43.1674 76.2234 43.1277 76.1949 43.0951 76.1591L40.0834 72.8466H16.3459C16.2541 72.8466 16.1662 72.8101 16.1013 72.7451C16.0364 72.6801 16 72.5919 16 72.5C16 72.408 16.0364 72.3199 16.1013 72.2549C16.1662 72.1898 16.2541 72.1533 16.3459 72.1533H40.2371C40.2852 72.1531 40.3328 72.1631 40.3767 72.1827C40.4207 72.2022 40.4599 72.2309 40.492 72.2668L43.5057 75.5874H90.7219C90.8136 75.5874 90.9016 75.6239 90.9665 75.689C91.0314 75.754 91.0678 75.8421 91.0678 75.9341C91.0678 76.026 91.0314 76.1142 90.9665 76.1792C90.9016 76.2442 90.8136 76.2807 90.7219 76.2807V76.2726Z" fill="#EB4844"/>
</svg>
