<svg width="108" height="108" viewBox="0 0 108 108" fill="none" xmlns="http://www.w3.org/2000/svg">
<circle cx="54" cy="54" r="54" fill="white"/>
<path d="M91.9561 57.6055C91.8365 55.2269 91.0714 52.3127 90.7117 51.1559C90.3519 49.9992 89.8976 48.489 89.0352 47.6375C88.6418 47.2521 88.1857 46.9364 87.6864 46.7039C86.8814 44.4948 85.5688 42.5057 83.8541 40.8969C82.8857 40.0122 81.8085 39.2546 80.6484 38.6423C77.4883 36.983 74.8844 37.1446 65.912 37C61.4726 37 56.6084 37.0571 52.8787 37.5302C51.9538 37.6414 51.041 37.8368 50.1516 38.1139C49.4347 38.344 48.7337 38.6207 48.0529 38.9422C46.8911 39.4753 45.7654 40.0838 44.683 40.7639C42.8467 41.918 38.9698 44.6322 34.0359 48.4167C34.0359 48.4167 27.6666 49.2584 25.4456 49.9581C23.7959 50.4776 19.8824 51.9217 18.1122 54.5825C17.6916 55.2314 17.3449 55.9254 17.0785 56.6514C16.9222 57.0977 16.6839 57.901 16.5607 59.9065C16.4811 61.221 16.4811 62.539 16.5607 63.8534C16.5607 63.8579 16.5607 63.8615 16.5554 63.8624C16.4991 63.8775 16.0421 64.0123 16.0135 64.4693C15.9831 64.9557 16.0135 66.1732 16.0135 66.1732C16.0135 66.1732 16.0662 66.4168 16.1581 66.4472C16.2501 66.4775 18.6755 66.8426 19.1932 66.8497C19.5753 66.8551 21.9784 66.9899 23.2103 67.0595C22.6806 65.9204 22.4469 64.6661 22.531 63.4127C22.6151 62.1593 23.0143 60.9474 23.6915 59.8894C24.3688 58.8313 25.3021 57.9612 26.4052 57.3598C27.5082 56.7584 28.7452 56.4451 30.0016 56.4489C31.258 56.4527 32.4931 56.7735 33.5924 57.3816C34.6918 57.9897 35.6199 58.8655 36.2906 59.9276C36.9614 60.9898 37.3532 62.2041 37.4297 63.458C37.5062 64.7118 37.265 65.9647 36.7283 67.1005H73.3052C73.3052 67.1005 73.7676 67.08 74.5264 67.0398C74.0277 65.9613 73.7937 64.7793 73.8439 63.5922C73.8941 62.405 74.227 61.247 74.815 60.2144C75.403 59.1818 76.229 58.3044 77.2244 57.6553C78.2198 57.0062 79.3557 56.604 80.5379 56.4823C81.72 56.3606 82.9142 56.5227 84.021 56.9554C85.1278 57.388 86.1153 58.0786 86.9015 58.9697C87.6876 59.8608 88.2496 60.9266 88.5408 62.0786C88.8319 63.2306 88.8438 64.4355 88.5755 65.593C91.075 64.8361 91.641 64.6817 91.8445 62.8466C92.0579 60.9357 92.0052 58.5766 91.9561 57.6055Z" fill="#FE5D5D"/>
<g style="mix-blend-mode:multiply">
<path d="M62.85 37.8867C57.2618 37.976 55.139 38.2437 53.9607 38.4169C52.3315 38.6597 51.2924 38.9078 50.2114 39.2943C48.7572 39.8146 47.7395 40.4028 46.8709 40.9143C43.568 42.8565 41.2399 44.3774 39.2884 46.5088C38.7618 47.0845 38.5207 47.4076 38.2654 47.9146C37.6236 49.1856 37.6789 50.8315 37.6789 50.8315C37.7519 52.7289 38.0721 54.6087 38.6314 56.4233C39.2126 58.1522 39.8321 60.6728 39.9615 64.1136C39.971 64.3767 40.082 64.6259 40.2712 64.8089C40.4604 64.992 40.7132 65.0946 40.9765 65.0954H42.4432L62.592 65.0427C62.8611 65.0418 63.1188 64.9343 63.3087 64.7437C63.4986 64.5531 63.6052 64.2951 63.6052 64.0261V38.6775C63.608 38.5759 63.5906 38.4748 63.554 38.3799C63.5175 38.2851 63.4625 38.1984 63.3923 38.1249C63.3221 38.0514 63.238 37.9925 63.145 37.9516C63.0519 37.9107 62.9517 37.8887 62.85 37.8867V37.8867Z" stroke="#F2F2F2" stroke-width="2" stroke-miterlimit="10"/>
</g>
<g style="mix-blend-mode:multiply">
<path d="M72.1422 64.0484C72.1422 61.5916 73.1181 59.2354 74.8552 57.4979C76.5923 55.7603 78.9485 54.7837 81.4056 54.7828C81.4351 54.7828 81.4637 54.7828 81.4949 54.7828C81.7511 52.8111 82.2501 49.7238 82.9107 49.2222C83.1428 48.9392 83.6463 48.7232 84.3453 48.1082C84.921 47.6013 85.3085 47.2603 85.4915 46.7694C85.8012 45.9384 85.3745 45.0887 84.8666 44.1176C84.1797 42.8212 83.2182 41.6902 82.0493 40.8036C81.3016 40.2239 80.4859 39.7377 79.6203 39.3558C79.4935 39.2996 79.1248 39.139 78.6258 38.9694C77.4367 38.5641 76.2281 38.3499 73.9999 38.1955C72.3484 38.0813 72.701 38.1777 71.2924 38.0715C70.139 37.9822 67.5993 37.9072 64.7686 37.9072C64.2919 37.9072 63.9795 38.2642 63.9947 38.6061C64.1152 41.3793 64.0714 44.92 64.0652 47.695V64.0288C64.0664 64.2978 64.1741 64.5553 64.3649 64.745C64.5556 64.9348 64.8138 65.0412 65.0829 65.0409L72.1985 65.0597C72.1613 64.7238 72.1425 64.3863 72.1422 64.0484Z" stroke="#F2F2F2" stroke-width="2" stroke-miterlimit="10"/>
</g>
<path d="M84.044 44.4154C83.4757 43.5564 82.8075 42.7678 82.0533 42.0662C81.1864 41.2745 80.2219 40.5967 79.1833 40.0491C76.3553 38.5638 74.0245 38.7102 65.993 38.5781H65.4574C65.2585 38.5805 65.0686 38.6614 64.9292 38.8032C64.7897 38.945 64.7119 39.1361 64.7129 39.335V47.1511C64.713 47.2522 64.7333 47.3522 64.7728 47.4453C64.8122 47.5383 64.87 47.6225 64.9426 47.6928C65.0151 47.7632 65.1011 47.8182 65.1954 47.8547C65.2897 47.8912 65.3903 47.9084 65.4913 47.9053L82.5309 47.3609C82.8684 47.3496 83.1968 47.2483 83.482 47.0676C83.7672 46.8868 83.999 46.6331 84.1533 46.3328C84.3076 46.0325 84.3788 45.6964 84.3596 45.3593C84.3404 45.0222 84.2314 44.6963 84.044 44.4154V44.4154Z" fill="#E3EEFF"/>
<path d="M62.7198 39.2756C62.7196 39.1862 62.7016 39.0978 62.6669 39.0154C62.6322 38.9331 62.5815 38.8584 62.5177 38.7958C62.4539 38.7332 62.3784 38.6839 62.2953 38.6507C62.2123 38.6176 62.1236 38.6012 62.0342 38.6026C56.9807 38.6767 55.0614 38.9034 54 39.0489C52.5271 39.2551 51.5898 39.4666 50.6078 39.7942C49.2929 40.236 48.3761 40.7358 47.587 41.1705C44.6018 42.8199 42.4987 44.1159 40.7312 45.9216C40.1063 46.5589 39.5126 47.2684 39.7198 47.8763C39.8706 48.3226 40.3946 48.543 40.7428 48.6474C40.8095 48.6664 40.8788 48.6749 40.9481 48.6724L62.0681 47.9977C62.2428 47.9923 62.4086 47.9192 62.5302 47.7937C62.6519 47.6682 62.7199 47.5003 62.7198 47.3256V39.2756Z" fill="#E3EEFF"/>
<path d="M28.5028 49.7361C26.4928 49.8622 24.527 50.3808 22.7164 51.2624C22.7164 51.2624 19.9053 52.6431 18.8903 54.721C18.7859 54.9352 18.51 55.5011 18.7386 55.7921C18.8582 55.9438 19.0689 55.9626 19.4018 55.9652C20.4168 55.9733 21.1131 55.9786 22.0397 55.5788C22.3475 55.4429 22.6432 55.2811 22.9235 55.095C24.3857 54.1471 24.4643 53.4804 25.3748 52.8234C26.9673 51.6747 28.3582 52.5369 29.1928 51.3248C29.2767 51.2044 29.7213 50.5599 29.4606 50.1145C29.2232 49.7191 28.5858 49.7334 28.5028 49.7361Z" fill="#C1C1C1"/>
<path d="M29.9013 70.8292C33.6458 70.8292 36.6811 67.7934 36.681 64.0484C36.6809 60.3035 33.6454 57.2676 29.901 57.2676C26.1565 57.2676 23.1212 60.3035 23.1213 64.0484C23.1214 67.7934 26.1569 70.8292 29.9013 70.8292Z" fill="#333333"/>
<g style="mix-blend-mode:multiply">
<path d="M29.905 67.0258C31.548 67.0258 32.8798 65.6937 32.8797 64.0505C32.8796 62.4073 31.5476 61.0752 29.9046 61.0752C28.2616 61.0752 26.9298 62.4073 26.9299 64.0505C26.93 65.6937 28.262 67.0258 29.905 67.0258Z" fill="#CCCCCC"/>
</g>
<path d="M81.0792 70.8302C84.8239 70.8302 87.8591 67.7946 87.8586 64.0499C87.858 60.3052 84.8219 57.2695 81.0772 57.2695C77.3325 57.2695 74.2973 60.3052 74.2979 64.0499C74.2984 67.7946 77.3345 70.8302 81.0792 70.8302Z" fill="#333333"/>
<g style="mix-blend-mode:multiply">
<path d="M81.0795 67.0235C82.7226 67.0235 84.0544 65.6915 84.0542 64.0483C84.0539 62.4052 82.7217 61.0732 81.0786 61.0732C79.4355 61.0732 78.1037 62.4052 78.104 64.0483C78.1042 65.6915 79.4364 67.0235 81.0795 67.0235Z" fill="#CCCCCC"/>
</g>
<g style="mix-blend-mode:multiply">
<path d="M81.4053 55.6113C80.0344 55.6115 78.6842 55.9457 77.4715 56.5849C76.2588 57.2241 75.2202 58.1491 74.4454 59.2799C73.6707 60.4107 73.1832 61.7132 73.0251 63.0748C72.867 64.4363 73.043 65.8159 73.538 67.0941L74.5262 67.0441C74.0275 65.9655 73.7935 64.7835 73.8437 63.5964C73.8939 62.4092 74.2269 61.2512 74.8148 60.2186C75.4028 59.186 76.2288 58.3087 77.2242 57.6595C78.2196 57.0104 79.3556 56.6083 80.5377 56.4865C81.7199 56.3648 82.914 56.527 84.0208 56.9596C85.1276 57.3922 86.1152 58.0828 86.9013 58.9739C87.6874 59.865 88.2494 60.9308 88.5406 62.0828C88.8318 63.2348 88.8437 64.4397 88.5753 65.5972C89.0342 65.4589 89.4261 65.3402 89.7635 65.2286C89.8183 64.8389 89.846 64.4458 89.8465 64.0522C89.8471 62.9437 89.6292 61.8458 89.2052 60.8215C88.7812 59.7972 88.1594 58.8665 87.3755 58.0826C86.5915 57.2987 85.6608 56.677 84.6364 56.2529C83.6119 55.8289 82.514 55.6109 81.4053 55.6113Z" fill="#E6E6E6"/>
</g>
<path d="M62.0915 52.0045H58.7636C58.5978 52.0045 58.4389 51.9386 58.3217 51.8215C58.2045 51.7043 58.1387 51.5454 58.1387 51.3797V51.3797C58.1387 51.214 58.2045 51.0551 58.3217 50.9379C58.4389 50.8207 58.5978 50.7549 58.7636 50.7549H62.0915C62.2572 50.7549 62.4161 50.8207 62.5333 50.9379C62.6505 51.0551 62.7164 51.214 62.7164 51.3797V51.3797C62.7164 51.5454 62.6505 51.7043 62.5333 51.8215C62.4161 51.9386 62.2572 52.0045 62.0915 52.0045V52.0045Z" fill="#EB4844"/>
<g style="mix-blend-mode:multiply">
<path d="M29.9086 55.4463C28.5264 55.4467 27.1646 55.7799 25.9385 56.4179C24.7123 57.0558 23.6579 57.9796 22.8643 59.1111C22.0708 60.2427 21.5615 61.5487 21.3796 62.9187C21.1976 64.2886 21.3484 65.6823 21.819 66.9817L23.2179 67.0602C22.6883 65.9213 22.4549 64.6672 22.5391 63.414C22.6233 62.1609 23.0225 60.9492 23.6996 59.8914C24.3768 58.8335 25.31 57.9637 26.4129 57.3624C27.5158 56.7611 28.7526 56.4479 30.0087 56.4517C31.2649 56.4555 32.4997 56.7762 33.5989 57.3842C34.6981 57.9922 35.626 58.8677 36.2968 59.9296C36.9675 60.9916 37.3593 62.2056 37.4359 63.4593C37.5125 64.7129 37.2714 65.9656 36.7349 67.1013H37.9535C38.4472 65.7989 38.6173 64.3962 38.4493 63.0136C38.2813 61.6311 37.7802 60.3099 36.989 59.1636C36.1978 58.0173 35.1401 57.0802 33.9068 56.4327C32.6736 55.7853 31.3015 55.4467 29.9086 55.4463V55.4463Z" fill="#E6E6E6"/>
</g>
<path d="M23.1821 53.1827C23.182 52.8525 23.1129 52.526 22.9791 52.2241C22.8454 51.9222 22.65 51.6516 22.4054 51.4297C21.66 51.8474 19.7666 53.0274 18.9355 54.6429C19.2395 55.0332 19.6578 55.3187 20.132 55.4597C20.6062 55.6007 21.1125 55.59 21.5804 55.4291C22.0482 55.2682 22.454 54.9652 22.7412 54.5625C23.0284 54.1597 23.1825 53.6773 23.1821 53.1827V53.1827Z" fill="#68F2D2"/>
<path d="M80.3211 52.0045H76.994C76.8283 52.0045 76.6694 51.9386 76.5522 51.8215C76.435 51.7043 76.3691 51.5454 76.3691 51.3797V51.3797C76.3691 51.214 76.435 51.0551 76.5522 50.9379C76.6694 50.8207 76.8283 50.7549 76.994 50.7549H80.3211C80.4035 50.7543 80.4852 50.77 80.5616 50.8012C80.6379 50.8323 80.7073 50.8782 80.7658 50.9363C80.8243 50.9944 80.8707 51.0635 80.9024 51.1396C80.9341 51.2157 80.9504 51.2973 80.9504 51.3797V51.3797C80.9504 51.4621 80.9341 51.5437 80.9024 51.6198C80.8707 51.6959 80.8243 51.765 80.7658 51.8231C80.7073 51.8811 80.6379 51.9271 80.5616 51.9582C80.4852 51.9893 80.4035 52.0051 80.3211 52.0045V52.0045Z" fill="#EB4844"/>
<path d="M24.6872 52.4415C25.0032 52.4432 25.3159 52.3767 25.6038 52.2466C25.8918 52.1165 26.1483 51.9258 26.3559 51.6876C26.5635 51.4494 26.7173 51.1692 26.8067 50.8662C26.8962 50.5631 26.9192 50.2444 26.8743 49.9316C25.4365 50.1722 24.0409 50.6186 22.7305 51.2571C22.9175 51.6142 23.1987 51.9134 23.5436 52.1222C23.8885 52.331 24.284 52.4414 24.6872 52.4415Z" fill="#E3EEFF"/>
</svg>
