<svg width="108" height="108" viewBox="0 0 108 108" fill="none" xmlns="http://www.w3.org/2000/svg">
<circle cx="54" cy="54" r="54" fill="white"/>
<path d="M44.8105 70.167L47.6877 81.7862" stroke="#666666" stroke-width="2" stroke-miterlimit="10"/>
<path d="M63.9689 70.167L61.0918 81.7862" stroke="#666666" stroke-width="2" stroke-miterlimit="10"/>
<path d="M54.2402 70.4072V81.7866" stroke="#666666" stroke-width="2" stroke-miterlimit="10"/>
<path d="M54.4019 16H54.2912C39.2186 16 27 22.9162 27 35.9785C27.0024 38.9893 27.6567 41.9638 28.9181 44.6975C34.451 55.164 44.2674 63.9245 44.2674 70.4073H64.4258C64.4258 63.9245 74.2559 55.164 79.775 44.6975C81.0364 41.9638 81.6908 38.9893 81.6931 35.9785C81.6885 22.907 69.4745 16 54.4019 16Z" fill="#615EF7"/>
<path d="M60.7371 92.0001H48.0252L47.1445 81.4736H61.6178L60.7371 92.0001Z" fill="#615EF7"/>
<path d="M54.3691 16C56.5224 16 58.2652 22.9162 58.2652 35.9785C58.2652 39.0585 58.1684 42.0002 57.9932 44.6975C57.2002 55.164 55.7985 63.9245 55.7985 70.4073H58.2238C58.2238 63.9245 61.9908 55.164 64.1117 44.6975C64.6053 41.8176 64.8506 38.9005 64.8448 35.9785C64.8356 22.907 60.1511 16 54.3691 16Z" fill="#68F2D2"/>
<path d="M50.4357 35.9785C50.4357 22.9116 52.1786 16.0046 54.3318 16C48.5499 16 43.8653 22.9162 43.8653 35.9785C43.8596 38.9005 44.1049 41.8176 44.5985 44.6975C46.7194 55.164 50.4864 63.9245 50.4864 70.4073H52.9117C52.9117 63.9245 51.5285 55.164 50.717 44.6975C50.5325 42.0002 50.4357 39.0585 50.4357 35.9785Z" fill="#68F2D2"/>
<path d="M39.3336 35.9785C39.3336 22.907 46.0376 16 54.3094 16C42.349 16 32.6387 22.9162 32.6387 35.9785C32.6351 38.9512 33.1501 41.9018 34.1603 44.6975C38.5405 55.164 46.3373 63.9245 46.3373 70.4073H48.8041C48.8041 63.9245 43.4095 55.164 40.3756 44.6975C39.6726 41.8448 39.3226 38.9166 39.3336 35.9785V35.9785Z" fill="#A2C5FB"/>
<path d="M54.3926 16C62.6643 16 69.3684 22.9162 69.3684 35.9785C69.3763 38.9169 69.0232 41.8452 68.3171 44.6975C65.2832 55.164 59.8886 63.9245 59.8886 70.4073H62.3554C62.3554 63.9245 70.1522 55.164 74.5325 44.6975C75.5427 41.9018 76.0576 38.9512 76.054 35.9785C76.0448 22.907 66.353 16 54.3926 16Z" fill="#A2C5FB"/>
</svg>
