<svg width="108" height="108" viewBox="0 0 108 108" fill="none" xmlns="http://www.w3.org/2000/svg">
<circle cx="54" cy="54" r="54" fill="white"/>
<path d="M61.8082 88.2556H46.4844L50.788 72.1475H57.5046L61.8082 88.2556Z" fill="#CCCCCC"/>
<path d="M69.0401 79.6276C68.9849 79.7515 68.9032 79.8619 68.8007 79.9512C68.3315 80.3593 67.4998 80.2709 67.1961 79.6656L66.0443 77.3631C65.7244 76.7282 65.571 76.0232 65.5983 75.3135C65.6694 73.5822 65.6749 70.0734 64.7652 67.813C64.3549 66.8052 63.7707 66.045 62.9226 65.8029C60.9815 65.2453 62.1237 61.4141 63.493 58.1677C64.5573 55.6448 65.7611 53.4756 65.7611 53.4756C66.3744 54.1598 66.9311 54.892 67.4259 55.6652C69.9867 59.5535 74.0892 68.3162 69.0401 79.6276Z" fill="#615EF7"/>
<path d="M39.2097 79.6278C39.2637 79.7525 39.3445 79.8639 39.4464 79.9542C39.9156 80.3622 40.7487 80.2738 41.051 79.6686L42.2042 77.366C42.5246 76.7313 42.6775 76.0261 42.6488 75.3165C42.579 73.5852 42.5735 70.0763 43.4832 67.8159C43.8936 66.8082 44.4777 66.0479 45.3245 65.8058C47.267 65.2482 46.1248 61.417 44.7554 58.1706C43.6898 55.6478 42.4874 53.4785 42.4874 53.4785C41.8739 54.1629 41.3167 54.8951 40.8212 55.6682C38.2631 59.5538 34.1606 68.3164 39.2097 79.6278Z" fill="#615EF7"/>
<path d="M65.9004 40.7323V51.3405H65.8922C65.7404 60.96 63.1659 69.2344 59.4629 73.3444C59.2875 73.5334 59.074 73.6836 58.8365 73.7853C58.5989 73.8869 58.3426 73.9379 58.084 73.9347H50.2169C49.9583 73.9376 49.702 73.8866 49.4644 73.7849C49.2269 73.6832 49.0135 73.5332 48.8379 73.3444C45.1322 69.2344 42.5563 60.96 42.4086 51.3405H42.4004V40.7323H42.4168C42.5905 35.3398 44.2458 30.3716 46.2676 26.3255C47.4808 23.8866 48.9362 21.5744 50.6122 19.4234C52.3235 17.2474 53.7393 16.0029 54.1538 16.0029C54.9021 16.0029 58.9102 20.0599 62.0401 26.3255C64.0605 30.3716 65.7158 35.3398 65.8895 40.7323H65.9004Z" fill="#68F2D2"/>
<path d="M55.86 57.9747C55.86 57.9978 55.86 58.0209 55.86 58.0441L54.9024 78.0011C54.8788 78.1856 54.7883 78.3552 54.648 78.4782C54.5076 78.6011 54.3269 78.6689 54.1398 78.6689C53.9527 78.6689 53.7721 78.6011 53.6317 78.4782C53.4913 78.3552 53.4008 78.1856 53.3772 78.0011L52.4196 58.0441C52.3772 57.1478 53.1569 56.3984 54.135 56.3984C55.098 56.3984 55.86 57.1056 55.86 57.9747Z" fill="#615EF7"/>
<path d="M65.8782 48.1895H42.3945V52.0166H65.8782V48.1895Z" fill="#FE5D5D"/>
<path d="M62.0323 26.3253H46.2598C46.3966 26.0533 46.5334 25.7813 46.6702 25.5093C49.7289 19.7074 53.4223 16 54.1392 16C54.856 16 58.5494 19.7074 61.6082 25.5093C61.7559 25.7786 61.8941 26.0492 62.0323 26.3253Z" fill="#FE5D5D"/>
<path d="M54.1472 44.0436C58.3523 44.0436 61.7613 40.9138 61.7613 37.053C61.7613 33.1923 58.3523 30.0625 54.1472 30.0625C49.9421 30.0625 46.5332 33.1923 46.5332 37.053C46.5332 40.9138 49.9421 44.0436 54.1472 44.0436Z" fill="#FE5D5D"/>
<path d="M59.4589 37.0538C59.4589 39.7467 57.08 41.9309 54.1471 41.9309C51.2142 41.9309 48.834 39.7467 48.834 37.0538C48.834 36.9382 48.834 36.8226 48.8477 36.7084C49.0406 34.176 51.3387 32.1768 54.1471 32.1768C56.9555 32.1768 59.2537 34.176 59.4452 36.7084C59.4548 36.8226 59.4589 36.9382 59.4589 37.0538Z" fill="#E3EEFF"/>
<path d="M67.3835 92.0004H36C36.1072 91.3117 36.3499 90.6507 36.7142 90.0553C37.0785 89.4599 37.5573 88.9417 38.1231 88.5303C38.6889 88.1189 39.3308 87.8224 40.0119 87.6578C40.6931 87.4932 41.4002 87.4636 42.0929 87.5708C42.176 85.8554 42.8794 84.2275 44.0737 82.9866C45.268 81.7458 46.8728 80.9754 48.5929 80.8174C50.3131 80.6593 52.0327 81.1242 53.4355 82.1264C54.8384 83.1286 55.83 84.6007 56.2279 86.272C56.8513 86.0168 57.5242 85.9037 58.1973 85.9409C58.8704 85.9781 59.5265 86.1647 60.1176 86.487C60.7087 86.8093 61.2196 87.2592 61.6129 87.8035C62.0063 88.3478 62.2719 88.9728 62.3905 89.6326C62.8403 89.2704 63.3841 89.0422 63.9589 88.9745C64.5338 88.9068 65.1161 89.0024 65.6385 89.2501C66.161 89.4979 66.6022 89.8877 66.911 90.3744C67.2198 90.8612 67.3837 91.4249 67.3835 92.0004V92.0004Z" fill="#E3EEFF"/>
</svg>
