<svg width="108" height="108" viewBox="0 0 108 108" fill="none" xmlns="http://www.w3.org/2000/svg">
<circle cx="54" cy="54" r="54" fill="white"/>
<path d="M91.9992 67.5176H86.7773V70.4904H91.9992V67.5176Z" fill="#CCCCCC"/>
<path d="M28.3692 85.7082C34.4042 85.7082 39.3004 80.8159 39.3051 74.7809C39.3098 68.7459 34.4213 63.8535 28.3863 63.8535C22.3513 63.8535 17.4551 68.7459 17.4504 74.7809C17.4457 80.8159 22.3342 85.7082 28.3692 85.7082Z" fill="#333333"/>
<path d="M28.4789 79.2256C31.0637 79.2256 33.1596 77.1317 33.1602 74.5488C33.1608 71.9659 31.0659 69.8721 28.481 69.8721C25.8962 69.8721 23.8003 71.9659 23.7997 74.5488C23.7991 77.1317 25.894 79.2256 28.4789 79.2256Z" fill="#CCCCCC"/>
<path d="M42.0811 24.6489C42.071 26.1085 41.6452 27.2887 41.1294 27.2857C40.6136 27.2826 40.203 26.0963 40.2131 24.6368C40.2232 23.1772 40.649 21.996 41.1648 22C41.6806 22.0041 42.0912 23.1893 42.0811 24.6489Z" fill="#CCCCCC"/>
<path d="M41.1403 24.7056C41.1403 25.2936 40.9643 25.7694 40.7559 25.7673C40.5476 25.7653 40.3827 25.2886 40.3868 24.7005C40.3908 24.1124 40.5628 23.6367 40.7711 23.6377C40.9795 23.6387 41.1494 24.1175 41.1403 24.7056Z" fill="#CCCCCC"/>
<path d="M39.7465 35.026L37.3576 27.4437C37.2422 27.0779 37.2653 26.6825 37.4223 26.3325C37.5793 25.9826 37.8594 25.7027 38.2092 25.5459L40.6224 24.4639L40.857 24.9892L38.4438 26.0712C38.2228 26.1704 38.046 26.3474 37.9468 26.5685C37.8476 26.7896 37.833 27.0395 37.9058 27.2707L40.2947 34.853L39.7465 35.026Z" fill="#CCCCCC"/>
<path d="M82.4176 58.2629C85.1959 59.5575 88.6448 70.0579 88.7894 74.9478C78.2972 77.2495 16.0176 74.9478 16.0176 74.9478C16.0176 74.9478 17.9584 58.4552 29.5278 58.8864C29.0969 50.9762 36.5701 38.8937 36.5701 38.8937C36.5701 38.8937 40.4508 37.3116 40.1636 37.8865C34.2702 53.4206 39.7317 68.5234 43.3252 71.975C51.2293 71.8313 63.5895 71.975 63.5895 71.975C64.8831 68.0922 64.4998 63.9686 60.9599 58.6465C67.5177 55.866 82.4176 58.2629 82.4176 58.2629Z" fill="#615EF7"/>
<path d="M60.5352 58.3477H82.7939C82.9988 58.3477 83.1954 58.4291 83.3403 58.5742C83.4852 58.7192 83.5666 58.9159 83.5666 59.121V59.2485H60.9569C60.8451 59.2485 60.7378 59.204 60.6587 59.1249C60.5796 59.0457 60.5352 58.9384 60.5352 58.8264V58.3477Z" fill="#CCCCCC"/>
<path d="M82.2032 53.7812H61.1116C60.1989 53.7812 59.459 54.5217 59.459 55.4352V57.0172C59.459 57.9306 60.1989 58.6711 61.1116 58.6711H82.2032C83.1159 58.6711 83.8558 57.9306 83.8558 57.0172V55.4352C83.8558 54.5217 83.1159 53.7812 82.2032 53.7812Z" fill="#FE5D5D"/>
<path d="M39.7323 38.8223C37.2887 41.6989 34.7026 52.1983 35.4925 58.815C36.2824 65.4317 40.0195 72.0514 41.6013 73.266C46.7746 73.3379 63.7336 73.266 63.7336 73.266L63.59 71.9714C63.59 71.9714 51.2298 71.8277 43.3257 71.9714C39.8111 68.5958 34.5114 54.0739 39.7939 38.9043L39.7323 38.8223Z" fill="#FE5D5D"/>
<path d="M74.9337 85.7092C80.9687 85.7092 85.8648 80.8168 85.8696 74.7818C85.8743 68.7468 80.9858 63.8545 74.9508 63.8545C68.9158 63.8545 64.0196 68.7468 64.0149 74.7818C64.0101 80.8168 68.8986 85.7092 74.9337 85.7092Z" fill="#333333"/>
<path d="M74.9473 79.4596C77.5288 79.4596 79.622 77.3684 79.6226 74.7889C79.6232 72.2093 77.5311 70.1182 74.9496 70.1182C72.3681 70.1182 70.2749 72.2093 70.2743 74.7889C70.2736 77.3684 72.3658 79.4596 74.9473 79.4596Z" fill="#CCCCCC"/>
<path d="M86.2976 74.6832C86.2993 73.1379 85.9859 71.6085 85.3767 70.1885C84.7675 68.7685 83.8753 67.4878 82.7546 66.4247C81.6339 65.3616 80.3083 64.5384 78.8589 64.0055C77.4095 63.4726 75.8667 63.2413 74.3248 63.3255C72.783 63.4097 71.2745 63.8078 69.8917 64.4954C68.5088 65.1831 67.2807 66.1458 66.2823 67.3246C65.2839 68.5035 64.5363 69.8738 64.0852 71.3517C63.6341 72.8297 63.4889 74.3841 63.6586 75.9201C72.9968 75.9353 81.358 75.7764 86.2815 75.2936C86.2926 75.0932 86.2976 74.8907 86.2976 74.6832Z" fill="#7371FF"/>
<path d="M40.9193 37.5281C40.631 39.2185 31.577 43.3897 30.6425 38.93C30.0356 36.9886 30.6071 34.0928 30.6071 34.0928C31.5406 29.6341 40.5956 33.8053 40.8828 35.4947L40.9193 37.5281Z" fill="#615EF7"/>
<path d="M31.3261 39.8285C31.7328 39.8285 32.0624 38.3476 32.0624 36.5207C32.0624 34.6939 31.7328 33.2129 31.3261 33.2129C30.9195 33.2129 30.5898 34.6939 30.5898 36.5207C30.5898 38.3476 30.9195 39.8285 31.3261 39.8285Z" fill="#68F2D2"/>
<path d="M36.3819 40.4234C37.0077 38.3774 37.0924 36.204 36.6276 34.1154C36.4997 33.5702 36.3237 33.0374 36.1017 32.5233C35.0842 32.2196 34.0486 32.0506 33.1484 32.1184C33.7017 32.6913 34.1325 33.5587 34.3884 34.6489C34.9012 36.8261 34.5968 39.2472 33.6986 40.9244C34.6122 40.8851 35.5156 40.7164 36.3819 40.4234Z" fill="#CCCCCC"/>
<path d="M29.527 58.8867L29.5209 57.666C29.5047 58.083 29.5057 58.4879 29.527 58.8867Z" fill="#7371FF"/>
<path d="M39.5238 75.6333C31.8372 71.4024 29.5484 61.6024 29.5282 58.8877C14.9368 59.2096 16.018 74.9491 16.018 74.9491C16.018 74.9491 26.4667 75.3357 39.5238 75.6333Z" fill="#7371FF"/>
<g style="mix-blend-mode:screen">
<path d="M87.6426 67.8457H91.7387V69.1221L87.6426 67.8457Z" fill="#666666"/>
</g>
<path d="M85.7277 60.4912H84.158C83.5034 60.4912 82.9727 61.0223 82.9727 61.6775V63.2798C82.9727 63.935 83.5034 64.4661 84.158 64.4661H85.7277C86.3823 64.4661 86.9131 63.935 86.9131 63.2798V61.6775C86.9131 61.0223 86.3823 60.4912 85.7277 60.4912Z" fill="#CCCCCC"/>
<path d="M84.7812 61.8759V63.0167C84.7812 63.3034 84.8951 63.5783 85.0976 63.7811C85.3002 63.9838 85.5749 64.0977 85.8614 64.0977H86.5836C86.7941 63.8776 86.9115 63.5846 86.9113 63.2798V61.6765C86.9112 61.5101 86.8761 61.3455 86.8081 61.1936C86.7401 61.0416 86.6409 60.9058 86.5168 60.7949H85.8614C85.7196 60.7949 85.5791 60.8229 85.4481 60.8772C85.317 60.9315 85.1979 61.0112 85.0976 61.1115C84.9973 61.2119 84.9178 61.3311 84.8635 61.4623C84.8092 61.5934 84.7812 61.734 84.7812 61.8759V61.8759Z" fill="#68F2D2"/>
<path d="M42.1939 37.6002C42.7195 37.6002 43.1456 37.1738 43.1456 36.6478C43.1456 36.1217 42.7195 35.6953 42.1939 35.6953C41.6683 35.6953 41.2422 36.1217 41.2422 36.6478C41.2422 37.1738 41.6683 37.6002 42.1939 37.6002Z" fill="#615EF7"/>
</svg>
