<svg width="108" height="108" viewBox="0 0 108 108" fill="none" xmlns="http://www.w3.org/2000/svg">
<circle cx="54" cy="54" r="54" fill="white"/>
<path d="M52.3867 50.4385V75.7372H61.5899C61.5899 73.5909 62.4426 71.5325 63.9603 70.0148C65.4779 68.4971 67.5363 67.6445 69.6827 67.6445C71.829 67.6445 73.8874 68.4971 75.4051 70.0148C76.9227 71.5325 77.7754 73.5909 77.7754 75.7372H86.1918V50.4385H52.3867Z" fill="#615EF7"/>
<path d="M53.2418 25.1436H19.9807C19.4369 25.1436 18.9961 25.5844 18.9961 26.1282V26.1506C18.9961 26.6944 19.4369 27.1353 19.9807 27.1353H53.2418C53.7855 27.1353 54.2264 26.6944 54.2264 26.1506V26.1282C54.2264 25.5844 53.7855 25.1436 53.2418 25.1436Z" fill="#FE5D5D"/>
<path d="M53.1744 27.1133H20.0527V75.737H53.1744V27.1133ZM27.0349 50.4203V31.5373H46.8171V50.4203H27.0349Z" fill="#615EF7"/>
<path d="M16.0005 69.5098H20.0469V65.913H16.0005V69.5098Z" fill="#666666"/>
<path d="M86.2422 75.314V50.4424L92.0015 62.8782L86.2422 75.314Z" fill="#EB4844"/>
<path d="M86.2422 68.2236V57.5322L92.0015 62.8779L86.2422 68.2236Z" fill="#FE5D5D"/>
<path d="M62.0797 36.2266H59.5215V50.4383H62.0797V36.2266Z" fill="#333333"/>
<path d="M64.2129 36.2265H57.3926L60.805 30.4717L64.2129 36.2265Z" fill="#666666"/>
<path d="M81.5571 39.4951H70.043V50.4383H81.5571V39.4951Z" fill="#333333"/>
<path d="M85.6035 25H65.9922V33.349H85.6035V25Z" fill="#333333"/>
<path d="M81.5527 39.4956H70.043L65.9922 33.3496H85.6035L81.5527 39.4956Z" fill="#666666"/>
<path d="M36.609 82.4798C43.9762 82.4798 49.9485 76.5075 49.9485 69.1403C49.9485 61.7731 43.9762 55.8008 36.609 55.8008C29.2418 55.8008 23.2695 61.7731 23.2695 69.1403C23.2695 76.5075 29.2418 82.4798 36.609 82.4798Z" fill="#333333"/>
<path d="M36.609 82.4798C43.9762 82.4798 49.9485 76.5075 49.9485 69.1403C49.9485 61.7731 43.9762 55.8008 36.609 55.8008C29.2418 55.8008 23.2695 61.7731 23.2695 69.1403C23.2695 76.5075 29.2418 82.4798 36.609 82.4798Z" fill="#333333"/>
<path d="M36.6105 78.2181C34.8152 78.2181 33.0602 77.6858 31.5674 76.6884C30.0747 75.6909 28.9112 74.2732 28.2242 72.6146C27.5371 70.9559 27.3574 69.1308 27.7076 67.3699C28.0579 65.6091 28.9224 63.9917 30.1919 62.7222C31.4614 61.4527 33.0788 60.5881 34.8396 60.2379C36.6005 59.8876 38.4256 60.0674 40.0843 60.7545C41.7429 61.4415 43.1606 62.605 44.158 64.0977C45.1555 65.5905 45.6879 67.3455 45.6879 69.1408C45.6843 71.5472 44.7268 73.854 43.0252 75.5555C41.3237 77.2571 39.0169 78.2146 36.6105 78.2181V78.2181Z" fill="#666666"/>
<path d="M69.6462 82.3861C73.8227 82.3861 77.2084 79.0004 77.2084 74.8239C77.2084 70.6474 73.8227 67.2617 69.6462 67.2617C65.4697 67.2617 62.084 70.6474 62.084 74.8239C62.084 79.0004 65.4697 82.3861 69.6462 82.3861Z" fill="#333333"/>
<path d="M69.6731 77.0552C69.2381 77.0552 68.8129 76.9262 68.4512 76.6844C68.0896 76.4427 67.8078 76.099 67.6415 75.697C67.4753 75.295 67.432 74.8528 67.5172 74.4262C67.6024 73.9996 67.8122 73.6078 68.1201 73.3006C68.4281 72.9933 68.8202 72.7842 69.247 72.6999C69.6738 72.6156 70.1159 72.6598 70.5176 72.8269C70.9192 72.994 71.2623 73.2764 71.5033 73.6386C71.7443 74.0007 71.8725 74.4262 71.8717 74.8612C71.8705 75.4435 71.6383 76.0016 71.2261 76.4129C70.814 76.8242 70.2554 77.0552 69.6731 77.0552V77.0552Z" fill="#666666"/>
<path d="M79.0332 77.5941C78.5562 77.5941 78.0988 77.4046 77.7615 77.0673C77.4243 76.73 77.2348 76.2726 77.2348 75.7957C77.2348 73.7901 76.4381 71.8666 75.0199 70.4484C73.6017 69.0302 71.6782 68.2335 69.6726 68.2335C67.667 68.2335 65.7436 69.0302 64.3254 70.4484C62.9072 71.8666 62.1104 73.7901 62.1104 75.7957C62.1104 76.2726 61.921 76.73 61.5837 77.0673C61.2464 77.4046 60.789 77.5941 60.3121 77.5941C59.8351 77.5941 59.3777 77.4046 59.0404 77.0673C58.7031 76.73 58.5137 76.2726 58.5137 75.7957C58.5137 72.8361 59.6894 69.9978 61.7821 67.9051C63.8748 65.8124 66.7131 64.6367 69.6726 64.6367C72.6322 64.6367 75.4705 65.8124 77.5632 67.9051C79.6559 69.9978 80.8316 72.8361 80.8316 75.7957C80.8316 76.2726 80.6421 76.73 80.3048 77.0673C79.9676 77.4046 79.5102 77.5941 79.0332 77.5941Z" fill="#A2C5FB"/>
<path d="M46.8218 31.542H27.0352V50.4385H46.8218V31.542Z" fill="#E3EEFF"/>
<path d="M84.254 75.7419V50.4926C84.2552 50.2295 84.3602 49.9774 84.5463 49.7914C84.7324 49.6053 84.9845 49.5002 85.2476 49.499V49.499C85.5112 49.5002 85.7637 49.6051 85.9505 49.7911C86.1373 49.977 86.2434 50.2291 86.2457 50.4926V75.7599C86.2445 76.0242 86.139 76.2774 85.9521 76.4643C85.7652 76.6513 85.512 76.7568 85.2476 76.758V76.758C85.1156 76.7568 84.9851 76.7296 84.8636 76.6778C84.7421 76.6261 84.632 76.5508 84.5397 76.4564C84.4474 76.362 84.3746 76.2503 84.3256 76.1277C84.2765 76.005 84.2522 75.8739 84.254 75.7419V75.7419Z" fill="#666666"/>
</svg>
