<svg width="108" height="108" viewBox="0 0 108 108" fill="none" xmlns="http://www.w3.org/2000/svg">
<circle cx="54" cy="54" r="54" fill="white"/>
<path d="M43.5541 65.6501V41.3896H33.4612C32.8323 41.3896 32.2149 41.5598 31.674 41.8824C31.1331 42.2049 30.6887 42.6678 30.3875 43.2225L25.5868 52.0639L18.5039 56.7497C18.2463 56.9204 18.0349 57.1526 17.8887 57.4256C17.7424 57.6985 17.6659 58.0037 17.666 58.3137V65.6501H43.5541Z" fill="#68F2D2"/>
<path d="M42.6601 65.7705H44.9785V40.6608H42.6601V65.7705Z" fill="#666666"/>
<path opacity="0.2" d="M39.8851 65.4404H40.3203V51.5628H39.8851V65.4404Z" fill="#050505"/>
<path opacity="0.2" d="M28.184 65.7461H28.6191V51.8684H28.184V65.7461Z" fill="#050505"/>
<path d="M48.0226 65.9883H83.5234V61.1116L48.0226 61.1116V65.9883Z" fill="#333333"/>
<path d="M16.0005 69.1191L85.5527 69.1191V65.3341L16.0005 65.3341V69.1191Z" fill="#666666"/>
<path d="M91.1299 60.3118H46.9355V32H78.3397L91.1299 40.7271V60.3118Z" fill="#68F2D2"/>
<path d="M32.1971 68.043C34.0054 68.0053 35.8161 67.9437 37.6256 67.9601C38.5548 67.9689 39.5014 68.0669 40.4418 68.0731C40.2793 66.0976 39.3873 64.2546 37.941 62.9061C36.4948 61.5576 34.5988 60.8011 32.6257 60.7854C30.6525 60.7697 28.7448 61.4958 27.2774 62.821C25.81 64.1462 24.889 65.9748 24.6953 67.9475C27.1938 68.0103 29.6899 68.0945 32.1971 68.043Z" fill="#FE5D5D"/>
<path d="M46.7189 61.9863L92 61.9863V58.4199L46.7189 58.4199V61.9863Z" fill="#666666"/>
<path d="M67.4791 68.043C69.2886 68.0053 71.0993 67.9437 72.9088 67.9601C73.8379 67.9689 74.7846 68.0669 75.725 68.0731C75.5625 66.0976 74.6705 64.2546 73.2242 62.9061C71.7779 61.5576 69.882 60.8011 67.9089 60.7854C65.9357 60.7697 64.028 61.4958 62.5606 62.821C61.0932 64.1462 60.1722 65.9748 59.9785 67.9475C62.477 68.0103 64.9731 68.0945 67.4791 68.043Z" fill="#FE5D5D"/>
<path d="M32.4395 75.9804C36.1447 75.9804 39.1485 72.9629 39.1485 69.2407C39.1485 65.5184 36.1447 62.501 32.4395 62.501C28.7342 62.501 25.7305 65.5184 25.7305 69.2407C25.7305 72.9629 28.7342 75.9804 32.4395 75.9804Z" fill="#333333"/>
<path d="M34.0092 73.0502C36.1033 72.1788 37.0977 69.767 36.2303 67.6633C35.3629 65.5596 32.9621 64.5606 30.868 65.432C28.7738 66.3034 27.7794 68.7152 28.6468 70.8189C29.5142 72.9226 31.915 73.9216 34.0092 73.0502Z" fill="#666666"/>
<path d="M35.5138 69.7503C35.7883 68.0519 34.6402 66.4516 32.9495 66.1759C31.2589 65.9002 29.6659 67.0535 29.3914 68.7519C29.117 70.4503 30.2651 72.0506 31.9557 72.3263C33.6464 72.602 35.2394 71.4487 35.5138 69.7503Z" fill="#CCCCCC"/>
<path d="M67.8906 75.9804C71.5959 75.9804 74.5996 72.9629 74.5996 69.2407C74.5996 65.5184 71.5959 62.501 67.8906 62.501C64.1854 62.501 61.1816 65.5184 61.1816 69.2407C61.1816 72.9629 64.1854 75.9804 67.8906 75.9804Z" fill="#333333"/>
<path d="M68.3969 73.3199C70.6466 73.0416 72.2458 70.9839 71.9687 68.7239C71.6917 66.464 69.6434 64.8575 67.3937 65.1358C65.1441 65.414 63.5449 67.4717 63.8219 69.7317C64.0989 71.9917 66.1472 73.5982 68.3969 73.3199Z" fill="#666666"/>
<path d="M70.967 69.7503C71.2414 68.0519 70.0933 66.4516 68.4027 66.1759C66.712 65.9002 65.119 67.0535 64.8446 68.7519C64.5701 70.4503 65.7182 72.0506 67.4089 72.3263C69.0995 72.602 70.6925 71.4487 70.967 69.7503Z" fill="#CCCCCC"/>
<path d="M39.3839 52.351H29.8368C29.0725 52.351 28.5907 51.5282 28.9648 50.8616L32.6365 44.3192C32.8135 44.0038 33.147 43.8086 33.5086 43.8086H39.3839C39.9362 43.8086 40.3839 44.2563 40.3839 44.8086V51.351C40.3839 51.9033 39.9362 52.351 39.3839 52.351Z" fill="#E3EEFF"/>
<path d="M37.6094 53.6162H39.4564C39.5189 53.6165 39.5787 53.6417 39.6227 53.6862C39.6668 53.7307 39.6915 53.7909 39.6915 53.8536V53.8536C39.6915 53.8847 39.6854 53.9154 39.6736 53.944C39.6618 53.9727 39.6445 53.9987 39.6226 54.0206C39.6008 54.0426 39.5749 54.06 39.5464 54.0718C39.5178 54.0837 39.4873 54.0898 39.4564 54.0898H37.6094C37.5469 54.0898 37.487 54.065 37.4427 54.0207C37.3984 53.9765 37.3734 53.9164 37.373 53.8536V53.8536C37.373 53.7907 37.3979 53.7303 37.4423 53.6858C37.4866 53.6412 37.5467 53.6162 37.6094 53.6162V53.6162Z" fill="#333333"/>
<path d="M28.5529 49.3945C28.6519 49.3961 28.7464 49.4364 28.8164 49.5067C28.8864 49.577 28.9265 49.672 28.9281 49.7714V52.5012C28.9265 52.6007 28.8864 52.6956 28.8164 52.7659C28.7464 52.8362 28.6519 52.8765 28.5529 52.8781V52.8781C28.4534 52.8781 28.358 52.8384 28.2876 52.7677C28.2173 52.697 28.1778 52.6012 28.1778 52.5012V49.7764C28.1771 49.7265 28.1863 49.677 28.2049 49.6307C28.2234 49.5844 28.251 49.5422 28.2859 49.5067C28.3208 49.4711 28.3623 49.4429 28.4082 49.4237C28.454 49.4044 28.5032 49.3945 28.5529 49.3945V49.3945Z" fill="#333333"/>
<path d="M17.7031 59.6214V62.1338C17.7031 62.1338 19.9853 62.2431 20.2042 62.0974C20.423 61.9517 21.0733 59.9505 20.6743 59.404C20.2754 58.8576 17.7031 59.6214 17.7031 59.6214Z" fill="#E3EEFF"/>
<path d="M29.2222 53.9876C29.1999 53.982 29.1766 53.982 29.1543 53.9876H29.2222Z" fill="#FBFCFF"/>
</svg>
