<svg width="108" height="108" viewBox="0 0 108 108" fill="none" xmlns="http://www.w3.org/2000/svg">
<circle cx="54" cy="54" r="54" fill="white"/>
<path d="M71.9965 72.4966C73.6374 72.4966 74.9677 71.8336 74.9677 71.0159C74.9677 70.1981 73.6374 69.5352 71.9965 69.5352C70.3556 69.5352 69.0254 70.1981 69.0254 71.0159C69.0254 71.8336 70.3556 72.4966 71.9965 72.4966Z" fill="#666666"/>
<path d="M43.6677 62.0703C44.3594 65.4539 41.0312 70.008 41.0312 70.008L41.5509 70.5261C45.0098 67.6222 45.1373 62.5052 45.1373 62.5052L43.6677 62.0703Z" fill="#666666"/>
<path d="M55.4062 63.8584L55.7952 68.5116H56.4742L56.7675 63.8584H55.4062Z" fill="#666666"/>
<path d="M56.0844 71.0151C57.7253 71.0151 59.0556 70.3522 59.0556 69.5344C59.0556 68.7166 57.7253 68.0537 56.0844 68.0537C54.4435 68.0537 53.1133 68.7166 53.1133 69.5344C53.1133 70.3522 54.4435 71.0151 56.0844 71.0151Z" fill="#666666"/>
<path d="M39.77 72.4966C41.4109 72.4966 42.7411 71.8336 42.7411 71.0159C42.7411 70.1981 41.4109 69.5352 39.77 69.5352C38.1291 69.5352 36.7988 70.1981 36.7988 71.0159C36.7988 71.8336 38.1291 72.4966 39.77 72.4966Z" fill="#666666"/>
<g style="mix-blend-mode:screen">
<path d="M42.0571 71.0252C42.0571 71.6649 42.293 70.488 41.0306 70.488C39.7682 70.488 37.4824 71.6521 37.4824 71.0252C37.4824 70.3984 38.5057 69.8867 39.7713 69.8867C41.037 69.8867 42.0571 70.3856 42.0571 71.0252Z" fill="#525252"/>
</g>
<g style="mix-blend-mode:screen">
<path d="M69.7192 71.2303C69.7192 71.8699 69.4801 70.693 70.7425 70.693C72.005 70.693 74.2907 71.8603 74.2907 71.2303C74.2907 70.6003 73.2674 70.0918 72.0049 70.0918C70.7425 70.0918 69.7192 70.6003 69.7192 71.2303Z" fill="#525252"/>
</g>
<path d="M68.0966 62.0703C67.4048 65.4539 70.733 70.008 70.733 70.008L70.2165 70.5261C66.7577 67.6222 66.627 62.5052 66.627 62.5052L68.0966 62.0703Z" fill="#666666"/>
<path d="M20.0762 53.8424C46.4658 70.69 68.7748 66.6572 86.1522 54.6867C53.4059 52.8638 20.0762 53.8424 20.0762 53.8424Z" fill="#EB4844"/>
<path d="M92 50.8482C92 56.2145 74.9893 60.5639 54 60.5639C40.8849 60.5639 29.3191 58.8626 22.4906 56.2785C18.3941 54.7274 16 52.8598 16 50.8418C16 45.4754 33.0139 41.126 54 41.126C74.9861 41.126 92 45.4818 92 50.8482Z" fill="#FE5D5D"/>
<path d="M38.9141 44.2571C47.5214 33.2397 61.1753 33.1982 67.9241 44.4298C67.7934 47.0331 67.5352 47.2058 67.5352 47.2058L59.7535 49.4156C59.7535 49.4156 49.074 49.5468 48.685 49.4156C48.2961 49.2845 41.2923 47.3337 41.2923 47.3337L38.9141 44.2571Z" fill="#E3EEFF"/>
<path d="M36.9886 46.7489C42.5037 51.6675 62.9 54.3156 70.3215 46.4674V46.0005C70.0282 44.7213 68.4406 44.0817 67.7934 44.2224C60.372 52.0737 43.0839 49.0195 39.0543 44.0753C37.1193 43.4964 35.8282 45.7159 36.9886 46.7489Z" fill="#EB4844"/>
<path d="M34.0301 51.5479C34.3172 50.8509 32.9037 49.6035 30.8729 48.7617C28.8422 47.9199 26.9632 47.8026 26.6761 48.4996C26.389 49.1967 27.8025 50.4441 29.8333 51.2859C31.864 52.1276 33.743 52.245 34.0301 51.5479Z" fill="#68F2D2"/>
<path d="M33.1756 51.1968C32.9557 51.7308 31.5116 51.6413 29.9527 50.9953C28.3938 50.3493 27.3099 49.3962 27.533 48.859C27.7562 48.3217 29.1939 48.4112 30.7528 49.0572C32.3117 49.7032 33.3956 50.6595 33.1756 51.1968Z" fill="#68F2D2"/>
<path d="M57.8074 55.6011C57.8074 56.3559 56.0317 56.9731 53.8352 56.9763C51.6388 56.9795 49.8567 56.3751 49.8535 55.6203C49.8503 54.8656 51.6324 54.2483 53.8289 54.2451C56.0253 54.2419 57.8074 54.8464 57.8074 55.6011Z" fill="#68F2D2"/>
<path d="M56.8881 55.6041C56.8881 56.183 55.5236 56.6563 53.8372 56.6595C52.1508 56.6627 50.7864 56.1958 50.7832 55.6169C50.78 55.038 52.1476 54.5647 53.834 54.5615C55.5205 54.5583 56.8881 55.0349 56.8881 55.6041Z" fill="#68F2D2"/>
<path d="M80.8446 48.6131C81.259 49.2528 80.1145 50.7399 78.2942 51.9583C76.4739 53.1768 74.6441 53.6565 74.2264 53.0265C73.8088 52.3965 74.9565 50.8998 76.7768 49.6813C78.5971 48.4628 80.4397 47.9991 80.8446 48.6131Z" fill="#68F2D2"/>
<path d="M80.0738 49.1243C80.3926 49.6072 79.516 50.7585 78.1101 51.6827C76.7042 52.607 75.3079 52.9876 74.9891 52.5046C74.6703 52.0217 75.5502 50.8736 76.9529 49.9462C78.3555 49.0187 79.755 48.6382 80.0738 49.1243Z" fill="#68F2D2"/>
</svg>
