<svg width="18" height="10" viewBox="0 0 18 10" fill="none" xmlns="http://www.w3.org/2000/svg">
<path d="M0.338324 0.35094C0.23107 0.456296 0.145985 0.581409 0.0879327 0.719125C0.0298806 0.85684 0 1.00446 0 1.15354C0 1.30262 0.0298806 1.45023 0.0879327 1.58795C0.145985 1.72566 0.23107 1.85078 0.338324 1.95613L8.17388 9.66729C8.28102 9.77277 8.40824 9.85644 8.54828 9.91353C8.68832 9.97062 8.83843 10 8.99003 10C9.14162 10 9.29173 9.97062 9.43177 9.91353C9.57181 9.85644 9.69904 9.77277 9.80617 9.66729L17.6417 1.95613C17.7533 1.85174 17.8424 1.72645 17.9039 1.58765C17.9654 1.44884 17.9981 1.29933 17.9999 1.14792C18.0018 0.996517 17.9727 0.846283 17.9146 0.706076C17.8565 0.565868 17.7704 0.438526 17.6614 0.331553C17.5524 0.224581 17.4228 0.140142 17.2801 0.0832186C17.1374 0.0262947 16.9846 -0.00196552 16.8307 0.000105858C16.6767 0.00217724 16.5247 0.0345354 16.3837 0.0952768C16.2426 0.156018 16.1154 0.243913 16.0094 0.353777L8.99003 7.26234L1.97061 0.353777C1.86367 0.248117 1.73659 0.164222 1.59666 0.10689C1.45672 0.0495577 1.30666 0.0199118 1.15507 0.0196486C1.00347 0.0193853 0.853308 0.0485106 0.713166 0.105356C0.573023 0.162202 0.445648 0.245652 0.338324 0.35094Z" fill="black"/>
</svg>
