<svg width="100" height="100" viewBox="0 0 100 100" fill="none" xmlns="http://www.w3.org/2000/svg">
<rect width="100" height="100" fill="white"/>
<rect width="100" height="100" fill="white"/>
<g clip-path="url(#clip0)">
<path d="M58.1686 86.0586H42.0377L46.5679 69.1019H53.6384L58.1686 86.0586Z" fill="#CCCCCC"/>
<path d="M65.7805 76.9762C65.7224 77.1066 65.6364 77.2229 65.5285 77.3169C65.0346 77.7464 64.1591 77.6534 63.8394 77.0163L62.6269 74.5925C62.2901 73.9241 62.1286 73.182 62.1574 72.435C62.2323 70.6124 62.2381 66.9187 61.2805 64.5393C60.8485 63.4785 60.2336 62.6781 59.3408 62.4233C57.2974 61.8363 58.4998 57.8033 59.9413 54.386C61.0616 51.7302 62.3288 49.4467 62.3288 49.4467C62.9743 50.167 63.5604 50.9378 64.0813 51.7517C66.777 55.8448 71.0956 65.069 65.7805 76.9762Z" fill="#615EF7"/>
<path d="M34.3782 76.9762C34.435 77.1074 34.5201 77.2247 34.6274 77.3198C35.1213 77.7493 35.9982 77.6562 36.3165 77.0191L37.5304 74.5953C37.8677 73.9272 38.0287 73.1848 37.9984 72.4378C37.925 70.6153 37.9192 66.9216 38.8768 64.5422C39.3088 63.4813 39.9237 62.681 40.8151 62.4262C42.8599 61.8392 41.6575 57.8062 40.216 54.3888C39.0943 51.7331 37.8285 49.4496 37.8285 49.4496C37.1827 50.1699 36.5962 50.9408 36.0746 51.7546C33.3818 55.8448 29.0632 65.069 34.3782 76.9762Z" fill="#615EF7"/>
<path d="M62.4756 36.032V47.199H62.467C62.3072 57.3251 59.5971 66.0354 55.699 70.3619C55.5144 70.5608 55.2897 70.7189 55.0396 70.8259C54.7896 70.933 54.5197 70.9866 54.2475 70.9832H45.966C45.6938 70.9863 45.424 70.9326 45.1739 70.8256C44.9239 70.7185 44.6993 70.5606 44.5144 70.3619C40.6135 66.0354 37.9019 57.3251 37.7464 47.199H37.7378V36.032H37.7551C37.9379 30.3554 39.6804 25.1256 41.8087 20.8664C43.0858 18.299 44.6179 15.865 46.3821 13.6007C48.1836 11.31 49.674 10 50.1103 10C50.898 10 55.1172 14.2707 58.4119 20.8664C60.5388 25.1256 62.2813 30.3554 62.4641 36.032H62.4756Z" fill="#68F2D2"/>
<path d="M51.9075 54.1826C51.9075 54.207 51.9075 54.2313 51.9075 54.2556L50.8995 75.2639C50.8746 75.4581 50.7794 75.6367 50.6316 75.7661C50.4838 75.8955 50.2936 75.9669 50.0967 75.9669C49.8997 75.9669 49.7095 75.8955 49.5618 75.7661C49.414 75.6367 49.3187 75.4581 49.2939 75.2639L48.2859 54.2556C48.2412 53.3122 49.062 52.5233 50.0916 52.5233C51.1054 52.5233 51.9075 53.2678 51.9075 54.1826Z" fill="#615EF7"/>
<path d="M62.4512 43.8818H37.7306V47.9105H62.4512V43.8818Z" fill="#FE5D5D"/>
<path d="M58.4048 20.8663H41.8015C41.9455 20.58 42.0895 20.2937 42.2336 20.0073C45.4534 13.8999 49.3414 9.99714 50.096 9.99714C50.8505 9.99714 54.7386 13.8999 57.9584 20.0073C58.1139 20.2908 58.2594 20.5757 58.4048 20.8663Z" fill="#FE5D5D"/>
<path d="M50.1031 39.518C54.5297 39.518 58.1182 36.2234 58.1182 32.1593C58.1182 28.0951 54.5297 24.8005 50.1031 24.8005C45.6765 24.8005 42.0881 28.0951 42.0881 32.1593C42.0881 36.2234 45.6765 39.518 50.1031 39.518Z" fill="#FE5D5D"/>
<path d="M55.6947 32.1607C55.6947 34.9954 53.1905 37.2947 50.1031 37.2947C47.0158 37.2947 44.5101 34.9954 44.5101 32.1607C44.5101 32.039 44.5102 31.9173 44.5246 31.7971C44.7276 29.1313 47.1468 27.0268 50.1031 27.0268C53.0595 27.0268 55.4787 29.1313 55.6803 31.7971C55.6904 31.9173 55.6947 32.039 55.6947 32.1607Z" fill="#E3EEFF"/>
<path d="M64.0367 90H31.0001C31.1129 89.275 31.3684 88.5792 31.7519 87.9524C32.1354 87.3256 32.6393 86.7801 33.235 86.3471C33.8306 85.914 34.5063 85.6019 35.2233 85.4286C35.9404 85.2553 36.6847 85.2242 37.4139 85.3371C37.5013 83.5312 38.2418 81.8176 39.499 80.5114C40.7562 79.2052 42.4456 78.3943 44.2563 78.2279C46.067 78.0615 47.8773 78.5508 49.354 79.6058C50.8307 80.6608 51.8745 82.2105 52.2934 83.9698C52.9496 83.7012 53.658 83.5821 54.3666 83.6213C55.0751 83.6604 55.7658 83.8569 56.388 84.1962C57.0102 84.5355 57.5481 85.009 57.9621 85.582C58.3761 86.155 58.6558 86.8129 58.7807 87.5075C59.2541 87.1261 59.8266 86.8859 60.4317 86.8147C61.0368 86.7434 61.6498 86.844 62.1998 87.1048C62.7497 87.3656 63.2142 87.776 63.5393 88.2884C63.8643 88.8007 64.0368 89.3942 64.0367 90V90Z" fill="#E3EEFF"/>
</g>
<defs>
<clipPath id="clip0">
<rect width="37.3034" height="80" fill="white" transform="translate(31 10)"/>
</clipPath>
</defs>
</svg>
