<svg width="72" height="68" viewBox="0 0 72 68" fill="none" xmlns="http://www.w3.org/2000/svg">
<path d="M31.2447 3.63526C32.7415 -0.971293 39.2585 -0.971301 40.7553 3.63525L45.6541 18.7123C46.3235 20.7724 48.2433 22.1672 50.4094 22.1672H66.2623C71.1059 22.1672 73.1198 28.3653 69.2012 31.2123L56.3759 40.5304C54.6235 41.8036 53.8902 44.0604 54.5596 46.1205L59.4584 61.1976C60.9552 65.8041 55.6828 69.6347 51.7642 66.7877L38.9389 57.4696C37.1865 56.1964 34.8135 56.1964 33.0611 57.4696L20.2358 66.7877C16.3172 69.6347 11.0448 65.8041 12.5416 61.1976L17.4404 46.1205C18.1098 44.0604 17.3765 41.8036 15.6241 40.5304L2.79878 31.2123C-1.11978 28.3653 0.894091 22.1672 5.73771 22.1672H21.5906C23.7567 22.1672 25.6765 20.7724 26.3459 18.7123L31.2447 3.63526Z" fill="#615EF7"/>
</svg>
