<svg width="97" height="60" viewBox="0 0 97 60" fill="none" xmlns="http://www.w3.org/2000/svg">
<path d="M65.2192 58.7496H4.63867C4.08639 58.7496 3.63867 58.3018 3.63867 57.7496V51.3428C3.63867 50.7905 4.08639 50.3428 4.63867 50.3428H65.2192C66.0404 50.3428 66.7011 50.9688 66.7011 51.7469V57.3544C66.7011 58.1235 66.0404 58.7496 65.2192 58.7496Z" fill="#F4F4F4"/>
<path d="M63.0052 59.9996H0.864533C0.384237 59.9996 0 59.6152 0 59.1346C0 58.6541 0.384237 58.2696 0.864533 58.2696H63.0052C64.9745 58.2696 66.5787 56.6645 66.5787 54.6942C66.5787 52.7238 64.9745 51.1187 63.0052 51.1187H0.864533C0.384237 51.1187 0 50.7343 0 50.2537C0 49.7731 0.384237 49.3887 0.864533 49.3887H63.0052C65.9254 49.3887 68.3077 51.7723 68.3077 54.6942C68.3077 57.616 65.9254 59.9996 63.0052 59.9996Z" fill="#666666"/>
<path d="M17.2227 25.4844H63.4201V48.1192H17.2227C15.2188 48.1192 13.5996 46.4339 13.5996 44.3483V29.2646C13.5996 27.1696 15.2188 25.4844 17.2227 25.4844Z" fill="#F4F4F4"/>
<ellipse cx="20.2992" cy="36.8026" rx="10.8851" ry="10.8983" fill="#F4F4F4"/>
<path d="M65.0691 49.458H21.6313C14.6478 49.458 8.9707 43.7777 8.9707 36.7998C8.9707 29.8219 14.6478 24.1416 21.6313 24.1416H65.0691C65.5494 24.1416 65.9336 24.5261 65.9336 25.0066C65.9336 25.4872 65.5494 25.8717 65.0691 25.8717H21.6313C15.6084 25.8717 10.6998 30.7735 10.6998 36.7998C10.6998 42.8262 15.5988 47.7376 21.6313 47.7376H65.0691C65.5494 47.7376 65.9336 48.122 65.9336 48.6026C65.9336 49.0736 65.5398 49.458 65.0691 49.458Z" fill="#666666"/>
<path d="M21.8287 44.3374L24.2542 42.045L26.6797 44.3374V29.9258H21.8287V44.3374Z" fill="#666666"/>
<path d="M70.5565 22.7606H6.90137V10.8145H70.5565C71.7703 10.8145 72.7564 11.7063 72.7564 12.804V20.7624C72.7564 21.8687 71.7703 22.7606 70.5565 22.7606Z" fill="#F4F4F4"/>
<path d="M66.8472 24.4195H5.01395C4.53365 24.4195 4.14941 24.035 4.14941 23.5544C4.14941 23.0739 4.53365 22.6894 5.01395 22.6894H66.8472C70.094 22.6894 72.7356 20.0463 72.7356 16.7976C72.7356 13.549 70.094 10.9058 66.8472 10.9058H5.01395C4.53365 10.9058 4.14941 10.5214 4.14941 10.0408C4.14941 9.56024 4.53365 9.17578 5.01395 9.17578H66.8472C71.0449 9.17578 74.4647 12.5974 74.4647 16.7976C74.4647 20.9978 71.0449 24.4195 66.8472 24.4195Z" fill="#666666"/>
<path d="M72.2697 1.15011L80.1481 0L88.708 58.8498L80.8296 59.9999L72.2697 1.15011Z" fill="#666666"/>
<path d="M74.7354 6.27979L78.7924 5.75293L86.2422 51.2543L82.1852 51.7802L78.4603 29.03L74.7354 6.27979Z" fill="#949494"/>
<path d="M80.342 1.15011L88.2204 0L96.7803 58.8498L88.9018 59.9999L80.342 1.15011Z" fill="#666666"/>
<path d="M82.8073 6.27979L86.5738 5.75293L93.4922 51.2543L89.7246 51.7802L82.8073 6.27979Z" fill="#949494"/>
</svg>
