<svg width="77" height="60" viewBox="0 0 77 60" fill="none" xmlns="http://www.w3.org/2000/svg">
<path d="M20.4898 5.85449H40.9785V59.9995H20.4898V5.85449Z" fill="#666666"/>
<path d="M20.4898 19.0244H40.9785V35.8535H20.4898V19.0244Z" fill="#949494"/>
<path d="M20.4898 11.708H40.9785V15.3661H20.4898V11.708Z" fill="#949494"/>
<path d="M40.9779 0H49.0264V59.998H40.9779V0Z" fill="#666666"/>
<path d="M43.1733 5.85449H46.832V51.9511H43.1733V5.85449Z" fill="#949494"/>
<path d="M0.000587463 5.85449H20.4893V59.9995H0.000587463V5.85449Z" fill="#666666"/>
<path d="M0.000587463 19.0244H20.4893V35.8535H0.000587463V19.0244Z" fill="#949494"/>
<path d="M0.000587463 11.708H20.4893V15.3661H0.000587463V11.708Z" fill="#949494"/>
<path d="M54.9124 10.2213C52.614 10.7906 50.8439 12.2935 49.8604 14.1961C48.9519 15.9544 48.717 18.0518 49.3769 20.0796L62.1313 59.2366C62.3194 59.8163 62.9462 60.1341 63.5311 59.9457C64.1169 59.7593 64.4376 59.1381 64.2475 58.5584L53.1443 24.4734C52.2768 21.807 53.4337 18.8141 55.9934 17.6226C59.0901 16.1846 62.6528 17.79 63.6685 20.9085L74.8292 55.1714C75.0174 55.751 75.6441 56.0698 76.2289 55.8815C76.8138 55.695 77.1354 55.0728 76.9453 54.4932L64.264 15.5672C62.9988 11.6718 58.9254 9.22916 54.9124 10.2213Z" fill="#666666"/>
<path d="M63.9095 57.5123L74.4932 54.1252L62.0779 16.0174C61.1363 13.1246 57.9957 11.5317 55.0784 12.4653C52.1619 13.3988 50.5527 16.5113 51.4942 19.4015L63.9095 57.5123Z" fill="#F4F4F4"/>
</svg>
