<svg width="83" height="60" viewBox="0 0 83 60" fill="none" xmlns="http://www.w3.org/2000/svg">
<path d="M76.2267 0L68.3203 0.779557L74.1005 60L82.0069 59.2214L76.2267 0Z" fill="#666666"/>
<path d="M74.6333 5.99219L71.04 6.34617L75.4813 51.8457L79.0746 51.4917L74.6333 5.99219Z" fill="#949494"/>
<path d="M21.2986 10.222C23.5149 10.791 25.2218 12.2942 26.1701 14.1963C27.0461 15.9545 27.2727 18.0519 26.6373 20.0806L14.3376 59.2358C14.1562 59.8154 13.5518 60.1342 12.9879 59.9458C12.423 59.7594 12.1138 59.1373 12.2971 58.5576L23.0036 24.4732C23.8401 21.8069 22.7244 18.8141 20.2562 17.6229C17.2701 16.1854 13.8348 17.7901 12.8554 20.9095L2.09336 55.1706C1.91196 55.7512 1.30756 56.0691 0.743616 55.8807C0.178729 55.6942 -0.130488 55.0731 0.0527947 54.4925L12.2811 15.5672C13.5011 11.672 17.4318 9.2279 21.2986 10.222Z" fill="#666666"/>
<path d="M12.6255 57.5093L2.41992 54.1224L14.3916 16.0153C15.2995 13.1229 18.328 11.5299 21.1411 12.4631C23.9552 13.3973 25.5051 16.509 24.5972 19.4004L12.6255 57.5093Z" fill="#F4F4F4"/>
<path d="M66.2417 60H27V5H66.2417C67.7655 5 69 6.27275 69 7.84151V57.1585C69.0019 58.7272 67.7673 60 66.2417 60Z" fill="#666666"/>
<path d="M32.696 5H31.2725V59.999H32.696V5Z" fill="#555555"/>
<path d="M49.5994 34.9789C51.315 34.9789 52.7059 31.4141 52.7059 27.0175C52.7059 22.6208 51.315 19.0566 49.5994 19.0566C47.8831 19.0566 46.4922 22.6208 46.4922 27.0175C46.4922 31.4141 47.8831 34.9789 49.5994 34.9789Z" fill="#949494" stroke="#949494" stroke-width="7.0206" stroke-miterlimit="10"/>
<path d="M51.144 29.7052C54.9517 27.5069 57.3427 24.5202 56.4849 23.034C55.6271 21.5485 51.8445 22.1265 48.0368 24.3248C44.229 26.5231 41.838 29.5092 42.6958 30.9954C43.5536 32.4809 47.3355 31.9036 51.144 29.7052Z" fill="#949494" stroke="#949494" stroke-width="7.0206" stroke-miterlimit="10"/>
<path d="M56.4924 31.0066C57.3502 29.5211 54.9592 26.5344 51.1508 24.3361C47.343 22.1377 43.5611 21.5604 42.7026 23.0459C41.8448 24.5315 44.2365 27.5182 48.0443 29.7165C51.852 31.9148 55.6346 32.4928 56.4924 31.0066Z" fill="#949494" stroke="#949494" stroke-width="7.0206" stroke-miterlimit="10"/>
</svg>
