<svg width="105" height="60" viewBox="0 0 105 60" fill="none" xmlns="http://www.w3.org/2000/svg">
<path d="M61.6091 60H17.8125V0H61.6091C63.3097 0 64.6875 1.38846 64.6875 3.09983V56.9002C64.6896 58.6115 63.3117 60 61.6091 60Z" fill="#666666"/>
<path d="M36.4746 22.0518C33.8476 22.0518 31.6282 23.717 30.9375 25.9908H42.0118C41.321 23.717 39.1017 22.0518 36.4746 22.0518Z" fill="#F4F4F4"/>
<path d="M51.1084 22.0518C48.669 22.0518 46.6082 23.717 45.9668 25.9908H56.2501C55.6087 23.717 53.5478 22.0518 51.1084 22.0518Z" fill="#F4F4F4"/>
<path d="M43.9893 19.6875C40.4201 19.6875 37.4099 22.3544 36.4746 25.9899H51.504C50.5687 22.3544 47.5585 19.6875 43.9893 19.6875Z" fill="#F4F4F4"/>
<path d="M24.2391 0H22.6328V59.9989H24.2391V0Z" fill="#555555"/>
<path d="M76.8084 13.2178H64.6875V60.0006H76.8084V13.2178Z" fill="#666666"/>
<path d="M76.8084 24.5957H64.6875V39.1365H76.8084V24.5957Z" fill="#949494"/>
<path d="M76.8084 18.2754H64.6875V21.4352H76.8084V18.2754Z" fill="#949494"/>
<path d="M76.8084 50.8809H64.6875V54.0412H76.8084V50.8809Z" fill="#949494"/>
<path d="M88.9295 13.2178H76.8086V60.0006H88.9295V13.2178Z" fill="#666666"/>
<path d="M88.9295 24.5957H76.8086V39.1365H88.9295V24.5957Z" fill="#949494"/>
<path d="M88.9295 18.2754H76.8086V21.4352H88.9295V18.2754Z" fill="#949494"/>
<path d="M88.9295 50.8809H76.8086V54.0412H88.9295V50.8809Z" fill="#949494"/>
<path d="M96.7758 1.875H88.9326V59.9981H96.7758V1.875Z" fill="#666666"/>
<path d="M94.6366 7.54688H91.0723V52.203H94.6366V7.54688Z" fill="#949494"/>
<path d="M104.619 1.875H96.7754V59.9981H104.619V1.875Z" fill="#666666"/>
<path d="M102.479 7.54688H98.9141V52.203H102.479V7.54688Z" fill="#949494"/>
<path d="M17.8125 2.30029L10.1103 0.9375L0 58.6368L7.70218 60L17.8125 2.30029Z" fill="#666666"/>
<path d="M14.7266 7.55982L11.2256 6.94043L3.45801 51.2714L6.95899 51.8905L14.7266 7.55982Z" fill="#949494"/>
</svg>
