<svg width="76" height="69" viewBox="0 0 76 69" fill="none" xmlns="http://www.w3.org/2000/svg">
<path d="M26.2933 48.1113L25.3544 58.6476C25.2322 60.0264 24.7933 61.3583 24.0718 62.5396C23.3502 63.7209 22.3655 64.7196 21.1946 65.4578L20.6003 65.8321L16.6426 68.3161L17.9648 53.4745V53.3408L26.2933 48.1113Z" fill="#E3EEFF"/>
<path opacity="0.1" d="M26.2933 48.1113L25.3544 58.6476C25.2322 60.0264 24.7933 61.3583 24.0718 62.5396C23.3502 63.7209 22.3655 64.7196 21.1946 65.4578L20.6003 65.8321L16.6426 68.3161L17.9648 53.4745V53.3408L26.2933 48.1113Z" fill="#036292"/>
<path d="M24.6068 49.2969L23.665 59.839C23.459 62.1615 22.3545 64.3119 20.5867 65.8321L16.6289 68.3161L17.9512 53.4745L24.6068 49.2969Z" fill="#E3EEFF"/>
<path d="M70.5866 41.4883L68.4859 43.0363L65.1788 45.4787L61.5449 40.5582L66.9527 36.5707C67.1853 36.3972 67.4547 36.2793 67.7401 36.2261C68.1088 36.1511 68.4914 36.1832 68.8425 36.3185C69.1937 36.4538 69.4988 36.6867 69.7219 36.9897L70.9996 38.7249C71.3112 39.1462 71.4427 39.6739 71.3653 40.1921C71.2878 40.7103 71.0077 41.1765 70.5866 41.4883Z" fill="#E3EEFF"/>
<path opacity="0.1" d="M68.4859 43.0427L65.1788 45.4851L61.5449 40.5587L66.9527 36.5712C67.1853 36.3977 67.4547 36.2798 67.7401 36.2266L68.4859 43.0427Z" fill="#036292"/>
<path d="M50.3547 36.1076C43.595 41.0904 36.4787 44.5015 30.9462 47.4936L19.7176 52.7974C17.6377 53.8908 15.0022 54.0542 14.3247 53.1272C13.9682 52.6399 13.9474 51.7604 14.2148 50.7888C14.5309 49.6335 15.1351 48.5774 15.9708 47.7194L24.3529 38.5559C28.8455 34.1525 34.1997 28.3614 40.9594 23.3756C54.5472 13.3534 67.4366 6.80764 73.0494 6.73633C74.2766 6.73633 75.1531 7.00968 75.6196 7.64257C78.2165 11.1487 66.8929 23.8956 50.3547 36.1076Z" fill="#E3EEFF"/>
<path d="M64.9197 24.002L68.2981 54.8618C68.4483 56.2269 68.2372 57.6074 67.686 58.8651C67.1348 60.1229 66.2628 61.2138 65.1574 62.0286C64.8071 62.2865 64.3997 62.456 63.9698 62.5226C63.54 62.5892 63.1004 62.5511 62.6884 62.4113C62.2765 62.2716 61.9044 62.0344 61.6038 61.72C61.3032 61.4055 61.083 61.0231 60.962 60.6053L52.9395 32.8297L64.9197 24.002Z" fill="#E3EEFF"/>
<path opacity="0.1" d="M66.2723 61.0273C65.9354 61.3976 65.5621 61.733 65.1581 62.0286C64.8083 62.2873 64.401 62.4574 63.9711 62.5244C63.5413 62.5914 63.1016 62.5534 62.6896 62.4135C62.2776 62.2737 61.9056 62.0362 61.6054 61.7213C61.3052 61.4064 61.0857 61.0235 60.9656 60.6053L53.2402 33.8904L64.9055 24.002L64.9293 24.2159L68.2839 54.8618C68.4093 55.9736 68.2946 57.0993 67.9476 58.163C67.6006 59.2266 67.0293 60.2034 66.2723 61.0273Z" fill="#036292"/>
<g style="mix-blend-mode:multiply">
<path d="M66.2723 61.0273C65.9354 61.3976 65.5621 61.733 65.1581 62.0286C64.8083 62.2873 64.401 62.4574 63.9711 62.5244C63.5413 62.5914 63.1016 62.5534 62.6896 62.4135C62.2776 62.2737 61.9056 62.0362 61.6054 61.7213C61.3052 61.4064 61.0857 61.0235 60.9656 60.6053L53.2402 33.8904L55.5341 32.1255L64.9055 24.002L64.9293 24.2159L68.2839 54.8618C68.4093 55.9736 68.2946 57.0993 67.9476 58.163C67.6006 59.2266 67.0293 60.2034 66.2723 61.0273Z" fill="#FE5D5D"/>
</g>
<path d="M66.2717 61.0274C66.1566 61.0442 66.0404 61.0522 65.9241 61.0512C65.3363 61.0518 64.7643 60.8603 64.2955 60.5057C63.8267 60.1511 63.4866 59.653 63.3272 59.0872L55.3047 31.3115L64.9138 23.9902L68.2922 54.8501C68.4182 55.9644 68.303 57.0928 67.9544 58.1587C67.6058 59.2246 67.0319 60.203 66.2717 61.0274Z" fill="#E3EEFF"/>
<path d="M43.7448 3.44703L41.6649 5.02478L38.3965 7.50879L42.0898 12.3817L47.4382 8.31996C47.6692 8.14522 47.8581 7.9208 47.9908 7.66329C48.1666 7.33036 48.2438 6.95418 48.2132 6.57893C48.1827 6.20367 48.0458 5.84491 47.8185 5.54476L46.5141 3.83033C46.3577 3.6229 46.162 3.4484 45.938 3.31681C45.7141 3.18523 45.4664 3.09917 45.2091 3.06355C44.9518 3.02794 44.69 3.04348 44.4387 3.10929C44.1874 3.1751 43.9516 3.28987 43.7448 3.44703Z" fill="#E3EEFF"/>
<path opacity="0.1" d="M41.6649 5.02441L38.3965 7.50842L42.0898 12.3813L47.4382 8.31959C47.6692 8.14485 47.8581 7.92044 47.9908 7.66293L41.6649 5.02441Z" fill="#036292"/>
<path opacity="0.1" d="M72.5382 15.7742C68.2298 21.3632 60.2281 28.833 50.3664 36.1067C43.6067 41.0896 36.4904 44.5006 30.9579 47.4927L19.7294 52.7965C17.6495 53.8899 15.0139 54.0534 14.3365 53.1263C13.9799 52.639 13.9591 51.7595 14.2265 50.7879C14.5426 49.6326 15.1468 48.5765 15.9826 47.7186L24.3646 38.5551C28.8572 34.1516 34.2114 28.3606 40.9711 23.3747C50.6546 16.2436 59.9874 10.8537 66.5807 8.32512C69.24 7.303 71.4507 6.74736 73.0671 6.72656C74.2942 6.72656 75.1708 6.99992 75.6373 7.6328C76.6713 9.05308 75.45 11.9798 72.5382 15.7742Z" fill="#036292"/>
<path d="M56.7908 12.9847L28.3021 0.647921C27.0413 0.103006 25.6596 -0.101457 24.295 0.0549672C22.9305 0.211392 21.6309 0.723225 20.5262 1.53931C20.1761 1.79754 19.8936 2.13659 19.7028 2.52758C19.5121 2.91856 19.4187 3.34988 19.4307 3.78475C19.4427 4.21961 19.5596 4.64514 19.7716 5.02504C19.9835 5.40494 20.2842 5.72795 20.648 5.96654L44.8224 21.8214L56.7908 12.9847Z" fill="#E3EEFF"/>
<path opacity="0.1" d="M56.7907 12.9846L47.1726 20.0801L44.8223 21.8123L20.6479 5.96344C20.2841 5.72451 19.9834 5.40121 19.7715 5.02107C19.5596 4.64092 19.4427 4.2152 19.4307 3.78013C19.4187 3.34507 19.5121 2.91356 19.7028 2.52234C19.8935 2.13113 20.1759 1.79179 20.526 1.53323C21.6314 0.718526 22.9309 0.207549 24.2952 0.051158C25.6594 -0.105233 27.0409 0.0984178 28.3019 0.641844L56.7907 12.9846Z" fill="#036292"/>
<g style="mix-blend-mode:multiply">
<path d="M56.7907 12.9846L47.1726 20.0801L44.8223 21.8123L20.6479 5.96344C20.2841 5.72451 19.9834 5.40121 19.7715 5.02107C19.5596 4.64092 19.4427 4.2152 19.4307 3.78013C19.4187 3.34507 19.5121 2.91356 19.7028 2.52234C19.8935 2.13113 20.1759 1.79179 20.526 1.53323C21.6314 0.718526 22.9309 0.207549 24.2952 0.051158C25.6594 -0.105233 27.0409 0.0984178 28.3019 0.641844L56.7907 12.9846Z" fill="#FE5D5D"/>
</g>
<path d="M56.7902 12.9848L47.1721 20.0803L23.372 4.47208C23.0397 4.25427 22.7596 3.96566 22.5519 3.62692C22.3441 3.28818 22.2139 2.90769 22.1705 2.51271C22.127 2.11773 22.1714 1.71802 22.3006 1.34223C22.4297 0.966437 22.6404 0.623854 22.9174 0.33901C24.6923 -0.198923 26.6006 -0.0883467 28.3014 0.650993L56.7902 12.9848Z" fill="#E3EEFF"/>
<path d="M22.1578 42.885L11.8117 40.6654C10.4588 40.3784 9.05795 40.4074 7.71805 40.7501C6.37815 41.0928 5.13536 41.74 4.08637 42.6414L0.00976562 46.1475L14.7147 49.2911L22.1578 42.885Z" fill="#E3EEFF"/>
<path opacity="0.1" d="M22.1569 42.8846L14.702 49.2967L14.2176 49.1927L0 46.156L4.07066 42.6499L4.36779 42.3914C5.40421 41.5778 6.60692 41.0023 7.89065 40.7055C9.17438 40.4087 10.5077 40.3979 11.796 40.674L22.1569 42.8846Z" fill="#036292"/>
<path d="M20.1759 44.0637L14.2333 49.1921L0.015625 46.1555L4.08629 42.6493L4.38341 42.3908C6.10351 41.6476 8.01263 41.4596 9.84466 41.853L20.1759 44.0637Z" fill="#E3EEFF"/>
<path d="M73.0554 6.72656C72.8355 7.91508 72.0927 9.43044 70.9012 11.1835C67.0385 16.9003 58.3921 25.1813 47.4845 33.2335C40.7248 38.2164 33.6115 41.6244 28.0789 44.6195L16.8474 49.9233C16.0223 50.3504 15.1331 50.6404 14.2148 50.782C14.5309 49.6267 15.1352 48.5706 15.9709 47.7126L24.3529 38.5491C28.8455 34.1457 34.1998 28.3546 40.9595 23.3688C50.6429 16.2377 59.9758 10.8478 66.5691 8.31918C69.2284 7.303 71.439 6.74736 73.0554 6.72656Z" fill="#E3EEFF"/>
<g style="mix-blend-mode:multiply">
<path d="M72.5375 15.7742C72.5055 14.1104 71.9353 12.5019 70.9122 11.1894C69.9674 10.0009 68.559 9.02932 66.5801 8.32512C69.2394 7.303 71.4501 6.74736 73.0664 6.72656C74.2936 6.72656 75.1701 6.99992 75.6366 7.6328C76.6706 9.05308 75.4494 11.9798 72.5375 15.7742Z" fill="#FE5D5D"/>
</g>
</svg>
