<svg width="76" height="48" viewBox="0 0 76 48" fill="none" xmlns="http://www.w3.org/2000/svg">
<path opacity="0.58" d="M60.0042 33.2246C60.0042 33.2246 59.3816 36.0662 60.4277 38.7088" stroke="white" stroke-miterlimit="10"/>
<path d="M6.27618 44.1826C6.27618 44.1826 4.76008 43.0391 4.63515 42.4399C4.51022 41.8406 5.56683 41.7792 6.27618 44.1826Z" fill="#58DEBF"/>
<path d="M47.7466 6.88886L39.4414 31.5449L40.8897 32.0328L49.1949 7.37672L47.7466 6.88886Z" fill="#68F2D2"/>
<path d="M38.5887 31.3256C37.3775 25.1299 34.142 20.1941 28.9775 16.658C25.1216 14.0196 21.6088 13.2065 21.5664 13.198L21.9031 11.7158C22.0577 11.7497 25.7378 12.603 29.8309 15.4066C33.619 17.9983 38.4701 22.8177 40.0773 31.0377L38.5887 31.3256Z" fill="#68F2D2"/>
<path d="M55.248 19.1934L59.7138 31.8621" stroke="#68F2D2" stroke-miterlimit="10"/>
<path d="M59.709 31.9033L64.1747 44.5721" stroke="#68F2D2" stroke-miterlimit="10"/>
<path d="M57.9316 18.5488L59.7188 31.8634" stroke="#68F2D2" stroke-miterlimit="10"/>
<path d="M59.7051 31.9014L61.4922 45.216" stroke="#68F2D2" stroke-miterlimit="10"/>
<path d="M69.098 22.2461L59.7324 31.8763" stroke="#68F2D2" stroke-miterlimit="10"/>
<path d="M59.6937 31.8887L50.3281 41.5189" stroke="#68F2D2" stroke-miterlimit="10"/>
<path d="M70.8659 24.3613L59.7344 31.8804" stroke="#68F2D2" stroke-miterlimit="10"/>
<path d="M59.6921 31.8848L48.5605 39.4039" stroke="#68F2D2" stroke-miterlimit="10"/>
<path d="M72.8884 34.5953L59.7305 31.8955" stroke="#68F2D2" stroke-miterlimit="10"/>
<path d="M59.695 31.8697L46.5371 29.1699" stroke="#68F2D2" stroke-miterlimit="10"/>
<path d="M72.0567 37.225L59.7246 31.8975" stroke="#68F2D2" stroke-miterlimit="10"/>
<path d="M59.7013 31.8676L47.3691 26.54" stroke="#68F2D2" stroke-miterlimit="10"/>
<path d="M75.4387 32.2549C75.2899 32.2549 75.1472 32.1958 75.042 32.0906C74.9367 31.9854 74.8776 31.8426 74.8776 31.6938C74.8306 27.731 73.2234 23.9465 70.4045 21.1608C67.5857 18.3752 63.7823 16.813 59.8193 16.813C55.8562 16.813 52.0529 18.3752 49.234 21.1608C46.4151 23.9465 44.8079 27.731 44.7609 31.6938C44.7609 31.8426 44.7018 31.9854 44.5966 32.0906C44.4913 32.1958 44.3486 32.2549 44.1998 32.2549C44.051 32.2549 43.9082 32.1958 43.803 32.0906C43.6978 31.9854 43.6387 31.8426 43.6387 31.6938C43.6874 27.4345 45.4136 23.3662 48.4427 20.3715C51.4719 17.3768 55.5597 15.6973 59.8193 15.6973C64.0788 15.6973 68.1666 17.3768 71.1958 20.3715C74.2249 23.3662 75.9511 27.4345 75.9999 31.6938C76.0001 31.7676 75.9858 31.8407 75.9577 31.9089C75.9296 31.9771 75.8883 32.0391 75.8361 32.0912C75.784 32.1434 75.722 32.1847 75.6538 32.2128C75.5856 32.2409 75.5125 32.2552 75.4387 32.2549Z" fill="#615EF7"/>
<path d="M59.8208 47.3486C56.7636 47.3486 53.775 46.442 51.2331 44.7435C48.6911 43.045 46.7099 40.6309 45.5399 37.8064C44.37 34.9819 44.0639 31.8739 44.6603 28.8755C45.2567 25.877 46.7289 23.1228 48.8907 20.961C51.0525 18.7992 53.8067 17.327 56.8052 16.7306C59.8036 16.1342 62.9116 16.4403 65.7361 17.6102C68.5606 18.7802 70.9747 20.7614 72.6732 23.3034C74.3717 25.8453 75.2782 28.8339 75.2782 31.8911C75.271 35.9884 73.6401 39.9159 70.7428 42.8131C67.8455 45.7104 63.9181 47.3413 59.8208 47.3486ZM59.8208 18.4473C57.1639 18.449 54.5671 19.2384 52.3588 20.7157C50.1505 22.193 48.4298 24.2919 47.4142 26.747C46.3986 29.2021 46.1338 31.9033 46.6531 34.5089C47.1725 37.1145 48.4527 39.5077 50.332 41.3858C52.2113 43.2639 54.6053 44.5427 57.2113 45.0604C59.8172 45.5781 62.5182 45.3115 64.9727 44.2944C67.4271 43.2773 69.5249 41.5552 71.0009 39.346C72.4768 37.1367 73.2645 34.5395 73.2645 31.8826C73.2606 28.3191 71.8427 24.9028 69.3221 22.3838C66.8015 19.8648 63.3843 18.449 59.8208 18.4473Z" fill="#333333"/>
<path d="M10.9902 19.2139L15.4538 31.8826" stroke="#68F2D2" stroke-miterlimit="10"/>
<path d="M15.4492 31.9229L19.915 44.5937" stroke="#68F2D2" stroke-miterlimit="10"/>
<path d="M13.6699 18.5703L15.4571 31.8828" stroke="#68F2D2" stroke-miterlimit="10"/>
<path d="M15.4434 31.9229L17.2326 45.2375" stroke="#68F2D2" stroke-miterlimit="10"/>
<path d="M24.8362 22.2656L15.4707 31.8958" stroke="#68F2D2" stroke-miterlimit="10"/>
<path d="M15.4319 31.9102L6.06641 41.5404" stroke="#68F2D2" stroke-miterlimit="10"/>
<path d="M26.6042 24.3828L15.4727 31.8998" stroke="#68F2D2" stroke-miterlimit="10"/>
<path d="M15.4324 31.9062L4.29883 39.4254" stroke="#68F2D2" stroke-miterlimit="10"/>
<path d="M28.6288 34.6168L15.4688 31.917" stroke="#68F2D2" stroke-miterlimit="10"/>
<path d="M15.4353 31.8913L2.27734 29.1895" stroke="#68F2D2" stroke-miterlimit="10"/>
<path d="M27.7989 37.2455L15.4668 31.918" stroke="#68F2D2" stroke-miterlimit="10"/>
<path d="M15.4395 31.8869L3.10742 26.5615" stroke="#68F2D2" stroke-miterlimit="10"/>
<path d="M15.4575 47.3486C12.4003 47.3486 9.41174 46.442 6.86977 44.7435C4.3278 43.045 2.34659 40.6309 1.17665 37.8064C0.00670623 34.9819 -0.299415 31.8739 0.297015 28.8755C0.893445 25.877 2.36564 23.1228 4.5274 20.961C6.68917 18.7992 9.44343 17.327 12.4419 16.7306C15.4403 16.1342 18.5483 16.4403 21.3728 17.6102C24.1973 18.7802 26.6114 20.7614 28.3099 23.3034C30.0084 25.8453 30.915 28.8339 30.915 31.8911C30.9077 35.9884 29.2768 39.9159 26.3795 42.8131C23.4823 45.7104 19.5548 47.3413 15.4575 47.3486ZM15.4575 18.4473C12.8001 18.4469 10.2024 19.2345 7.99266 20.7105C5.78295 22.1866 4.06059 24.2847 3.04338 26.7397C2.02617 29.1946 1.7598 31.8961 2.27796 34.5024C2.79613 37.1088 4.07555 39.5029 5.95443 41.3821C7.83331 43.2612 10.2272 44.541 12.8335 45.0596C15.4397 45.5782 18.1413 45.3123 20.5964 44.2954C23.0515 43.2786 25.1499 41.5566 26.6263 39.3471C28.1026 37.1376 28.8907 34.5399 28.8907 31.8826C28.8867 28.3209 27.4703 24.9062 24.952 22.3875C22.4337 19.8688 19.0192 18.4518 15.4575 18.4473Z" fill="#333333"/>
<path d="M31.2599 32.4477C31.1111 32.4477 30.9683 32.3886 30.8631 32.2833C30.7579 32.1781 30.6987 32.0354 30.6987 31.8865C30.6943 27.8445 29.0866 23.9693 26.2284 21.1111C23.3703 18.253 19.4951 16.6453 15.453 16.6408H7.86191C7.71309 16.6408 7.57037 16.5817 7.46514 16.4765C7.3599 16.3712 7.30078 16.2285 7.30078 16.0797C7.30078 15.9309 7.3599 15.7881 7.46514 15.6829C7.57037 15.5777 7.71309 15.5186 7.86191 15.5186H15.4573C19.7968 15.5236 23.9571 17.2497 27.0256 20.3182C30.0941 23.3867 31.8202 27.547 31.8252 31.8865C31.8252 31.9606 31.8106 32.0339 31.7821 32.1023C31.7537 32.1706 31.712 32.2327 31.6594 32.2848C31.6068 32.337 31.5445 32.3782 31.4759 32.4062C31.4073 32.4341 31.3339 32.4482 31.2599 32.4477Z" fill="#615EF7"/>
<path d="M38.782 29.4365L38.7363 30.959L59.2313 31.5738L59.2769 30.0514L38.782 29.4365Z" fill="#68F2D2"/>
<path d="M24.6573 1.01317L14.7324 31.668L16.1829 32.1376L26.1077 1.48276L24.6573 1.01317Z" fill="#68F2D2"/>
<path d="M16.9477 32.216C17.1441 31.3864 16.6308 30.5547 15.8013 30.3582C14.9717 30.1618 14.1399 30.6751 13.9435 31.5047C13.7471 32.3343 14.2604 33.1661 15.09 33.3625C15.9196 33.5589 16.7513 33.0456 16.9477 32.216Z" fill="#333333"/>
<path d="M59.1094 32.1573C55.0862 21.769 47.6497 15.2473 37.0412 12.7698C29.0986 10.9171 22.2867 12.1473 22.219 12.16L21.9395 10.6608C22.2295 10.6079 29.1388 9.36071 37.3969 11.2961C42.2671 12.431 46.5656 14.4405 50.197 17.2716C54.7368 20.8077 58.2158 25.6334 60.5387 31.6131L59.1094 32.1573Z" fill="#68F2D2"/>
<path d="M39.082 35.1032V27.2559L60.0724 30.4003V33.3436L39.082 35.1032ZM39.5902 27.8445V34.5526L59.5664 32.8756V30.8386L39.5902 27.8445Z" fill="#333333"/>
<path d="M40.8537 34.8063C42.8539 33.9667 43.7948 31.6646 42.9552 29.6643C42.1156 27.6641 39.8135 26.7232 37.8132 27.5628C35.8129 28.4024 34.872 30.7045 35.7116 32.7048C36.5512 34.705 38.8534 35.6459 40.8537 34.8063Z" fill="#333333"/>
<path d="M39.337 32.6555C40.151 32.6555 40.8108 31.9957 40.8108 31.1818C40.8108 30.3678 40.151 29.708 39.337 29.708C38.5231 29.708 37.8633 30.3678 37.8633 31.1818C37.8633 31.9957 38.5231 32.6555 39.337 32.6555Z" fill="#68F2D2"/>
<path d="M61.311 32.216C61.5074 31.3864 60.9941 30.5547 60.1645 30.3583C59.3349 30.1618 58.5032 30.6751 58.3068 31.5047C58.1104 32.3343 58.6237 33.1661 59.4533 33.3625C60.2829 33.5589 61.1146 33.0456 61.311 32.216Z" fill="#333333"/>
<path d="M27.0952 0.0810547H21.0625V1.60563H27.0952V0.0810547Z" fill="#68F2D2"/>
<path d="M20.8126 0H17.6618C17.4279 0 17.2383 0.189604 17.2383 0.423492V1.25989C17.2383 1.49378 17.4279 1.68338 17.6618 1.68338H20.8126C21.0464 1.68338 21.2361 1.49378 21.2361 1.25989V0.423492C21.2361 0.189604 21.0464 0 20.8126 0Z" fill="#58DEBF"/>
<path d="M21.238 0.301977V1.37765C21.238 1.41759 21.2301 1.45714 21.2148 1.49402C21.1994 1.53089 21.1769 1.56437 21.1486 1.59251C21.1202 1.62066 21.0866 1.64292 21.0496 1.65801C21.0126 1.6731 20.973 1.68073 20.9331 1.68045H17.5452C17.5052 1.68073 17.4656 1.6731 17.4286 1.65801C17.3917 1.64292 17.358 1.62066 17.3297 1.59251C17.3013 1.56437 17.2788 1.53089 17.2635 1.49402C17.2481 1.45714 17.2402 1.41759 17.2402 1.37765V0.301977C17.2398 0.237075 17.2602 0.173738 17.2982 0.121183C17.3363 0.0686281 17.3902 0.0295958 17.452 0.00976562C17.3271 0.268096 17.3652 0.570892 17.5663 0.988032C17.8226 1.52799 20.6218 0.314681 20.6218 0.314681L21.1872 0.145286C21.2181 0.191913 21.2357 0.246092 21.238 0.301977Z" fill="#58DEBF"/>
<path d="M29.4792 0H27.2516C27.0177 0 26.8281 0.189604 26.8281 0.423492V1.25989C26.8281 1.49378 27.0177 1.68338 27.2516 1.68338H29.4792C29.7131 1.68338 29.9027 1.49378 29.9027 1.25989V0.423492C29.9027 0.189604 29.7131 0 29.4792 0Z" fill="#58DEBF"/>
<path d="M47.3951 7.42365H52.8052C54.5225 7.42365 56.3139 5.04785 51.0753 5.04785C46.4783 5.04785 43.7213 7.01709 43.8251 6.9811C43.9288 6.9451 47.3951 7.42365 47.3951 7.42365Z" fill="#333333"/>
<path d="M33.2909 37.953C33.2273 37.9527 33.166 37.9285 33.1194 37.8852C33.0948 37.8628 33.0748 37.8357 33.0608 37.8055C33.0467 37.7753 33.0387 37.7427 33.0373 37.7094C33.0359 37.6761 33.0412 37.6429 33.0527 37.6116C33.0643 37.5804 33.0819 37.5517 33.1046 37.5274L39.1499 31.0014C39.1723 30.9757 39.1995 30.9548 39.2301 30.9398C39.2607 30.9249 39.294 30.9163 39.3279 30.9144C39.3619 30.9126 39.3959 30.9176 39.4279 30.9292C39.4599 30.9407 39.4893 30.9586 39.5142 30.9817C39.5392 31.0049 39.5593 31.0328 39.5733 31.0638C39.5872 31.0948 39.5948 31.1283 39.5956 31.1623C39.5964 31.1964 39.5903 31.2302 39.5778 31.2618C39.5652 31.2935 39.5465 31.3223 39.5226 31.3465L33.4772 37.8725C33.4534 37.8981 33.4246 37.9185 33.3925 37.9323C33.3604 37.9462 33.3258 37.9532 33.2909 37.953Z" fill="#666666"/>
<path d="M35.1356 37.7061H30.9219V38.4895H35.1356V37.7061Z" fill="#68F2D2"/>
</svg>
