<svg width="76" height="70" viewBox="0 0 76 70" fill="none" xmlns="http://www.w3.org/2000/svg">
<path d="M28.9098 56.9346C28.6415 56.9346 28.3843 56.8278 28.1946 56.6378C28.005 56.4477 27.8984 56.1899 27.8984 55.921V2.6054C27.8984 2.33658 28.005 2.07876 28.1946 1.88867C28.3843 1.69859 28.6415 1.5918 28.9098 1.5918V1.5918C29.178 1.5918 29.4352 1.69859 29.6249 1.88867C29.8145 2.07876 29.9211 2.33658 29.9211 2.6054V55.921C29.9211 56.1899 29.8145 56.4477 29.6249 56.6378C29.4352 56.8278 29.178 56.9346 28.9098 56.9346V56.9346Z" fill="#666666"/>
<path d="M30.371 3.18848C30.371 3.18848 34.1776 17.1073 44.0056 27.4724C52.0556 35.9664 57.9314 40.2256 68.0223 42.5853C28.8986 42.5893 30.1688 42.4738 30.1688 42.4738L30.371 3.18848Z" fill="#E3EEFF"/>
<path d="M25.5449 55.2459L29.9805 49.6041C30.371 49.1076 30.8687 48.7062 31.4363 48.4302C32.0038 48.1542 32.6264 48.0108 33.2572 48.0107H58.8192C59.4252 48.0106 60.0241 48.143 60.5739 48.3985C61.1237 48.6541 61.6114 49.0268 62.0028 49.4906L68.2972 56.9426H27.3511L25.5449 55.2459Z" fill="#CCCCCC"/>
<path d="M25.5449 55.2373L26.3782 56.2225L27.3511 56.9341H68.2972L65.3967 53.5H26.9102L25.5449 55.2373Z" fill="#A2C5FB"/>
<path d="M65.3988 53.8466H26.9123C26.8205 53.8466 26.7326 53.8101 26.6677 53.7451C26.6028 53.6801 26.5664 53.5919 26.5664 53.5C26.5664 53.408 26.6028 53.3199 26.6677 53.2549C26.7326 53.1898 26.8205 53.1533 26.9123 53.1533H65.3988C65.4906 53.1533 65.5785 53.1898 65.6434 53.2549C65.7083 53.3199 65.7447 53.408 65.7447 53.5C65.7447 53.5919 65.7083 53.6801 65.6434 53.7451C65.5785 53.8101 65.4906 53.8466 65.3988 53.8466V53.8466Z" fill="#EB4844"/>
<path d="M37.0941 55.4977C38.763 55.4977 40.1159 54.1418 40.1159 52.4691C40.1159 50.7964 38.763 49.4404 37.0941 49.4404C35.4252 49.4404 34.0723 50.7964 34.0723 52.4691C34.0723 54.1418 35.4252 55.4977 37.0941 55.4977Z" fill="#333333"/>
<path d="M37.093 54.7814C38.3675 54.7814 39.4008 53.7458 39.4008 52.4683C39.4008 51.1909 38.3675 50.1553 37.093 50.1553C35.8184 50.1553 34.7852 51.1909 34.7852 52.4683C34.7852 53.7458 35.8184 54.7814 37.093 54.7814Z" fill="#E3EEFF"/>
<path d="M46.9222 55.4977C48.5911 55.4977 49.944 54.1418 49.944 52.4691C49.944 50.7964 48.5911 49.4404 46.9222 49.4404C45.2533 49.4404 43.9004 50.7964 43.9004 52.4691C43.9004 54.1418 45.2533 55.4977 46.9222 55.4977Z" fill="#333333"/>
<path d="M46.9211 54.7814C48.1957 54.7814 49.2289 53.7458 49.2289 52.4683C49.2289 51.1909 48.1957 50.1553 46.9211 50.1553C45.6465 50.1553 44.6133 51.1909 44.6133 52.4683C44.6133 53.7458 45.6465 54.7814 46.9211 54.7814Z" fill="#E3EEFF"/>
<path d="M56.8538 55.4977C58.5227 55.4977 59.8756 54.1418 59.8756 52.4691C59.8756 50.7964 58.5227 49.4404 56.8538 49.4404C55.1849 49.4404 53.832 50.7964 53.832 52.4691C53.832 54.1418 55.1849 55.4977 56.8538 55.4977Z" fill="#333333"/>
<path d="M56.8547 54.7814C58.1293 54.7814 59.1625 53.7458 59.1625 52.4683C59.1625 51.1909 58.1293 50.1553 56.8547 50.1553C55.5801 50.1553 54.5469 51.1909 54.5469 52.4683C54.5469 53.7458 55.5801 54.7814 56.8547 54.7814Z" fill="#E3EEFF"/>
<path d="M73.8982 56.739C73.8796 56.7392 73.8613 56.7349 73.8447 56.7264C73.8282 56.7179 73.8139 56.7056 73.8031 56.6904L65.3081 44.6447C65.2989 44.6324 65.2922 44.6184 65.2885 44.6035C65.2848 44.5886 65.2842 44.5731 65.2866 44.558C65.2891 44.5428 65.2946 44.5283 65.3028 44.5153C65.311 44.5024 65.3218 44.4912 65.3344 44.4825C65.3597 44.4651 65.3908 44.4583 65.4211 44.4636C65.4514 44.4689 65.4783 44.4859 65.4962 44.5109L73.4532 55.7903L69.1046 44.5676C69.0963 44.5398 69.0987 44.5098 69.1115 44.4837C69.1242 44.4576 69.1464 44.4372 69.1734 44.4267C69.2005 44.4162 69.2305 44.4164 69.2575 44.4271C69.2845 44.4378 69.3064 44.4583 69.319 44.4845L74.0074 56.5809C74.0177 56.6072 74.0181 56.6364 74.0084 56.6629C73.9987 56.6894 73.9796 56.7114 73.9548 56.7248C73.9376 56.7346 73.918 56.7395 73.8982 56.739V56.739Z" fill="#CCCCCC"/>
<path d="M30.1327 38.2227H27.6044C27.276 38.2227 27.0098 38.4895 27.0098 38.8187V39.2423C27.0098 39.5715 27.276 39.8383 27.6044 39.8383H30.1327C30.4611 39.8383 30.7274 39.5715 30.7274 39.2423V38.8187C30.7274 38.4895 30.4611 38.2227 30.1327 38.2227Z" fill="#666666"/>
<path d="M30.1327 19.3193H27.6044C27.276 19.3193 27.0098 19.5862 27.0098 19.9153V20.339C27.0098 20.6682 27.276 20.935 27.6044 20.935H30.1327C30.4611 20.935 30.7274 20.6682 30.7274 20.339V19.9153C30.7274 19.5862 30.4611 19.3193 30.1327 19.3193Z" fill="#666666"/>
<path d="M68.9491 43.1383H68.8985C64.6137 42.1827 60.4926 40.6001 56.6677 38.4413C51.0671 35.2809 47.6387 31.7373 45.7981 29.8358C37.2667 21.0296 32.5984 10.1597 30.1713 2.5921C30.162 2.56322 30.1585 2.53278 30.1609 2.50253C30.1633 2.47228 30.1717 2.44281 30.1855 2.41579C30.1993 2.38878 30.2183 2.36476 30.2414 2.34509C30.2644 2.32543 30.2911 2.31052 30.32 2.3012C30.3488 2.29188 30.3791 2.28835 30.4093 2.29079C30.4395 2.29324 30.4689 2.30162 30.4959 2.31545C30.5228 2.32929 30.5468 2.34831 30.5664 2.37143C30.586 2.39455 30.6009 2.42131 30.6102 2.4502C33.0191 9.97115 37.6631 20.7721 46.1217 29.5135C47.9421 31.3988 51.3441 34.9099 56.8861 38.0379C60.677 40.1717 64.7606 41.7346 69.0057 42.6761C69.0605 42.689 69.1087 42.7214 69.1413 42.7674C69.1739 42.8133 69.1886 42.8696 69.1826 42.9257C69.1766 42.9818 69.1504 43.0337 69.1089 43.0718C69.0674 43.1098 69.0134 43.1313 68.9572 43.1323L68.9491 43.1383Z" fill="#CCCCCC"/>
<path d="M28.5547 42.9083H68.9465C69.137 42.9083 69.3196 42.9841 69.4543 43.1191C69.5889 43.254 69.6646 43.4371 69.6646 43.6279V43.857C69.6646 44.0479 69.5889 44.2309 69.4543 44.3659C69.3196 44.5009 69.137 44.5767 68.9465 44.5767H28.5547V42.9062V42.9083Z" fill="#666666"/>
<path d="M28.9101 3.18677C29.7881 3.18677 30.4999 2.47339 30.4999 1.59339C30.4999 0.713384 29.7881 0 28.9101 0C28.0321 0 27.3203 0.713384 27.3203 1.59339C27.3203 2.47339 28.0321 3.18677 28.9101 3.18677Z" fill="#666666"/>
<path d="M27.3518 61.7548V56.9341C26.1178 55.9844 25.063 54.8214 24.237 53.5H0.345703C0.345703 53.5 0.378065 58.5437 3.40796 62.7785C6.13649 66.5978 11.7634 69.6386 13.8306 69.6386H65.9961C66.9071 69.6388 67.8074 69.4419 68.6354 69.0612C69.4635 68.6806 70.1997 68.1252 70.7938 67.433L75.6785 61.7568L27.3518 61.7548Z" fill="#CCCCCC"/>
<path d="M74.7217 56.9341H27.3518L24.237 53.5H0.345703C0.345703 53.5 0.376042 57.7734 2.74252 61.7548H75.6785V57.893C75.6785 57.6387 75.5777 57.3948 75.3982 57.2149C75.2188 57.0351 74.9755 56.9341 74.7217 56.9341V56.9341Z" fill="#FE5D5D"/>
<path d="M10.3311 55.6689H4.16615C3.81874 55.6689 3.53711 55.9512 3.53711 56.2994V56.3704C3.53711 56.7186 3.81874 57.0008 4.16615 57.0008H10.3311C10.6785 57.0008 10.9601 56.7186 10.9601 56.3704V56.2994C10.9601 55.9512 10.6785 55.6689 10.3311 55.6689Z" fill="#E3EEFF"/>
<path d="M20.8878 55.6689H14.7228C14.3754 55.6689 14.0938 55.9512 14.0938 56.2994V56.3704C14.0938 56.7186 14.3754 57.0008 14.7228 57.0008H20.8878C21.2352 57.0008 21.5168 56.7186 21.5168 56.3704V56.2994C21.5168 55.9512 21.2352 55.6689 20.8878 55.6689Z" fill="#E3EEFF"/>
<path d="M75.6792 62.1035H2.74326C2.65584 62.0968 2.57416 62.0573 2.51457 61.9928C2.45498 61.9284 2.42188 61.8437 2.42188 61.7559C2.42188 61.668 2.45498 61.5834 2.51457 61.5189C2.57416 61.4544 2.65584 61.4149 2.74326 61.4082H75.6792C75.7666 61.4149 75.8483 61.4544 75.9079 61.5189C75.9675 61.5834 76.0006 61.668 76.0006 61.7559C76.0006 61.8437 75.9675 61.9284 75.9079 61.9928C75.8483 62.0573 75.7666 62.0968 75.6792 62.1035Z" fill="#333333"/>
<path d="M69.324 60.9462C69.7284 60.9462 70.0562 60.6177 70.0562 60.2124C70.0562 59.8071 69.7284 59.4785 69.324 59.4785C68.9196 59.4785 68.5918 59.8071 68.5918 60.2124C68.5918 60.6177 68.9196 60.9462 69.324 60.9462Z" fill="#333333"/>
<path d="M72.4995 60.2124C72.4995 60.3575 72.4566 60.4994 72.3761 60.6201C72.2957 60.7408 72.1813 60.8348 72.0475 60.8904C71.9138 60.9459 71.7665 60.9604 71.6245 60.9321C71.4825 60.9038 71.352 60.8339 71.2496 60.7313C71.1472 60.6287 71.0775 60.4979 71.0492 60.3555C71.021 60.2132 71.0355 60.0656 71.0909 59.9315C71.1463 59.7974 71.2402 59.6828 71.3606 59.6022C71.481 59.5216 71.6225 59.4785 71.7674 59.4785C71.9615 59.4785 72.1478 59.5558 72.2851 59.6935C72.4224 59.8311 72.4995 60.0177 72.4995 60.2124Z" fill="#333333"/>
<path d="M74.1853 60.9462C74.5897 60.9462 74.9175 60.6177 74.9175 60.2124C74.9175 59.8071 74.5897 59.4785 74.1853 59.4785C73.7809 59.4785 73.4531 59.8071 73.4531 60.2124C73.4531 60.6177 73.7809 60.9462 74.1853 60.9462Z" fill="#333333"/>
<path d="M74.7219 57.2726H27.352C27.3037 57.2726 27.2558 57.2625 27.2116 57.243C27.1674 57.2234 27.1277 57.1949 27.0951 57.1591L24.0834 53.8466H0.345871C0.25414 53.8466 0.166167 53.8101 0.101304 53.7451C0.0364411 53.6801 0 53.5919 0 53.5C0 53.408 0.0364411 53.3199 0.101304 53.2549C0.166167 53.1898 0.25414 53.1533 0.345871 53.1533H24.2371C24.2852 53.1531 24.3328 53.1631 24.3767 53.1827C24.4207 53.2022 24.4599 53.2309 24.492 53.2668L27.5057 56.5874H74.7219C74.8136 56.5874 74.9016 56.6239 74.9665 56.689C75.0314 56.754 75.0678 56.8421 75.0678 56.9341C75.0678 57.026 75.0314 57.1142 74.9665 57.1792C74.9016 57.2442 74.8136 57.2807 74.7219 57.2807V57.2726Z" fill="#EB4844"/>
</svg>
