<svg width="76" height="35" viewBox="0 0 76 35" fill="none" xmlns="http://www.w3.org/2000/svg">
<path d="M75.9561 21.6055C75.8365 19.2269 75.0714 16.3127 74.7117 15.1559C74.3519 13.9992 73.8976 12.489 73.0352 11.6375C72.6418 11.2521 72.1857 10.9364 71.6864 10.7039C70.8814 8.49482 69.5688 6.50573 67.8541 4.8969C66.8857 4.01223 65.8085 3.25459 64.6484 2.6423C61.4883 0.983042 58.8844 1.14459 49.912 1C45.4726 1 40.6084 1.05712 36.8787 1.53018C35.9538 1.64141 35.041 1.8368 34.1516 2.11391C33.4347 2.34397 32.7337 2.62066 32.0529 2.9422C30.8911 3.47531 29.7654 4.08385 28.683 4.76391C26.8467 5.91798 22.9698 8.63224 18.0359 12.4167C18.0359 12.4167 11.6666 13.2584 9.44561 13.9581C7.79593 14.4776 3.88239 15.9217 2.1122 18.5825C1.6916 19.2314 1.34488 19.9254 1.07847 20.6514C0.922249 21.0977 0.683897 21.901 0.560707 23.9065C0.481087 25.221 0.481087 26.539 0.560707 27.8534C0.560707 27.8579 0.560707 27.8615 0.555351 27.8624C0.499111 27.8775 0.0420554 28.0123 0.0134895 28.4693C-0.0168619 28.9557 0.0134895 30.1732 0.0134895 30.1732C0.0134895 30.1732 0.066163 30.4168 0.15811 30.4472C0.250056 30.4775 2.67548 30.8426 3.19324 30.8497C3.57531 30.8551 5.97842 30.9899 7.21033 31.0595C6.68056 29.9204 6.44691 28.6661 6.53103 27.4127C6.61515 26.1593 7.01432 24.9474 7.69154 23.8894C8.36876 22.8313 9.30213 21.9612 10.4052 21.3598C11.5082 20.7584 12.7452 20.4451 14.0016 20.4489C15.258 20.4527 16.4931 20.7735 17.5924 21.3816C18.6918 21.9897 19.6199 22.8655 20.2906 23.9276C20.9614 24.9898 21.3532 26.2041 21.4297 27.458C21.5062 28.7118 21.265 29.9647 20.7283 31.1005H57.3052C57.3052 31.1005 57.7676 31.08 58.5264 31.0398C58.0277 29.9613 57.7937 28.7793 57.8439 27.5922C57.8941 26.405 58.227 25.247 58.815 24.2144C59.403 23.1818 60.229 22.3044 61.2244 21.6553C62.2198 21.0062 63.3557 20.604 64.5379 20.4823C65.72 20.3606 66.9142 20.5227 68.021 20.9554C69.1278 21.388 70.1153 22.0786 70.9015 22.9697C71.6876 23.8608 72.2496 24.9266 72.5408 26.0786C72.8319 27.2306 72.8438 28.4355 72.5755 29.593C75.075 28.8361 75.641 28.6817 75.8445 26.8466C76.0579 24.9357 76.0052 22.5766 75.9561 21.6055Z" fill="#FE5D5D"/>
<g style="mix-blend-mode:multiply">
<path d="M46.85 1.88672C41.2618 1.97597 39.139 2.24374 37.9607 2.4169C36.3315 2.65967 35.2924 2.9078 34.2114 3.29428C32.7572 3.81464 31.7395 4.40283 30.8709 4.91427C27.568 6.85647 25.2399 8.37738 23.2884 10.5088C22.7618 11.0845 22.5207 11.4076 22.2654 11.9146C21.6236 13.1856 21.6789 14.8315 21.6789 14.8315C21.7519 16.7289 22.0721 18.6087 22.6314 20.4233C23.2126 22.1522 23.8321 24.6728 23.9615 28.1136C23.971 28.3767 24.082 28.6259 24.2712 28.8089C24.4604 28.992 24.7132 29.0946 24.9765 29.0954H26.4432L46.592 29.0427C46.8611 29.0418 47.1188 28.9343 47.3087 28.7437C47.4986 28.5531 47.6052 28.2951 47.6052 28.0261V2.67752C47.608 2.57592 47.5906 2.47478 47.554 2.37994C47.5175 2.28509 47.4625 2.19841 47.3923 2.1249C47.3221 2.05139 47.238 1.9925 47.145 1.95162C47.0519 1.91074 46.9517 1.88868 46.85 1.88672V1.88672Z" stroke="#F2F2F2" stroke-width="2" stroke-miterlimit="10"/>
</g>
<g style="mix-blend-mode:multiply">
<path d="M56.1422 28.0484C56.1422 25.5916 57.1181 23.2354 58.8552 21.4979C60.5923 19.7603 62.9485 18.7837 65.4056 18.7828C65.4351 18.7828 65.4637 18.7828 65.4949 18.7828C65.7511 16.8111 66.2501 13.7238 66.9107 13.2222C67.1428 12.9392 67.6463 12.7232 68.3453 12.1082C68.921 11.6013 69.3085 11.2603 69.4915 10.7694C69.8012 9.93844 69.3745 9.08873 68.8666 8.11763C68.1797 6.82122 67.2182 5.69024 66.0493 4.80357C65.3016 4.22391 64.4859 3.73773 63.6203 3.35584C63.4935 3.29961 63.1248 3.13895 62.6258 2.96937C61.4367 2.56415 60.2281 2.34993 57.9999 2.19552C56.3484 2.08128 56.701 2.17767 55.2924 2.07146C54.139 1.9822 51.5993 1.90723 48.7686 1.90723C48.2919 1.90723 47.9795 2.26425 47.9947 2.6061C48.1152 5.37927 48.0714 8.92004 48.0652 11.695V28.0288C48.0664 28.2978 48.1741 28.5553 48.3649 28.745C48.5556 28.9348 48.8138 29.0412 49.0829 29.0409L56.1985 29.0597C56.1613 28.7238 56.1425 28.3863 56.1422 28.0484Z" stroke="#F2F2F2" stroke-width="2" stroke-miterlimit="10"/>
</g>
<path d="M68.044 8.41544C67.4757 7.55642 66.8075 6.76784 66.0533 6.06623C65.1864 5.27453 64.2219 4.59666 63.1833 4.04906C60.3553 2.56384 58.0245 2.71022 49.993 2.57812H49.4574C49.2585 2.58048 49.0686 2.66137 48.9292 2.80317C48.7897 2.94496 48.7119 3.13614 48.7129 3.33501V11.1511C48.713 11.2522 48.7333 11.3522 48.7728 11.4453C48.8122 11.5383 48.87 11.6225 48.9426 11.6928C49.0151 11.7632 49.1011 11.8182 49.1954 11.8547C49.2897 11.8912 49.3903 11.9084 49.4913 11.9053L66.5309 11.3609C66.8684 11.3496 67.1968 11.2483 67.482 11.0676C67.7672 10.8868 67.999 10.6331 68.1533 10.3328C68.3076 10.0325 68.3788 9.69635 68.3596 9.35925C68.3404 9.02216 68.2314 8.69631 68.044 8.41544V8.41544Z" fill="#E3EEFF"/>
<path d="M46.7198 3.27561C46.7196 3.18624 46.7016 3.09781 46.6669 3.01544C46.6322 2.93307 46.5815 2.85842 46.5177 2.79581C46.4539 2.7332 46.3784 2.68388 46.2953 2.65071C46.2123 2.61755 46.1236 2.60121 46.0342 2.60262C40.9807 2.67671 39.0614 2.90342 38 3.0489C36.5271 3.25508 35.5898 3.46662 34.6078 3.79419C33.2929 4.236 32.3761 4.73583 31.587 5.17051C28.6018 6.81995 26.4987 8.11594 24.7312 9.92158C24.1063 10.5589 23.5126 11.2684 23.7198 11.8763C23.8706 12.3226 24.3946 12.543 24.7428 12.6474C24.8095 12.6664 24.8788 12.6749 24.9481 12.6724L46.0681 11.9977C46.2428 11.9923 46.4086 11.9192 46.5302 11.7937C46.6519 11.6682 46.7199 11.5003 46.7198 11.3256V3.27561Z" fill="#E3EEFF"/>
<path d="M12.5028 13.7361C10.4928 13.8622 8.52701 14.3808 6.71637 15.2624C6.71637 15.2624 3.90531 16.6431 2.89032 18.721C2.78588 18.9352 2.51004 19.5011 2.73856 19.7921C2.85818 19.9438 3.06886 19.9626 3.40183 19.9652C4.41681 19.9733 5.11311 19.9786 6.03972 19.5788C6.34752 19.4429 6.64319 19.2811 6.92348 19.095C8.3857 18.1471 8.46425 17.4804 9.37479 16.8234C10.9673 15.6747 12.3582 16.5369 13.1928 15.3248C13.2767 15.2044 13.7213 14.5599 13.4606 14.1145C13.2232 13.7191 12.5858 13.7334 12.5028 13.7361Z" fill="#C1C1C1"/>
<path d="M13.9013 34.8292C17.6458 34.8292 20.6811 31.7934 20.681 28.0484C20.6809 24.3035 17.6454 21.2676 13.901 21.2676C10.1565 21.2676 7.12118 24.3035 7.12129 28.0484C7.1214 31.7934 10.1569 34.8292 13.9013 34.8292Z" fill="#333333"/>
<g style="mix-blend-mode:multiply">
<path d="M13.905 31.0258C15.548 31.0258 16.8798 29.6937 16.8797 28.0505C16.8796 26.4073 15.5476 25.0752 13.9046 25.0752C12.2616 25.0752 10.9298 26.4073 10.9299 28.0505C10.93 29.6937 12.262 31.0258 13.905 31.0258Z" fill="#CCCCCC"/>
</g>
<path d="M65.0792 34.8302C68.8239 34.8302 71.8591 31.7946 71.8586 28.0499C71.858 24.3052 68.8219 21.2695 65.0772 21.2695C61.3325 21.2695 58.2973 24.3052 58.2979 28.0499C58.2984 31.7946 61.3345 34.8302 65.0792 34.8302Z" fill="#333333"/>
<g style="mix-blend-mode:multiply">
<path d="M65.0795 31.0235C66.7226 31.0235 68.0544 29.6915 68.0542 28.0483C68.0539 26.4052 66.7217 25.0732 65.0786 25.0732C63.4355 25.0732 62.1037 26.4052 62.104 28.0483C62.1042 29.6915 63.4364 31.0235 65.0795 31.0235Z" fill="#CCCCCC"/>
</g>
<g style="mix-blend-mode:multiply">
<path d="M65.4053 19.6113C64.0344 19.6115 62.6842 19.9457 61.4715 20.5849C60.2588 21.2241 59.2202 22.1491 58.4454 23.2799C57.6707 24.4107 57.1832 25.7132 57.0251 27.0748C56.867 28.4363 57.043 29.8159 57.538 31.0941L58.5262 31.0441C58.0275 29.9655 57.7935 28.7835 57.8437 27.5964C57.8939 26.4092 58.2269 25.2512 58.8148 24.2186C59.4028 23.186 60.2288 22.3087 61.2242 21.6595C62.2196 21.0104 63.3556 20.6083 64.5377 20.4865C65.7199 20.3648 66.914 20.527 68.0208 20.9596C69.1276 21.3922 70.1152 22.0828 70.9013 22.9739C71.6874 23.865 72.2494 24.9308 72.5406 26.0828C72.8318 27.2348 72.8437 28.4397 72.5753 29.5972C73.0342 29.4589 73.4261 29.3402 73.7635 29.2286C73.8183 28.8389 73.846 28.4458 73.8465 28.0522C73.8471 26.9437 73.6292 25.8458 73.2052 24.8215C72.7812 23.7972 72.1594 22.8665 71.3755 22.0826C70.5915 21.2987 69.6608 20.677 68.6364 20.2529C67.6119 19.8289 66.514 19.6109 65.4053 19.6113Z" fill="#E6E6E6"/>
</g>
<path d="M46.0915 16.0045H42.7636C42.5978 16.0045 42.4389 15.9386 42.3217 15.8215C42.2045 15.7043 42.1387 15.5454 42.1387 15.3797V15.3797C42.1387 15.214 42.2045 15.0551 42.3217 14.9379C42.4389 14.8207 42.5978 14.7549 42.7636 14.7549H46.0915C46.2572 14.7549 46.4161 14.8207 46.5333 14.9379C46.6505 15.0551 46.7164 15.214 46.7164 15.3797V15.3797C46.7164 15.5454 46.6505 15.7043 46.5333 15.8215C46.4161 15.9386 46.2572 16.0045 46.0915 16.0045V16.0045Z" fill="#EB4844"/>
<g style="mix-blend-mode:multiply">
<path d="M13.9086 19.4463C12.5264 19.4467 11.1646 19.7799 9.93846 20.4179C8.71231 21.0558 7.65788 21.9796 6.86434 23.1111C6.07081 24.2427 5.56153 25.5487 5.37958 26.9187C5.19763 28.2886 5.34837 29.6823 5.81904 30.9817L7.21788 31.0602C6.68834 29.9213 6.45486 28.6672 6.53907 27.414C6.62328 26.1609 7.02246 24.9492 7.69962 23.8914C8.37679 22.8335 9.31003 21.9637 10.4129 21.3624C11.5158 20.7611 12.7526 20.4479 14.0087 20.4517C15.2649 20.4555 16.4997 20.7762 17.5989 21.3842C18.6981 21.9922 19.626 22.8677 20.2968 23.9296C20.9675 24.9916 21.3593 26.2056 21.4359 27.4593C21.5125 28.7129 21.2714 29.9656 20.7349 31.1013H21.9535C22.4472 29.7989 22.6173 28.3962 22.4493 27.0136C22.2813 25.6311 21.7802 24.3099 20.989 23.1636C20.1978 22.0173 19.1401 21.0802 17.9068 20.4327C16.6736 19.7853 15.3015 19.4467 13.9086 19.4463V19.4463Z" fill="#E6E6E6"/>
</g>
<path d="M7.18206 17.1827C7.18199 16.8525 7.11286 16.526 6.97912 16.2241C6.84537 15.9222 6.64995 15.6516 6.40542 15.4297C5.66003 15.8474 3.76664 17.0274 2.93555 18.6429C3.23948 19.0332 3.65777 19.3187 4.13196 19.4597C4.60615 19.6007 5.11255 19.59 5.58036 19.4291C6.04817 19.2682 6.45402 18.9652 6.74119 18.5625C7.02836 18.1597 7.1825 17.6773 7.18206 17.1827V17.1827Z" fill="#68F2D2"/>
<path d="M64.3211 16.0045H60.994C60.8283 16.0045 60.6694 15.9386 60.5522 15.8215C60.435 15.7043 60.3691 15.5454 60.3691 15.3797V15.3797C60.3691 15.214 60.435 15.0551 60.5522 14.9379C60.6694 14.8207 60.8283 14.7549 60.994 14.7549H64.3211C64.4035 14.7543 64.4852 14.77 64.5616 14.8012C64.6379 14.8323 64.7073 14.8782 64.7658 14.9363C64.8243 14.9944 64.8707 15.0635 64.9024 15.1396C64.9341 15.2157 64.9504 15.2973 64.9504 15.3797V15.3797C64.9504 15.4621 64.9341 15.5437 64.9024 15.6198C64.8707 15.6959 64.8243 15.765 64.7658 15.8231C64.7073 15.8811 64.6379 15.9271 64.5616 15.9582C64.4852 15.9893 64.4035 16.0051 64.3211 16.0045V16.0045Z" fill="#EB4844"/>
<path d="M8.68723 16.4415C9.00323 16.4432 9.31588 16.3767 9.60384 16.2466C9.89181 16.1165 10.1483 15.9258 10.3559 15.6876C10.5635 15.4494 10.7173 15.1692 10.8067 14.8662C10.8962 14.5631 10.9192 14.2444 10.8743 13.9316C9.43655 14.1722 8.04093 14.6186 6.73047 15.2571C6.91749 15.6142 7.19869 15.9134 7.54362 16.1222C7.88854 16.331 8.28403 16.4414 8.68723 16.4415Z" fill="#E3EEFF"/>
</svg>
