<svg width="55" height="76" viewBox="0 0 55 76" fill="none" xmlns="http://www.w3.org/2000/svg">
<path d="M17.8105 54.167L20.6877 65.7862" stroke="#666666" stroke-width="2" stroke-miterlimit="10"/>
<path d="M36.9689 54.167L34.0918 65.7862" stroke="#666666" stroke-width="2" stroke-miterlimit="10"/>
<path d="M27.2402 54.4072V65.7866" stroke="#666666" stroke-width="2" stroke-miterlimit="10"/>
<path d="M27.4019 0H27.2912C12.2186 0 0 6.91617 0 19.9785C0.00235297 22.9893 0.656729 25.9638 1.9181 28.6975C7.45105 39.164 17.2674 47.9245 17.2674 54.4073H37.4258C37.4258 47.9245 47.2559 39.164 52.775 28.6975C54.0364 25.9638 54.6908 22.9893 54.6931 19.9785C54.6885 6.90695 42.4745 0 27.4019 0Z" fill="#615EF7"/>
<path d="M33.7371 76.0001H21.0252L20.1445 65.4736H34.6178L33.7371 76.0001Z" fill="#615EF7"/>
<path d="M27.3691 0C29.5224 0 31.2652 6.91617 31.2652 19.9785C31.2652 23.0585 31.1684 26.0002 30.9932 28.6975C30.2002 39.164 28.7985 47.9245 28.7985 54.4073H31.2238C31.2238 47.9245 34.9908 39.164 37.1117 28.6975C37.6053 25.8176 37.8506 22.9005 37.8448 19.9785C37.8356 6.90695 33.1511 0 27.3691 0Z" fill="#68F2D2"/>
<path d="M23.4357 19.9785C23.4357 6.91156 25.1786 0.00461079 27.3318 0C21.5499 0 16.8653 6.91617 16.8653 19.9785C16.8596 22.9005 17.1049 25.8176 17.5985 28.6975C19.7194 39.164 23.4864 47.9245 23.4864 54.4073H25.9117C25.9117 47.9245 24.5285 39.164 23.717 28.6975C23.5325 26.0002 23.4357 23.0585 23.4357 19.9785Z" fill="#68F2D2"/>
<path d="M12.3336 19.9785C12.3336 6.90695 19.0376 0 27.3094 0C15.349 0 5.63869 6.91617 5.63869 19.9785C5.63513 22.9512 6.15006 25.9018 7.16027 28.6975C11.5405 39.164 19.3373 47.9245 19.3373 54.4073H21.8041C21.8041 47.9245 16.4095 39.164 13.3756 28.6975C12.6726 25.8448 12.3226 22.9166 12.3336 19.9785V19.9785Z" fill="#A2C5FB"/>
<path d="M27.3926 0C35.6643 0 42.3684 6.91617 42.3684 19.9785C42.3763 22.9169 42.0232 25.8452 41.3171 28.6975C38.2832 39.164 32.8886 47.9245 32.8886 54.4073H35.3554C35.3554 47.9245 43.1522 39.164 47.5325 28.6975C48.5427 25.9018 49.0576 22.9512 49.054 19.9785C49.0448 6.90695 39.353 0 27.3926 0Z" fill="#A2C5FB"/>
</svg>
