<svg width="36" height="76" viewBox="0 0 36 76" fill="none" xmlns="http://www.w3.org/2000/svg">
<path d="M25.8082 72.2556H10.4844L14.788 56.1475H21.5046L25.8082 72.2556Z" fill="#CCCCCC"/>
<path d="M33.0401 63.6276C32.9849 63.7515 32.9032 63.8619 32.8007 63.9512C32.3315 64.3593 31.4998 64.2709 31.1961 63.6656L30.0443 61.3631C29.7244 60.7282 29.571 60.0232 29.5983 59.3135C29.6694 57.5822 29.6749 54.0734 28.7652 51.813C28.3549 50.8052 27.7707 50.045 26.9226 49.8029C24.9815 49.2453 26.1237 45.4141 27.493 42.1677C28.5573 39.6448 29.7611 37.4756 29.7611 37.4756C30.3744 38.1598 30.9311 38.892 31.4259 39.6652C33.9867 43.5535 38.0892 52.3162 33.0401 63.6276Z" fill="#615EF7"/>
<path d="M3.20975 63.6278C3.2637 63.7525 3.34448 63.8639 3.4464 63.9542C3.91561 64.3622 4.74869 64.2738 5.05101 63.6686L6.20418 61.366C6.52456 60.7313 6.67754 60.0261 6.64877 59.3165C6.579 57.5852 6.57354 54.0763 7.48323 51.8159C7.89362 50.8082 8.47773 50.0479 9.32449 49.8058C11.267 49.2482 10.1248 45.417 8.75543 42.1706C7.6898 39.6478 6.48736 37.4785 6.48736 37.4785C5.87389 38.1629 5.31671 38.8951 4.8212 39.6682C2.26313 43.5538 -1.83936 52.3164 3.20975 63.6278Z" fill="#615EF7"/>
<path d="M29.9004 24.7323V35.3405H29.8922C29.7404 44.96 27.1659 53.2344 23.4629 57.3444C23.2875 57.5334 23.074 57.6836 22.8365 57.7853C22.5989 57.8869 22.3426 57.9379 22.084 57.9347H14.2169C13.9583 57.9376 13.702 57.8866 13.4644 57.7849C13.2269 57.6832 13.0135 57.5332 12.8379 57.3444C9.13217 53.2344 6.55631 44.96 6.40857 35.3405H6.40039V24.7323H6.41679C6.59052 19.3398 8.24576 14.3716 10.2676 10.3255C11.4808 7.8866 12.9362 5.57439 14.6122 3.4234C16.3235 1.24735 17.7393 0.00292969 18.1538 0.00292969C18.9021 0.00292969 22.9102 4.05989 26.0401 10.3255C28.0605 14.3716 29.7158 19.3398 29.8895 24.7323H29.9004Z" fill="#68F2D2"/>
<path d="M19.86 41.9747C19.86 41.9978 19.86 42.0209 19.86 42.0441L18.9024 62.0011C18.8788 62.1856 18.7883 62.3552 18.648 62.4782C18.5076 62.6011 18.3269 62.6689 18.1398 62.6689C17.9527 62.6689 17.7721 62.6011 17.6317 62.4782C17.4913 62.3552 17.4008 62.1856 17.3772 62.0011L16.4196 42.0441C16.3772 41.1478 17.1569 40.3984 18.135 40.3984C19.098 40.3984 19.86 41.1056 19.86 41.9747Z" fill="#615EF7"/>
<path d="M29.8782 32.1895H6.39453V36.0166H29.8782V32.1895Z" fill="#FE5D5D"/>
<path d="M26.0323 10.3253H10.2598C10.3966 10.0533 10.5334 9.78132 10.6702 9.50931C13.7289 3.70743 17.4223 0 18.1392 0C18.856 0 22.5494 3.70743 25.6082 9.50931C25.7559 9.7786 25.8941 10.0492 26.0323 10.3253Z" fill="#FE5D5D"/>
<path d="M18.1472 28.0436C22.3523 28.0436 25.7613 24.9138 25.7613 21.053C25.7613 17.1923 22.3523 14.0625 18.1472 14.0625C13.9421 14.0625 10.5332 17.1923 10.5332 21.053C10.5332 24.9138 13.9421 28.0436 18.1472 28.0436Z" fill="#FE5D5D"/>
<path d="M23.4589 21.0538C23.4589 23.7467 21.08 25.9309 18.1471 25.9309C15.2142 25.9309 12.834 23.7467 12.834 21.0538C12.834 20.9382 12.834 20.8226 12.8477 20.7084C13.0406 18.176 15.3387 16.1768 18.1471 16.1768C20.9555 16.1768 23.2537 18.176 23.4452 20.7084C23.4548 20.8226 23.4589 20.9382 23.4589 21.0538Z" fill="#E3EEFF"/>
<path d="M31.3835 76.0004H0C0.107231 75.3117 0.349937 74.6507 0.714234 74.0553C1.07853 73.4599 1.55726 72.9417 2.1231 72.5303C2.68894 72.1189 3.3308 71.8224 4.01195 71.6578C4.6931 71.4932 5.40022 71.4636 6.09286 71.5708C6.17597 69.8554 6.87939 68.2275 8.07369 66.9866C9.26799 65.7458 10.8728 64.9754 12.5929 64.8174C14.3131 64.6593 16.0327 65.1242 17.4355 66.1264C18.8384 67.1286 19.83 68.6007 20.2279 70.272C20.8513 70.0168 21.5242 69.9037 22.1973 69.9409C22.8704 69.9781 23.5265 70.1647 24.1176 70.487C24.7087 70.8093 25.2196 71.2592 25.6129 71.8035C26.0063 72.3478 26.2719 72.9728 26.3905 73.6326C26.8403 73.2704 27.3841 73.0422 27.9589 72.9745C28.5338 72.9068 29.1161 73.0024 29.6385 73.2501C30.161 73.4979 30.6022 73.8877 30.911 74.3744C31.2198 74.8612 31.3837 75.4249 31.3835 76.0004V76.0004Z" fill="#E3EEFF"/>
</svg>
