<svg width="76" height="64" viewBox="0 0 76 64" fill="none" xmlns="http://www.w3.org/2000/svg">
<path d="M75.9992 45.5176H70.7773V48.4904H75.9992V45.5176Z" fill="#CCCCCC"/>
<path d="M12.3692 63.7082C18.4042 63.7082 23.3004 58.8159 23.3051 52.7809C23.3098 46.7459 18.4213 41.8535 12.3863 41.8535C6.35132 41.8535 1.45515 46.7459 1.45042 52.7809C1.44568 58.8159 6.33418 63.7082 12.3692 63.7082Z" fill="#333333"/>
<path d="M12.4789 57.2256C15.0637 57.2256 17.1596 55.1317 17.1602 52.5488C17.1608 49.9659 15.0659 47.8721 12.481 47.8721C9.89621 47.8721 7.8003 49.9659 7.7997 52.5488C7.7991 55.1317 9.89404 57.2256 12.4789 57.2256Z" fill="#CCCCCC"/>
<path d="M26.0811 2.6489C26.071 4.10848 25.6452 5.28869 25.1294 5.28565C24.6136 5.28261 24.203 4.09633 24.2131 2.63676C24.2232 1.17718 24.649 -0.00403837 25.1648 1.03771e-05C25.6806 0.00405912 26.0912 1.18933 26.0811 2.6489Z" fill="#CCCCCC"/>
<path d="M25.1403 2.70555C25.1403 3.29363 24.9643 3.76936 24.7559 3.76734C24.5476 3.76532 24.3827 3.28857 24.3868 2.70049C24.3908 2.11241 24.5628 1.63668 24.7711 1.6377C24.9795 1.63871 25.1494 2.11747 25.1403 2.70555Z" fill="#CCCCCC"/>
<path d="M23.7465 13.026L21.3576 5.44375C21.2422 5.07794 21.2653 4.68247 21.4223 4.33254C21.5793 3.98262 21.8594 3.70266 22.2092 3.5459L24.6224 2.46387L24.857 2.98919L22.4438 4.07122C22.2228 4.17042 22.046 4.34738 21.9468 4.56849C21.8476 4.78961 21.833 5.03948 21.9058 5.27066L24.2947 12.853L23.7465 13.026Z" fill="#CCCCCC"/>
<path d="M66.4176 36.2629C69.1959 37.5575 72.6448 48.0579 72.7894 52.9478C62.2972 55.2495 0.0175781 52.9478 0.0175781 52.9478C0.0175781 52.9478 1.95844 36.4552 13.5278 36.8864C13.0969 28.9762 20.5701 16.8937 20.5701 16.8937C20.5701 16.8937 24.4508 15.3116 24.1636 15.8865C18.2702 31.4206 23.7317 46.5234 27.3252 49.975C35.2293 49.8313 47.5895 49.975 47.5895 49.975C48.8831 46.0922 48.4998 41.9686 44.9599 36.6465C51.5177 33.866 66.4176 36.2629 66.4176 36.2629Z" fill="#615EF7"/>
<path d="M44.5352 36.3477H66.7939C66.9988 36.3477 67.1954 36.4291 67.3403 36.5742C67.4852 36.7192 67.5666 36.9159 67.5666 37.121V37.2485H44.9569C44.8451 37.2485 44.7378 37.204 44.6587 37.1249C44.5796 37.0457 44.5352 36.9384 44.5352 36.8264V36.3477Z" fill="#CCCCCC"/>
<path d="M66.2032 31.7812H45.1116C44.1989 31.7812 43.459 32.5217 43.459 33.4352V35.0172C43.459 35.9306 44.1989 36.6711 45.1116 36.6711H66.2032C67.1159 36.6711 67.8558 35.9306 67.8558 35.0172V33.4352C67.8558 32.5217 67.1159 31.7812 66.2032 31.7812Z" fill="#FE5D5D"/>
<path d="M23.7323 16.8223C21.2887 19.6989 18.7026 30.1983 19.4925 36.815C20.2824 43.4317 24.0195 50.0514 25.6013 51.266C30.7746 51.3379 47.7336 51.266 47.7336 51.266L47.59 49.9714C47.59 49.9714 35.2298 49.8277 27.3257 49.9714C23.8111 46.5958 18.5114 32.0739 23.7939 16.9043L23.7323 16.8223Z" fill="#FE5D5D"/>
<path d="M58.9337 63.7092C64.9687 63.7092 69.8648 58.8168 69.8696 52.7818C69.8743 46.7468 64.9858 41.8545 58.9508 41.8545C52.9158 41.8545 48.0196 46.7468 48.0149 52.7818C48.0101 58.8168 52.8986 63.7092 58.9337 63.7092Z" fill="#333333"/>
<path d="M58.9473 57.4596C61.5288 57.4596 63.622 55.3684 63.6226 52.7889C63.6232 50.2093 61.5311 48.1182 58.9496 48.1182C56.3681 48.1182 54.2749 50.2093 54.2743 52.7889C54.2736 55.3684 56.3658 57.4596 58.9473 57.4596Z" fill="#CCCCCC"/>
<path d="M70.2976 52.6832C70.2993 51.1379 69.9859 49.6085 69.3767 48.1885C68.7675 46.7685 67.8753 45.4878 66.7546 44.4247C65.6339 43.3616 64.3083 42.5384 62.8589 42.0055C61.4095 41.4726 59.8667 41.2413 58.3248 41.3255C56.783 41.4097 55.2745 41.8078 53.8917 42.4954C52.5088 43.1831 51.2807 44.1458 50.2823 45.3246C49.2839 46.5035 48.5363 47.8738 48.0852 49.3517C47.6341 50.8297 47.4889 52.3841 47.6586 53.9201C56.9968 53.9353 65.358 53.7764 70.2815 53.2936C70.2926 53.0932 70.2976 52.8907 70.2976 52.6832Z" fill="#7371FF"/>
<path d="M24.9193 15.5281C24.631 17.2185 15.577 21.3897 14.6425 16.93C14.0356 14.9886 14.6071 12.0928 14.6071 12.0928C15.5406 7.63409 24.5956 11.8053 24.8828 13.4947L24.9193 15.5281Z" fill="#615EF7"/>
<path d="M15.3261 17.8285C15.7328 17.8285 16.0624 16.3476 16.0624 14.5207C16.0624 12.6939 15.7328 11.2129 15.3261 11.2129C14.9195 11.2129 14.5898 12.6939 14.5898 14.5207C14.5898 16.3476 14.9195 17.8285 15.3261 17.8285Z" fill="#68F2D2"/>
<path d="M20.3819 18.4234C21.0077 16.3774 21.0924 14.204 20.6276 12.1154C20.4997 11.5702 20.3237 11.0374 20.1017 10.5233C19.0842 10.2196 18.0486 10.0506 17.1484 10.1184C17.7017 10.6913 18.1325 11.5587 18.3884 12.6489C18.9012 14.8261 18.5968 17.2472 17.6986 18.9244C18.6122 18.8851 19.5156 18.7164 20.3819 18.4234Z" fill="#CCCCCC"/>
<path d="M13.527 36.8867L13.5209 35.666C13.5047 36.083 13.5057 36.4879 13.527 36.8867Z" fill="#7371FF"/>
<path d="M23.5238 53.6333C15.8372 49.4024 13.5484 39.6024 13.5282 36.8877C-1.06317 37.2096 0.0180107 52.9491 0.0180107 52.9491C0.0180107 52.9491 10.4667 53.3357 23.5238 53.6333Z" fill="#7371FF"/>
<g style="mix-blend-mode:screen">
<path d="M71.6426 45.8457H75.7387V47.1221L71.6426 45.8457Z" fill="#666666"/>
</g>
<path d="M69.7277 38.4912H68.158C67.5034 38.4912 66.9727 39.0223 66.9727 39.6775V41.2798C66.9727 41.935 67.5034 42.4661 68.158 42.4661H69.7277C70.3823 42.4661 70.9131 41.935 70.9131 41.2798V39.6775C70.9131 39.0223 70.3823 38.4912 69.7277 38.4912Z" fill="#CCCCCC"/>
<path d="M68.7812 39.8759V41.0167C68.7812 41.3034 68.8951 41.5783 69.0976 41.7811C69.3002 41.9838 69.5749 42.0977 69.8614 42.0977H70.5836C70.7941 41.8776 70.9115 41.5846 70.9113 41.2798V39.6765C70.9112 39.5101 70.8761 39.3455 70.8081 39.1936C70.7401 39.0416 70.6409 38.9058 70.5168 38.7949H69.8614C69.7196 38.7949 69.5791 38.8229 69.4481 38.8772C69.317 38.9315 69.1979 39.0112 69.0976 39.1115C68.9973 39.2119 68.9178 39.3311 68.8635 39.4623C68.8092 39.5934 68.7812 39.734 68.7812 39.8759V39.8759Z" fill="#68F2D2"/>
<path d="M26.1939 15.6002C26.7195 15.6002 27.1456 15.1738 27.1456 14.6478C27.1456 14.1217 26.7195 13.6953 26.1939 13.6953C25.6683 13.6953 25.2422 14.1217 25.2422 14.6478C25.2422 15.1738 25.6683 15.6002 26.1939 15.6002Z" fill="#615EF7"/>
</svg>
