<svg width="77" height="58" viewBox="0 0 77 58" fill="none" xmlns="http://www.w3.org/2000/svg">
<path d="M36.3867 25.4385V50.7372H45.5899C45.5899 48.5909 46.4426 46.5325 47.9603 45.0148C49.4779 43.4971 51.5363 42.6445 53.6827 42.6445C55.829 42.6445 57.8874 43.4971 59.4051 45.0148C60.9227 46.5325 61.7754 48.5909 61.7754 50.7372H70.1918V25.4385H36.3867Z" fill="#615EF7"/>
<path d="M37.2418 0.143555H3.98071C3.43692 0.143555 2.99609 0.584381 2.99609 1.12817V1.15065C2.99609 1.69443 3.43692 2.13526 3.98071 2.13526H37.2418C37.7855 2.13526 38.2264 1.69443 38.2264 1.15065V1.12817C38.2264 0.584381 37.7855 0.143555 37.2418 0.143555Z" fill="#FE5D5D"/>
<path d="M37.1744 2.11328H4.05273V50.737H37.1744V2.11328ZM11.0349 25.4203V6.53731H30.8171V25.4203H11.0349Z" fill="#615EF7"/>
<path d="M0.000518322 44.5098H4.04688V40.913H0.000518322V44.5098Z" fill="#666666"/>
<path d="M70.2422 50.314V25.4424L76.0015 37.8782L70.2422 50.314Z" fill="#EB4844"/>
<path d="M70.2422 43.2236V32.5322L76.0015 37.8779L70.2422 43.2236Z" fill="#FE5D5D"/>
<path d="M46.0797 11.2266H43.5215V25.4383H46.0797V11.2266Z" fill="#333333"/>
<path d="M48.2129 11.2265H41.3926L44.805 5.47168L48.2129 11.2265Z" fill="#666666"/>
<path d="M65.5571 14.4951H54.043V25.4383H65.5571V14.4951Z" fill="#333333"/>
<path d="M69.6035 0H49.9922V8.34898H69.6035V0Z" fill="#333333"/>
<path d="M65.5527 14.4956H54.043L49.9922 8.34961H69.6035L65.5527 14.4956Z" fill="#666666"/>
<path d="M20.609 57.4798C27.9762 57.4798 33.9485 51.5075 33.9485 44.1403C33.9485 36.7731 27.9762 30.8008 20.609 30.8008C13.2418 30.8008 7.26953 36.7731 7.26953 44.1403C7.26953 51.5075 13.2418 57.4798 20.609 57.4798Z" fill="#333333"/>
<path d="M20.609 57.4798C27.9762 57.4798 33.9485 51.5075 33.9485 44.1403C33.9485 36.7731 27.9762 30.8008 20.609 30.8008C13.2418 30.8008 7.26953 36.7731 7.26953 44.1403C7.26953 51.5075 13.2418 57.4798 20.609 57.4798Z" fill="#333333"/>
<path d="M20.6105 53.2181C18.8152 53.2181 17.0602 52.6858 15.5674 51.6884C14.0747 50.6909 12.9112 49.2732 12.2242 47.6146C11.5371 45.9559 11.3574 44.1308 11.7076 42.3699C12.0579 40.6091 12.9224 38.9917 14.1919 37.7222C15.4614 36.4527 17.0788 35.5881 18.8396 35.2379C20.6005 34.8876 22.4256 35.0674 24.0843 35.7545C25.7429 36.4415 27.1606 37.605 28.158 39.0977C29.1555 40.5905 29.6879 42.3455 29.6879 44.1408C29.6843 46.5472 28.7268 48.854 27.0252 50.5555C25.3237 52.2571 23.0169 53.2146 20.6105 53.2181V53.2181Z" fill="#666666"/>
<path d="M53.6462 57.3861C57.8227 57.3861 61.2084 54.0004 61.2084 49.8239C61.2084 45.6474 57.8227 42.2617 53.6462 42.2617C49.4697 42.2617 46.084 45.6474 46.084 49.8239C46.084 54.0004 49.4697 57.3861 53.6462 57.3861Z" fill="#333333"/>
<path d="M53.6731 52.0552C53.2381 52.0552 52.8129 51.9262 52.4512 51.6844C52.0896 51.4427 51.8078 51.099 51.6415 50.697C51.4753 50.295 51.432 49.8528 51.5172 49.4262C51.6024 48.9996 51.8122 48.6078 52.1201 48.3006C52.4281 47.9933 52.8202 47.7842 53.247 47.6999C53.6738 47.6156 54.1159 47.6598 54.5176 47.8269C54.9192 47.994 55.2623 48.2764 55.5033 48.6386C55.7443 49.0007 55.8725 49.4262 55.8717 49.8612C55.8705 50.4435 55.6383 51.0016 55.2261 51.4129C54.814 51.8242 54.2554 52.0552 53.6731 52.0552V52.0552Z" fill="#666666"/>
<path d="M63.0332 52.5941C62.5562 52.5941 62.0988 52.4046 61.7615 52.0673C61.4243 51.73 61.2348 51.2726 61.2348 50.7957C61.2348 48.7901 60.4381 46.8666 59.0199 45.4484C57.6017 44.0302 55.6782 43.2335 53.6726 43.2335C51.667 43.2335 49.7436 44.0302 48.3254 45.4484C46.9072 46.8666 46.1104 48.7901 46.1104 50.7957C46.1104 51.2726 45.921 51.73 45.5837 52.0673C45.2464 52.4046 44.789 52.5941 44.3121 52.5941C43.8351 52.5941 43.3777 52.4046 43.0404 52.0673C42.7031 51.73 42.5137 51.2726 42.5137 50.7957C42.5137 47.8361 43.6894 44.9978 45.7821 42.9051C47.8748 40.8124 50.7131 39.6367 53.6726 39.6367C56.6322 39.6367 59.4705 40.8124 61.5632 42.9051C63.6559 44.9978 64.8316 47.8361 64.8316 50.7957C64.8316 51.2726 64.6421 51.73 64.3048 52.0673C63.9676 52.4046 63.5102 52.5941 63.0332 52.5941Z" fill="#A2C5FB"/>
<path d="M30.8218 6.54199H11.0352V25.4385H30.8218V6.54199Z" fill="#E3EEFF"/>
<path d="M68.254 50.7419V25.4926C68.2552 25.2295 68.3602 24.9774 68.5463 24.7914C68.7324 24.6053 68.9845 24.5002 69.2476 24.499V24.499C69.5112 24.5002 69.7637 24.6051 69.9505 24.7911C70.1373 24.977 70.2434 25.2291 70.2457 25.4926V50.7599C70.2445 51.0242 70.139 51.2774 69.9521 51.4643C69.7652 51.6513 69.512 51.7568 69.2476 51.758V51.758C69.1156 51.7568 68.9851 51.7296 68.8636 51.6778C68.7421 51.6261 68.632 51.5508 68.5397 51.4564C68.4474 51.362 68.3746 51.2503 68.3256 51.1277C68.2765 51.005 68.2522 50.8739 68.254 50.7419V50.7419Z" fill="#666666"/>
</svg>
