<svg width="76" height="44" viewBox="0 0 76 44" fill="none" xmlns="http://www.w3.org/2000/svg">
<path d="M27.5541 33.6501V9.38965H17.4612C16.8323 9.38965 16.2149 9.55984 15.674 9.88236C15.1331 10.2049 14.6887 10.6678 14.3875 11.2225L9.58677 20.0639L2.50385 24.7497C2.24627 24.9204 2.0349 25.1526 1.88867 25.4256C1.74244 25.6985 1.66593 26.0037 1.66602 26.3137V33.6501H27.5541Z" fill="#68F2D2"/>
<path d="M26.6601 33.7705H28.9785L28.9785 8.66081H26.6601L26.6601 33.7705Z" fill="#666666"/>
<path opacity="0.2" d="M23.8851 33.4404H24.3203V19.5628H23.8851V33.4404Z" fill="#050505"/>
<path opacity="0.2" d="M12.184 33.7461H12.6191L12.6191 19.8684H12.184L12.184 33.7461Z" fill="#050505"/>
<path d="M32.0226 33.9883L67.5234 33.9883V29.1116L32.0226 29.1116V33.9883Z" fill="#333333"/>
<path d="M0.000480652 37.1191L69.5527 37.1191V33.3341L0.000480652 33.3341V37.1191Z" fill="#666666"/>
<path d="M75.1299 28.3118H30.9355V0H62.3397L75.1299 8.72709V28.3118Z" fill="#68F2D2"/>
<path d="M16.1971 36.043C18.0054 36.0053 19.8161 35.9437 21.6256 35.9601C22.5548 35.9689 23.5014 36.0669 24.4418 36.0731C24.2793 34.0976 23.3873 32.2546 21.941 30.9061C20.4948 29.5576 18.5988 28.8011 16.6257 28.7854C14.6525 28.7697 12.7448 29.4958 11.2774 30.821C9.81003 32.1462 8.889 33.9748 8.69531 35.9475C11.1938 36.0103 13.6899 36.0945 16.1971 36.043Z" fill="#FE5D5D"/>
<path d="M30.7189 29.9863L76 29.9863V26.4199L30.7189 26.4199V29.9863Z" fill="#666666"/>
<path d="M51.4791 36.043C53.2886 36.0053 55.0993 35.9437 56.9088 35.9601C57.8379 35.9689 58.7846 36.0669 59.725 36.0731C59.5625 34.0976 58.6705 32.2546 57.2242 30.9061C55.7779 29.5576 53.882 28.8011 51.9089 28.7854C49.9357 28.7697 48.028 29.4958 46.5606 30.821C45.0932 32.1462 44.1722 33.9748 43.9785 35.9475C46.477 36.0103 48.9731 36.0945 51.4791 36.043Z" fill="#FE5D5D"/>
<path d="M16.4395 43.9804C20.1447 43.9804 23.1485 40.9629 23.1485 37.2407C23.1485 33.5184 20.1447 30.501 16.4395 30.501C12.7342 30.501 9.73047 33.5184 9.73047 37.2407C9.73047 40.9629 12.7342 43.9804 16.4395 43.9804Z" fill="#333333"/>
<path d="M18.0092 41.0502C20.1033 40.1788 21.0977 37.767 20.2303 35.6633C19.3629 33.5596 16.9621 32.5606 14.868 33.432C12.7738 34.3034 11.7794 36.7152 12.6468 38.8189C13.5142 40.9226 15.915 41.9216 18.0092 41.0502Z" fill="#666666"/>
<path d="M19.5138 37.7503C19.7883 36.0519 18.6402 34.4516 16.9495 34.1759C15.2589 33.9002 13.6659 35.0535 13.3914 36.7519C13.117 38.4503 14.2651 40.0506 15.9557 40.3263C17.6464 40.602 19.2394 39.4487 19.5138 37.7503Z" fill="#CCCCCC"/>
<path d="M51.8906 43.9804C55.5959 43.9804 58.5996 40.9629 58.5996 37.2407C58.5996 33.5184 55.5959 30.501 51.8906 30.501C48.1854 30.501 45.1816 33.5184 45.1816 37.2407C45.1816 40.9629 48.1854 43.9804 51.8906 43.9804Z" fill="#333333"/>
<path d="M52.3969 41.3199C54.6466 41.0416 56.2458 38.9839 55.9687 36.7239C55.6917 34.464 53.6434 32.8575 51.3937 33.1358C49.1441 33.414 47.5449 35.4717 47.8219 37.7317C48.0989 39.9917 50.1472 41.5982 52.3969 41.3199Z" fill="#666666"/>
<path d="M54.967 37.7503C55.2414 36.0519 54.0933 34.4516 52.4027 34.1759C50.712 33.9002 49.119 35.0535 48.8446 36.7519C48.5701 38.4503 49.7182 40.0506 51.4089 40.3263C53.0995 40.602 54.6925 39.4487 54.967 37.7503Z" fill="#CCCCCC"/>
<path d="M23.3839 20.351H13.8368C13.0725 20.351 12.5907 19.5282 12.9648 18.8616L16.6365 12.3192C16.8135 12.0038 17.147 11.8086 17.5086 11.8086H23.3839C23.9362 11.8086 24.3839 12.2563 24.3839 12.8086V19.351C24.3839 19.9033 23.9362 20.351 23.3839 20.351Z" fill="#E3EEFF"/>
<path d="M21.6094 21.6162H23.4564C23.5189 21.6165 23.5787 21.6417 23.6227 21.6862C23.6668 21.7307 23.6915 21.7909 23.6915 21.8536V21.8536C23.6915 21.8847 23.6854 21.9154 23.6736 21.944C23.6618 21.9727 23.6445 21.9987 23.6226 22.0206C23.6008 22.0426 23.5749 22.06 23.5464 22.0718C23.5178 22.0837 23.4873 22.0898 23.4564 22.0898H21.6094C21.5469 22.0898 21.487 22.065 21.4427 22.0207C21.3984 21.9765 21.3734 21.9164 21.373 21.8536V21.8536C21.373 21.7907 21.3979 21.7303 21.4423 21.6858C21.4866 21.6412 21.5467 21.6162 21.6094 21.6162V21.6162Z" fill="#333333"/>
<path d="M12.5529 17.3945C12.6519 17.3961 12.7464 17.4364 12.8164 17.5067C12.8864 17.577 12.9265 17.672 12.9281 17.7714V20.5012C12.9265 20.6007 12.8864 20.6956 12.8164 20.7659C12.7464 20.8362 12.6519 20.8765 12.5529 20.8781V20.8781C12.4534 20.8781 12.358 20.8384 12.2876 20.7677C12.2173 20.697 12.1778 20.6012 12.1778 20.5012V17.7764C12.1771 17.7265 12.1863 17.677 12.2049 17.6307C12.2234 17.5844 12.251 17.5422 12.2859 17.5067C12.3208 17.4711 12.3623 17.4429 12.4082 17.4237C12.454 17.4044 12.5032 17.3945 12.5529 17.3945V17.3945Z" fill="#333333"/>
<path d="M1.70312 27.6214V30.1338C1.70312 30.1338 3.98531 30.2431 4.20415 30.0974C4.42299 29.9517 5.07326 27.9505 4.67434 27.404C4.27543 26.8576 1.70312 27.6214 1.70312 27.6214Z" fill="#E3EEFF"/>
<path d="M13.2222 21.9876C13.1999 21.982 13.1766 21.982 13.1543 21.9876H13.2222Z" fill="#FBFCFF"/>
</svg>
