<svg width="76" height="37" viewBox="0 0 76 37" fill="none" xmlns="http://www.w3.org/2000/svg">
<path d="M55.9965 36.4966C57.6374 36.4966 58.9677 35.8336 58.9677 35.0159C58.9677 34.1981 57.6374 33.5352 55.9965 33.5352C54.3556 33.5352 53.0254 34.1981 53.0254 35.0159C53.0254 35.8336 54.3556 36.4966 55.9965 36.4966Z" fill="#666666"/>
<path d="M27.6677 26.0703C28.3594 29.4539 25.0312 34.008 25.0312 34.008L25.5509 34.5261C29.0098 31.6222 29.1373 26.5052 29.1373 26.5052L27.6677 26.0703Z" fill="#666666"/>
<path d="M39.4062 27.8584L39.7952 32.5116H40.4742L40.7675 27.8584H39.4062Z" fill="#666666"/>
<path d="M40.0844 35.0151C41.7253 35.0151 43.0556 34.3522 43.0556 33.5344C43.0556 32.7166 41.7253 32.0537 40.0844 32.0537C38.4435 32.0537 37.1133 32.7166 37.1133 33.5344C37.1133 34.3522 38.4435 35.0151 40.0844 35.0151Z" fill="#666666"/>
<path d="M23.77 36.4966C25.4109 36.4966 26.7411 35.8336 26.7411 35.0159C26.7411 34.1981 25.4109 33.5352 23.77 33.5352C22.1291 33.5352 20.7988 34.1981 20.7988 35.0159C20.7988 35.8336 22.1291 36.4966 23.77 36.4966Z" fill="#666666"/>
<g style="mix-blend-mode:screen">
<path d="M26.0571 35.0252C26.0571 35.6649 26.293 34.488 25.0306 34.488C23.7682 34.488 21.4824 35.6521 21.4824 35.0252C21.4824 34.3984 22.5057 33.8867 23.7713 33.8867C25.037 33.8867 26.0571 34.3856 26.0571 35.0252Z" fill="#525252"/>
</g>
<g style="mix-blend-mode:screen">
<path d="M53.7192 35.2303C53.7192 35.8699 53.4801 34.693 54.7425 34.693C56.005 34.693 58.2907 35.8603 58.2907 35.2303C58.2907 34.6003 57.2674 34.0918 56.0049 34.0918C54.7425 34.0918 53.7192 34.6003 53.7192 35.2303Z" fill="#525252"/>
</g>
<path d="M52.0966 26.0703C51.4048 29.4539 54.733 34.008 54.733 34.008L54.2165 34.5261C50.7577 31.6222 50.627 26.5052 50.627 26.5052L52.0966 26.0703Z" fill="#666666"/>
<path d="M4.07617 17.8424C30.4658 34.69 52.7748 30.6572 70.1522 18.6867C37.4059 16.8638 4.07617 17.8424 4.07617 17.8424Z" fill="#EB4844"/>
<path d="M76 14.8482C76 20.2145 58.9893 24.5639 38 24.5639C24.8849 24.5639 13.3191 22.8626 6.4906 20.2785C2.39412 18.7274 0 16.8598 0 14.8418C0 9.47538 17.0139 5.12598 38 5.12598C58.9861 5.12598 76 9.48176 76 14.8482Z" fill="#FE5D5D"/>
<path d="M22.9141 8.25713C31.5214 -2.76028 45.1753 -2.80185 51.9241 8.42984C51.7934 11.0331 51.5352 11.2058 51.5352 11.2058L43.7535 13.4156C43.7535 13.4156 33.074 13.5468 32.685 13.4156C32.2961 13.2845 25.2923 11.3337 25.2923 11.3337L22.9141 8.25713Z" fill="#E3EEFF"/>
<path d="M20.9886 10.7489C26.5037 15.6675 46.9 18.3156 54.3215 10.4674V10.0005C54.0282 8.72128 52.4406 8.08166 51.7934 8.22238C44.372 16.0737 27.0839 13.0195 23.0543 8.07526C21.1193 7.4964 19.8282 9.71589 20.9886 10.7489Z" fill="#EB4844"/>
<path d="M18.0301 15.5479C18.3172 14.8509 16.9037 13.6035 14.8729 12.7617C12.8422 11.9199 10.9632 11.8026 10.6761 12.4996C10.389 13.1967 11.8025 14.4441 13.8333 15.2859C15.864 16.1276 17.743 16.245 18.0301 15.5479Z" fill="#68F2D2"/>
<path d="M17.1756 15.1968C16.9557 15.7308 15.5116 15.6413 13.9527 14.9953C12.3938 14.3493 11.3099 13.3962 11.533 12.859C11.7562 12.3217 13.1939 12.4112 14.7528 13.0572C16.3117 13.7032 17.3956 14.6595 17.1756 15.1968Z" fill="#68F2D2"/>
<path d="M41.8074 19.6011C41.8074 20.3559 40.0317 20.9731 37.8352 20.9763C35.6388 20.9795 33.8567 20.3751 33.8535 19.6203C33.8503 18.8656 35.6324 18.2483 37.8289 18.2451C40.0253 18.2419 41.8074 18.8464 41.8074 19.6011Z" fill="#68F2D2"/>
<path d="M40.8881 19.6041C40.8881 20.183 39.5236 20.6563 37.8372 20.6595C36.1508 20.6627 34.7864 20.1958 34.7832 19.6169C34.78 19.038 36.1476 18.5647 37.834 18.5615C39.5205 18.5583 40.8881 19.0349 40.8881 19.6041Z" fill="#68F2D2"/>
<path d="M64.8446 12.6131C65.259 13.2528 64.1145 14.7399 62.2942 15.9583C60.4739 17.1768 58.6441 17.6565 58.2264 17.0265C57.8088 16.3965 58.9565 14.8998 60.7768 13.6813C62.5971 12.4628 64.4397 11.9991 64.8446 12.6131Z" fill="#68F2D2"/>
<path d="M64.0738 13.1243C64.3926 13.6072 63.516 14.7585 62.1101 15.6827C60.7042 16.607 59.3079 16.9876 58.9891 16.5046C58.6703 16.0217 59.5502 14.8736 60.9529 13.9462C62.3555 13.0187 63.755 12.6382 64.0738 13.1243Z" fill="#68F2D2"/>
</svg>
